<svg width="1134" height="576" viewBox="0 0 1134 576" fill="none" xmlns="http://www.w3.org/2000/svg">
<g clip-path="url(#clip0)">
<path d="M1134 0H0V576H1134V0Z" fill="#F1F2F6"/>
<path d="M558.986 576C582.427 480.669 605.768 385.338 650.748 296.53C695.727 207.721 762.344 125.536 846.493 77.1679C930.641 28.8 1032.32 14.4502 1134 0V576H558.986Z" fill="#45AF0D"/>
<path d="M575.014 0C561.39 103.259 547.866 206.517 497.978 288C448.09 369.483 362.039 429.291 272.981 473.645C183.924 517.999 91.9622 546.999 0 576V0H575.014Z" fill="#45AF0D"/>
<path d="M840.496 400.139C858.812 400.139 857.987 399.643 857.987 398.743C857.987 397.843 858.812 396.88 840.496 396.88C822.181 396.88 821.677 399.238 821.677 400.139C821.677 401.038 822.743 398.743 840.496 400.139Z" fill="#3F3D56" fill-opacity="0.7"/>
<path d="M832.999 394.218C832.999 394.218 834.998 392.177 836.978 393.63C836.978 393.63 836.369 395.448 833.861 395.277L832.999 394.218Z" fill="#F1F2F6"/>
<path d="M832.755 394.328C832.755 394.328 832.146 397.922 833.67 400.352C833.67 400.352 834.588 398.873 833.678 395.253L832.755 394.328Z" fill="#F1F2F6"/>
<path d="M830.262 390.887C830.262 390.887 830.412 387.836 834.857 388.848C834.857 388.848 834.877 390.815 833.316 391.747C831.755 392.679 831.041 391.894 830.262 390.887Z" fill="#F1F2F6"/>
<path d="M829.989 390.866C829.989 390.866 828.109 391.796 829.785 398.257C829.785 398.257 831.025 397.829 831.244 395.26C831.463 392.691 830.804 391.8 829.989 390.866Z" fill="#F1F2F6"/>
<path d="M827.471 386.53C827.471 386.53 827.217 381.512 831.761 382.029C831.761 382.029 832.083 386.569 828.274 387.736L827.471 386.53Z" fill="#F1F2F6"/>
<path d="M824.47 380.875C824.47 380.875 825.091 375.191 829.633 376.885C829.633 376.885 829.651 381.801 825.21 382.233L824.47 380.875Z" fill="#F1F2F6"/>
<path d="M822.275 375.021C822.275 375.021 823.326 369.469 827.818 371.14C827.818 371.14 826.747 376.121 822.573 376.044L822.275 375.021Z" fill="#F1F2F6"/>
<path d="M820.191 369.301C820.191 369.301 821.21 363.554 825.554 365.279C825.554 365.279 824.103 370.741 820.476 370.28L820.191 369.301Z" fill="#F1F2F6"/>
<path d="M818.847 363.868C818.847 363.868 819.631 356.839 823.682 358.395C823.682 358.395 822.504 364.788 819.146 364.891L818.847 363.868Z" fill="#F1F2F6"/>
<path d="M817.587 357.304C817.587 357.304 818.529 350.22 822.623 352.28C822.623 352.28 821.015 358.976 817.873 358.283L817.587 357.304Z" fill="#F1F2F6"/>
<path d="M816.808 351.19C816.808 351.19 818.301 344.103 821.47 344.296C821.47 344.296 819.943 351.78 817.072 352.61L816.808 351.19Z" fill="#F1F2F6"/>
<path d="M816.313 345.235C816.313 345.235 817.937 336.705 820.517 337.365C820.517 337.365 819.392 343.875 816.404 346.565L816.313 345.235Z" fill="#F1F2F6"/>
<path d="M816.031 338.116C816.031 338.116 817.554 331.008 820.101 330.729C820.101 330.729 819.063 337.723 816.087 339.967L816.031 338.116Z" fill="#F1F2F6"/>
<path d="M815.723 331.487C815.723 331.487 817.623 324.37 819.305 324.21C819.305 324.21 818.481 331.218 815.891 332.655L815.723 331.487Z" fill="#F1F2F6"/>
<path d="M815.511 325.314C815.511 325.314 816.679 317.586 818.364 316.944C818.364 316.944 818.134 323.264 815.684 325.891L815.511 325.314Z" fill="#F1F2F6"/>
<path d="M814.88 317.244C814.88 317.244 816.108 311.085 817.469 310.146C817.469 310.146 817.2 317.407 815.196 318.748L814.88 317.244Z" fill="#F1F2F6"/>
<path d="M814.353 311.929L814.106 301.069C814.106 301.069 816.646 309.267 814.541 313.845L814.353 311.929Z" fill="#F1F2F6"/>
<path d="M812.39 301.137C812.39 301.137 810.558 293.206 810.118 292.766C810.118 292.766 813.711 297.912 813.359 304.531L812.39 301.137Z" fill="#F1F2F6"/>
<path d="M827.348 386.504C827.348 386.504 824.126 385.851 824.222 392.903C824.222 392.903 827.135 393.637 828.085 387.806L827.348 386.504Z" fill="#F1F2F6"/>
<path d="M824.317 380.687C824.317 380.687 820.593 380.666 820.897 387.895C820.897 387.895 824.021 388.76 825.052 382.059L824.317 380.687Z" fill="#F1F2F6"/>
<path d="M822.239 375.488C822.239 375.488 818.859 373.045 816.696 379.369C816.696 379.369 819.819 381.412 822.537 376.511L822.239 375.488Z" fill="#F1F2F6"/>
<path d="M820.116 369.355C820.116 369.355 816.655 366.742 814.622 372.933C814.622 372.933 818.225 374.853 820.401 370.334L820.116 369.355Z" fill="#F1F2F6"/>
<path d="M818.891 364.021C818.891 364.021 815.56 359.092 812.902 364.077C812.902 364.077 816.305 368.132 819.044 365.119L818.891 364.021Z" fill="#F1F2F6"/>
<path d="M817.777 357.137C817.777 357.137 814.425 352.096 811.787 357.369C811.787 357.369 815.55 361.503 817.895 358.195L817.777 357.137Z" fill="#F1F2F6"/>
<path d="M817.155 350.994C817.155 350.994 814.574 344.717 811.534 346.112C811.534 346.112 814.212 352.775 817.126 352.478L817.155 350.994Z" fill="#F1F2F6"/>
<path d="M816.389 345.196C816.389 345.196 813.784 337.27 811.327 338.646C811.327 338.646 813.202 344.738 816.455 346.528L816.389 345.196Z" fill="#F1F2F6"/>
<path d="M816.209 337.704C816.209 337.704 813.535 331.464 811.029 332.227C811.029 332.227 813.215 338.553 816.469 339.509L816.209 337.704Z" fill="#F1F2F6"/>
<path d="M816.005 331.348C816.005 331.348 813.933 324.347 812.251 324.287C812.251 324.287 813.247 331.239 815.87 332.524L816.005 331.348Z" fill="#F1F2F6"/>
<path d="M815.595 325.161C815.595 325.161 813.29 318.072 811.559 318.058C811.559 318.058 812.739 324.119 815.517 325.787L815.595 325.161Z" fill="#F1F2F6"/>
<path d="M815.248 317.672C815.248 317.672 813.524 311.804 812.095 311.139C812.095 311.139 812.957 318.29 815.056 319.228L815.248 317.672Z" fill="#F1F2F6"/>
<path d="M814.152 311.725L810.298 302.641C810.298 302.641 811.284 311.601 814.711 313.457L814.152 311.725Z" fill="#F1F2F6"/>
<path d="M811.505 301.869C811.505 301.869 807.029 297.084 806.867 296.319C806.867 296.319 809.151 303.022 813.371 304.203L811.505 301.869Z" fill="#F1F2F6"/>
<path d="M811.237 299.716C811.237 299.716 806.098 292.066 804.781 292.074C804.781 292.074 809.02 292.374 811.356 299.309L811.237 299.716Z" fill="#F1F2F6"/>
<path d="M815.203 318.807L815.016 318.844C814.05 307.137 812.642 300.221 811.05 299.365L811.113 299.088C812.801 299.995 814.209 306.814 815.203 318.807Z" fill="#444053"/>
<path d="M816.617 346.795L816.335 346.832C816.275 345.74 816.23 344.621 816.199 343.508C815.93 333.817 815.511 324.921 814.962 318.251L815.125 317.939C815.676 324.619 816.212 333.787 816.476 343.487C816.514 344.596 816.554 345.707 816.617 346.795Z" fill="#444053"/>
<path d="M838.277 399.782C838.227 399.747 833.249 396.306 828.079 388.092C825.052 383.284 822.536 377.765 820.625 371.738C818.236 364.21 816.78 354.954 816.292 345.958L816.592 346.172C817.689 366.363 823.625 380.166 828.345 387.674C833.463 395.811 838.386 399.222 838.436 399.255L838.277 399.782Z" fill="#444053"/>
<path d="M846.423 394.218C846.423 394.218 844.008 392.177 841.615 393.63C841.615 393.63 842.352 395.448 845.382 395.277L846.423 394.218Z" fill="#F1F2F6"/>
<path d="M846.719 394.328C846.719 394.328 847.454 397.922 845.612 400.352C845.612 400.352 844.504 398.873 845.603 395.253L846.719 394.328Z" fill="#F1F2F6"/>
<path d="M849.73 390.887C849.73 390.887 849.549 387.836 844.179 388.848C844.179 388.848 844.153 390.815 846.04 391.747C847.927 392.679 848.789 391.894 849.73 390.887Z" fill="#F1F2F6"/>
<path d="M850.06 390.866C850.06 390.866 852.332 391.796 850.307 398.257C850.307 398.257 848.809 397.829 848.544 395.26C848.279 392.691 849.075 391.8 850.06 390.866Z" fill="#F1F2F6"/>
<path d="M853.103 386.53C853.103 386.53 853.409 381.512 847.92 382.029C847.92 382.029 847.53 386.569 852.132 387.736L853.103 386.53Z" fill="#F1F2F6"/>
<path d="M856.729 380.875C856.729 380.875 855.978 375.191 850.49 376.885C850.49 376.885 850.469 381.801 855.835 382.233L856.729 380.875Z" fill="#F1F2F6"/>
<path d="M859.382 375.021C859.382 375.021 858.112 369.469 852.684 371.14C852.684 371.14 853.977 376.121 859.021 376.044L859.382 375.021Z" fill="#F1F2F6"/>
<path d="M861.9 369.301C861.9 369.301 860.668 363.554 855.42 365.279C855.42 365.279 857.172 370.741 861.555 370.28L861.9 369.301Z" fill="#F1F2F6"/>
<path d="M863.524 363.868C863.524 363.868 862.576 356.839 857.682 358.395C857.682 358.395 859.104 364.788 863.163 364.891L863.524 363.868Z" fill="#F1F2F6"/>
<path d="M865.046 357.304C865.046 357.304 863.908 350.22 858.961 352.28C858.961 352.28 860.904 358.976 864.701 358.283L865.046 357.304Z" fill="#F1F2F6"/>
<path d="M865.987 351.19C865.987 351.19 864.184 344.103 860.354 344.296C860.354 344.296 862.199 351.78 865.668 352.61L865.987 351.19Z" fill="#F1F2F6"/>
<path d="M866.586 345.235C866.586 345.235 864.623 336.705 861.506 337.365C861.506 337.365 862.865 343.875 866.475 346.565L866.586 345.235Z" fill="#F1F2F6"/>
<path d="M866.927 338.116C866.927 338.116 865.085 331.008 862.009 330.729C862.009 330.729 863.262 337.723 866.858 339.967L866.927 338.116Z" fill="#F1F2F6"/>
<path d="M867.299 331.487C867.299 331.487 865.002 324.37 862.97 324.21C862.97 324.21 863.966 331.218 867.096 332.655L867.299 331.487Z" fill="#F1F2F6"/>
<path d="M867.555 325.314C867.555 325.314 866.143 317.586 864.108 316.944C864.108 316.944 864.385 323.264 867.346 325.891L867.555 325.314Z" fill="#F1F2F6"/>
<path d="M868.317 317.244C868.317 317.244 866.833 311.085 865.189 310.146C865.189 310.146 865.514 317.407 867.936 318.748L868.317 317.244Z" fill="#F1F2F6"/>
<path d="M868.953 311.929L869.253 301.069C869.253 301.069 866.183 309.267 868.727 313.845L868.953 311.929Z" fill="#F1F2F6"/>
<path d="M871.326 301.137C871.326 301.137 873.54 293.206 874.071 292.766C874.071 292.766 869.73 297.912 870.155 304.531L871.326 301.137Z" fill="#F1F2F6"/>
<path d="M853.251 386.504C853.251 386.504 857.145 385.851 857.029 392.903C857.029 392.903 853.509 393.637 852.361 387.806L853.251 386.504Z" fill="#F1F2F6"/>
<path d="M856.914 380.687C856.914 380.687 861.414 380.666 861.047 387.895C861.047 387.895 857.272 388.76 856.025 382.059L856.914 380.687Z" fill="#F1F2F6"/>
<path d="M859.425 375.488C859.425 375.488 863.509 373.045 866.123 379.369C866.123 379.369 862.35 381.412 859.064 376.511L859.425 375.488Z" fill="#F1F2F6"/>
<path d="M861.991 369.355C861.991 369.355 866.172 366.742 868.629 372.933C868.629 372.933 864.275 374.853 861.646 370.334L861.991 369.355Z" fill="#F1F2F6"/>
<path d="M863.471 364.021C863.471 364.021 867.495 359.092 870.708 364.077C870.708 364.077 866.595 368.132 863.286 365.119L863.471 364.021Z" fill="#F1F2F6"/>
<path d="M864.817 357.137C864.817 357.137 868.867 352.096 872.055 357.369C872.055 357.369 867.508 361.503 864.674 358.195L864.817 357.137Z" fill="#F1F2F6"/>
<path d="M865.568 350.994C865.568 350.994 868.687 344.717 872.36 346.112C872.36 346.112 869.124 352.775 865.603 352.478L865.568 350.994Z" fill="#F1F2F6"/>
<path d="M866.493 345.196C866.493 345.196 869.641 337.27 872.611 338.646C872.611 338.646 870.345 344.738 866.414 346.528L866.493 345.196Z" fill="#F1F2F6"/>
<path d="M866.711 337.704C866.711 337.704 869.942 331.464 872.97 332.227C872.97 332.227 870.329 338.553 866.397 339.509L866.711 337.704Z" fill="#F1F2F6"/>
<path d="M866.958 331.348C866.958 331.348 869.461 324.347 871.494 324.287C871.494 324.287 870.291 331.239 867.121 332.524L866.958 331.348Z" fill="#F1F2F6"/>
<path d="M867.453 325.161C867.453 325.161 870.238 318.072 872.33 318.058C872.33 318.058 870.904 324.119 867.547 325.787L867.453 325.161Z" fill="#F1F2F6"/>
<path d="M867.872 317.672C867.872 317.672 869.955 311.804 871.682 311.139C871.682 311.139 870.641 318.29 868.104 319.228L867.872 317.672Z" fill="#F1F2F6"/>
<path d="M869.196 311.725L873.853 302.641C873.853 302.641 872.662 311.601 868.522 313.457L869.196 311.725Z" fill="#F1F2F6"/>
<path d="M872.395 301.869C872.395 301.869 877.804 297.084 877.998 296.319C877.998 296.319 875.24 303.022 870.14 304.203L872.395 301.869Z" fill="#F1F2F6"/>
<path d="M872.717 299.716C872.717 299.716 878.927 292.066 880.518 292.074C880.518 292.074 875.398 292.374 872.575 299.309L872.717 299.716Z" fill="#F1F2F6"/>
<path d="M867.927 318.807L868.153 318.844C869.32 307.137 871.022 300.221 872.946 299.365L872.87 299.088C870.829 299.995 869.128 306.814 867.927 318.807Z" fill="#444053"/>
<path d="M866.218 346.795L866.559 346.832C866.631 345.74 866.686 344.621 866.724 343.508C867.048 333.817 867.555 324.921 868.219 318.251L868.021 317.939C867.355 324.619 866.708 333.787 866.388 343.487C866.343 344.596 866.294 345.707 866.218 346.795Z" fill="#444053"/>
<path d="M840.046 399.782C840.106 399.747 846.122 396.306 852.368 388.092C856.025 383.284 859.065 377.765 861.376 371.738C864.262 364.21 866.022 354.954 866.611 345.958L866.248 346.172C864.922 366.363 857.751 380.166 852.047 387.674C845.862 395.811 839.914 399.222 839.854 399.255L840.046 399.782Z" fill="#444053"/>
<path d="M841.436 392.65C841.436 392.65 839.178 391.339 837.982 393.327C837.982 393.327 839.03 394.857 841.044 393.917L841.436 392.65Z" fill="#F1F2F6"/>
<path d="M841.671 392.678C841.671 392.678 843.25 395.888 842.723 398.657C842.723 398.657 841.524 397.543 841.188 393.839L841.671 392.678Z" fill="#F1F2F6"/>
<path d="M842.692 388.652C842.692 388.652 841.653 385.814 838.296 388.148C838.296 388.148 838.868 390.014 840.434 390.411C842 390.809 842.352 389.845 842.692 388.652Z" fill="#F1F2F6"/>
<path d="M842.91 388.547C842.91 388.547 844.738 388.844 845.296 395.472C845.296 395.472 844.146 395.452 843.195 393.091C842.243 390.73 842.519 389.684 842.91 388.547Z" fill="#F1F2F6"/>
<path d="M843.684 383.668C843.684 383.668 842.387 378.845 838.8 380.741C838.8 380.741 839.896 385.134 843.384 385.057L843.684 383.668Z" fill="#F1F2F6"/>
<path d="M844.46 377.391C844.46 377.391 842.242 372.209 839.01 375.219C839.01 375.219 840.469 379.872 844.257 378.905L844.46 377.391Z" fill="#F1F2F6"/>
<path d="M844.511 371.176C844.511 371.176 841.98 366.252 838.781 369.225C838.781 369.225 841.157 373.602 844.572 372.236L844.511 371.176Z" fill="#F1F2F6"/>
<path d="M844.512 365.122C844.512 365.122 841.948 360.004 838.888 362.981C838.888 362.981 841.721 367.696 844.571 366.136L844.512 365.122Z" fill="#F1F2F6"/>
<path d="M843.989 359.569C843.989 359.569 841.235 353.166 838.365 355.892C838.365 355.892 841.253 361.573 844.05 360.629L843.989 359.569Z" fill="#F1F2F6"/>
<path d="M843.058 352.973C843.058 352.973 840.157 346.567 837.403 349.783C837.403 349.783 840.736 355.615 843.117 353.987L843.058 352.973Z" fill="#F1F2F6"/>
<path d="M841.866 346.95C841.866 346.95 838.51 340.712 835.958 341.877C835.958 341.877 839.46 348.48 842.074 348.375L841.866 346.95Z" fill="#F1F2F6"/>
<path d="M840.487 341.167C840.487 341.167 836.59 333.605 834.664 335.028C834.664 335.028 837.543 340.835 840.811 342.453L840.487 341.167Z" fill="#F1F2F6"/>
<path d="M838.584 334.348C838.584 334.348 835.197 328.1 833.016 328.626C833.016 328.626 835.968 334.916 839.093 336.116L838.584 334.348Z" fill="#F1F2F6"/>
<path d="M836.849 327.985C836.849 327.985 833.149 321.846 831.716 322.215C831.716 322.215 834.497 328.585 837.061 329.141L836.849 327.985Z" fill="#F1F2F6"/>
<path d="M835.172 322.083C835.172 322.083 831.892 315.138 830.311 315.054C830.311 315.054 832.396 320.958 835.203 322.682L835.172 322.083Z" fill="#F1F2F6"/>
<path d="M833.271 314.258C833.271 314.258 830.411 308.815 829.009 308.349C829.009 308.349 831.409 315.131 833.462 315.778L833.271 314.258Z" fill="#F1F2F6"/>
<path d="M832.11 309.07L829.057 298.725C829.057 298.725 829.423 307.263 832.531 310.939L832.11 309.07Z" fill="#F1F2F6"/>
<path d="M830.49 298.257C830.49 298.257 829.62 290.191 829.851 289.639C829.851 289.639 828.435 295.617 830.71 301.767L830.49 298.257Z" fill="#F1F2F6"/>
<path d="M843.777 383.605C843.777 383.605 846.235 381.989 848.272 388.686C848.272 388.686 846.093 390.283 843.561 385.065L843.777 383.605Z" fill="#F1F2F6"/>
<path d="M844.529 377.166C844.529 377.166 847.59 375.992 849.509 382.921C849.509 382.921 847.194 384.707 844.335 378.691L844.529 377.166Z" fill="#F1F2F6"/>
<path d="M844.682 371.607C844.682 371.607 846.732 368.249 850.412 373.558C850.412 373.558 848.452 376.458 844.742 372.667L844.682 371.607Z" fill="#F1F2F6"/>
<path d="M844.59 365.15C844.59 365.15 846.657 361.607 850.189 366.831C850.189 366.831 847.797 369.763 844.649 366.164L844.59 365.15Z" fill="#F1F2F6"/>
<path d="M843.999 359.727C843.999 359.727 845.264 354.035 848.949 357.925C848.949 357.925 847.362 362.813 844.202 360.812L843.999 359.727Z" fill="#F1F2F6"/>
<path d="M842.852 352.873C842.852 352.873 844.1 347.069 847.855 351.237C847.855 351.237 845.996 356.312 843.072 353.91L842.852 352.873Z" fill="#F1F2F6"/>
<path d="M841.521 346.873C841.521 346.873 841.764 340.138 844.687 340.515C844.687 340.515 844.48 347.645 841.99 348.266L841.521 346.873Z" fill="#F1F2F6"/>
<path d="M840.412 341.153C840.412 341.153 840.181 332.852 842.618 333.392C842.618 333.392 842.901 339.732 840.758 342.433L840.412 341.153Z" fill="#F1F2F6"/>
<path d="M838.314 334.014C838.314 334.014 838.644 327.286 840.937 327.23C840.937 327.23 841.034 333.889 838.641 335.801L838.314 334.014Z" fill="#F1F2F6"/>
<path d="M836.575 327.941C836.575 327.941 836.182 320.68 837.549 320.102C837.549 320.102 838.814 326.983 837.039 329.012L836.575 327.941Z" fill="#F1F2F6"/>
<path d="M835.057 321.965C835.057 321.965 834.829 314.548 836.251 313.998C836.251 313.998 837.097 320.095 835.309 322.532L835.057 321.965Z" fill="#F1F2F6"/>
<path d="M833.096 314.776C833.096 314.776 832.755 308.694 833.733 307.622C833.733 307.622 835.169 314.651 833.721 316.188L833.096 314.776Z" fill="#F1F2F6"/>
<path d="M832.215 308.814L832.664 299.031C832.664 299.031 834.54 307.809 832.274 310.624L832.215 308.814Z" fill="#F1F2F6"/>
<path d="M831.438 298.675C831.438 298.675 833.69 292.764 833.594 291.991C833.594 291.991 833.724 299.036 830.602 301.46L831.438 298.675Z" fill="#F1F2F6"/>
<path d="M831.013 296.556C831.013 296.556 832.951 287.731 834.038 287.33C834.038 287.33 830.637 288.927 830.793 296.208L831.013 296.556Z" fill="#F1F2F6"/>
<path d="M833.473 315.835L833.639 315.812C830.923 304.445 830.008 297.469 831.062 296.167L830.927 295.925C829.809 297.305 830.695 304.189 833.473 315.835Z" fill="#444053"/>
<path d="M840.704 342.736L840.948 342.684C840.67 341.632 840.371 340.561 840.063 339.498C837.378 330.252 835.054 321.712 833.506 315.235L833.277 314.991C834.828 321.477 837.136 330.311 839.828 339.564C840.13 340.624 840.43 341.688 840.704 342.736Z" fill="#444053"/>
<path d="M838.758 399.546C838.789 399.497 841.857 394.701 843.652 385.333C844.702 379.85 845.119 373.851 844.886 367.561C844.595 359.703 843.018 350.5 840.722 341.844L840.539 342.139C845.691 361.569 844.943 376.459 843.307 385.02C841.532 394.3 838.5 399.05 838.469 399.096L838.758 399.546Z" fill="#444053"/>
<path d="M769.419 294.341L770.472 293.476L769.419 294.341ZM766.762 256.288L765.555 255.657L765.553 255.66L766.762 256.288ZM775.632 246.56L776.324 247.734L776.327 247.732L776.33 247.73L775.632 246.56ZM796.722 244.925L796.174 246.173L796.176 246.174L796.179 246.175L796.722 244.925ZM803.793 249.626L804.773 250.573L805.74 249.572L804.719 248.626L803.793 249.626ZM799.052 254.53L798.126 255.53L799.104 256.437L800.032 255.477L799.052 254.53ZM774.201 259.067L772.957 258.512L774.201 259.067ZM775.632 289.804L774.508 290.573L774.509 290.575L774.511 290.577L775.632 289.804ZM796.436 292.501L797.091 293.696L797.799 293.308V292.501H796.436ZM796.436 276.03H797.799V274.667H796.436V276.03ZM786.014 276.03L784.665 276.226L784.835 277.392H786.014V276.03ZM785.073 269.572V268.209H783.498L783.725 269.768L785.073 269.572ZM804.406 269.572H805.769V268.209H804.406V269.572ZM804.406 296.629L805.07 297.819L805.769 297.429V296.629H804.406ZM796.109 300.226L795.689 298.93L795.686 298.931L796.109 300.226ZM785.768 300.294C779.24 300.294 774.193 298.007 770.472 293.476L768.366 295.205C772.657 300.43 778.51 303.019 785.768 303.019V300.294ZM770.472 293.476C766.75 288.943 764.773 282.007 764.773 272.433H762.048C762.048 282.314 764.077 289.983 768.366 295.205L770.472 293.476ZM764.773 272.433C764.773 266.124 765.866 260.973 767.972 256.916L765.553 255.66C763.19 260.213 762.048 265.826 762.048 272.433H764.773ZM767.97 256.919C770.133 252.776 772.924 249.739 776.324 247.734L774.94 245.387C771.037 247.687 767.916 251.135 765.555 255.657L767.97 256.919ZM776.33 247.73C779.773 245.674 783.456 244.653 787.403 244.653V241.928C782.958 241.928 778.793 243.086 774.933 245.391L776.33 247.73ZM787.403 244.653C791.014 244.653 793.919 245.182 796.174 246.173L797.27 243.678C794.566 242.489 791.258 241.928 787.403 241.928V244.653ZM796.179 246.175C798.532 247.198 800.762 248.676 802.868 250.625L804.719 248.626C802.411 246.489 799.926 244.833 797.266 243.676L796.179 246.175ZM802.814 248.679L798.072 253.584L800.032 255.477L804.773 250.573L802.814 248.679ZM799.978 253.531C796.39 250.205 792.222 248.509 787.526 248.509V251.233C791.495 251.233 795.011 252.643 798.126 255.53L799.978 253.531ZM787.526 248.509C784.601 248.509 781.84 249.288 779.265 250.827L780.664 253.166C782.83 251.871 785.111 251.233 787.526 251.233V248.509ZM779.265 250.827C776.59 252.426 774.508 255.037 772.957 258.512L775.445 259.623C776.838 256.503 778.598 254.401 780.664 253.166L779.265 250.827ZM772.957 258.512C771.377 262.054 770.632 266.723 770.632 272.433H773.357C773.357 266.916 774.083 262.675 775.445 259.623L772.957 258.512ZM770.632 272.433C770.632 280.541 771.842 286.68 774.508 290.573L776.756 289.034C774.572 285.843 773.357 280.401 773.357 272.433H770.632ZM774.511 290.577C777.219 294.504 781.233 296.439 786.341 296.439V293.714C782.02 293.714 778.895 292.134 776.753 289.03L774.511 290.577ZM786.341 296.439C790.165 296.439 793.755 295.523 797.091 293.696L795.782 291.306C792.85 292.913 789.71 293.714 786.341 293.714V296.439ZM797.799 292.501V276.03H795.074V292.501H797.799ZM796.436 274.667H786.014V277.392H796.436V274.667ZM787.362 275.833L786.422 269.375L783.725 269.768L784.665 276.226L787.362 275.833ZM785.073 270.934H804.406V268.209H785.073V270.934ZM803.044 269.572V296.629H805.769V269.572H803.044ZM803.743 295.44C801.235 296.839 798.551 298.003 795.689 298.93L796.529 301.522C799.553 300.542 802.401 299.309 805.07 297.819L803.743 295.44ZM795.686 298.931C792.94 299.829 789.643 300.294 785.768 300.294V303.019C789.85 303.019 793.447 302.531 796.533 301.521L795.686 298.931ZM843.531 300.635H842.168V301.997H843.531V300.635ZM843.531 274.395H844.893V273.032H843.531V274.395ZM823.503 274.395V273.032H822.14V274.395H823.503ZM823.503 300.635V301.997H824.865V300.635H823.503ZM815.41 300.635H814.048V301.997H815.41V300.635ZM815.41 244.312V242.95H814.048V244.312H815.41ZM823.503 244.312H824.865V242.95H823.503V244.312ZM823.503 267.732H822.14V269.095H823.503V267.732ZM843.531 267.732V269.095H844.893V267.732H843.531ZM843.531 244.312V242.95H842.168V244.312H843.531ZM851.623 244.312H852.986V242.95H851.623V244.312ZM851.623 300.635V301.997H852.986V300.635H851.623ZM844.893 300.635V274.395H842.168V300.635H844.893ZM843.531 273.032H823.503V275.757H843.531V273.032ZM822.14 274.395V300.635H824.865V274.395H822.14ZM823.503 299.273H815.41V301.997H823.503V299.273ZM816.772 300.635V244.312H814.048V300.635H816.772ZM815.41 245.675H823.503V242.95H815.41V245.675ZM822.14 244.312V267.732H824.865V244.312H822.14ZM823.503 269.095H843.531V266.37H823.503V269.095ZM844.893 267.732V244.312H842.168V267.732H844.893ZM843.531 245.675H851.623V242.95H843.531V245.675ZM850.261 244.312V300.635H852.986V244.312H850.261ZM851.623 299.273H843.531V301.997H851.623V299.273ZM886.456 251.056V249.694H885.093V251.056H886.456ZM886.456 300.635V301.997H887.818V300.635H886.456ZM878.363 300.635H877V301.997H878.363V300.635ZM878.363 251.056H879.725V249.694H878.363V251.056ZM861.033 251.056H859.671V252.419H861.033V251.056ZM861.033 244.312V242.95H859.671V244.312H861.033ZM904.072 244.312L905.423 244.484L905.62 242.95H904.072V244.312ZM903.214 251.056V252.419H904.412L904.565 251.228L903.214 251.056ZM885.093 251.056V300.635H887.818V251.056H885.093ZM886.456 299.273H878.363V301.997H886.456V299.273ZM879.725 300.635V251.056H877V300.635H879.725ZM878.363 249.694H861.033V252.419H878.363V249.694ZM862.396 251.056V244.312H859.671V251.056H862.396ZM861.033 245.675H904.072V242.95H861.033V245.675ZM902.72 244.14L901.862 250.884L904.565 251.228L905.423 244.484L902.72 244.14ZM903.214 249.694H886.456V252.419H903.214V249.694Z" fill="#F1F2F6"/>
<path d="M649.233 284.491C649.233 287.597 648.62 290.186 647.394 292.257C646.195 294.328 644.56 295.976 642.489 297.203C640.446 298.429 638.143 299.314 635.582 299.859C633.048 300.377 630.446 300.636 627.775 300.636H612.08V244.313H626.59C629.124 244.313 631.59 244.545 633.988 245.008C636.386 245.444 638.552 246.207 640.487 247.297C642.421 248.36 643.947 249.817 645.064 251.67C646.209 253.496 646.781 255.785 646.781 258.537C646.781 260.907 646.277 262.937 645.269 264.627C644.288 266.289 643.007 267.638 641.427 268.673C639.846 269.681 638.157 270.39 636.359 270.799C638.402 271.153 640.405 271.807 642.367 272.761C644.356 273.687 645.991 275.09 647.272 276.97C648.58 278.823 649.233 281.33 649.233 284.491ZM638.525 259.068C638.525 256.016 637.571 253.85 635.664 252.569C633.784 251.261 631.181 250.608 627.857 250.608H620.173V268.019H628.511C631.754 268.019 634.233 267.325 635.95 265.935C637.666 264.518 638.525 262.229 638.525 259.068ZM640.732 284.614C640.732 281.916 640.201 279.832 639.138 278.36C638.102 276.861 636.699 275.826 634.928 275.254C633.184 274.682 631.249 274.395 629.124 274.395H620.173V294.137H628.756C630.582 294.137 632.408 293.905 634.233 293.442C636.086 292.952 637.626 292.025 638.852 290.663C640.105 289.3 640.732 287.284 640.732 284.614ZM698.003 260.294C698.003 264.518 696.709 267.924 694.121 270.513C691.559 273.074 688.398 274.845 684.638 275.826L701.028 300.636H691.423L676.586 276.889H669.597V300.636H661.463V244.313H676.464C683.521 244.313 688.875 245.662 692.527 248.36C696.178 251.03 698.003 255.008 698.003 260.294ZM689.379 260.294C689.379 256.834 688.371 254.341 686.355 252.815C684.366 251.289 681.3 250.526 677.158 250.526H669.597V270.717H677.24C681.109 270.717 684.093 269.927 686.191 268.346C688.317 266.739 689.379 264.055 689.379 260.294ZM743.749 244.313V250.648H731.365V294.26H743.749V300.636H710.806V294.26H723.19V250.648H710.806V244.313H743.749Z" fill="#F1F2F6"/>
<path d="M647.394 292.257L646.222 291.563L646.218 291.569L646.215 291.574L647.394 292.257ZM642.489 297.203L641.795 296.03L641.792 296.032L641.788 296.034L642.489 297.203ZM635.582 299.859L635.854 301.194L635.86 301.193L635.865 301.192L635.582 299.859ZM612.08 300.636H610.718V301.998H612.08V300.636ZM612.08 244.313V242.951H610.718V244.313H612.08ZM633.988 245.008L633.729 246.346L633.737 246.347L633.744 246.349L633.988 245.008ZM640.487 247.297L639.818 248.484L639.824 248.488L639.831 248.491L640.487 247.297ZM645.064 251.67L643.898 252.374L643.904 252.384L643.91 252.394L645.064 251.67ZM645.269 264.627L644.099 263.929L644.097 263.932L644.096 263.935L645.269 264.627ZM641.427 268.673L642.159 269.822L642.166 269.817L642.173 269.813L641.427 268.673ZM636.359 270.799L636.057 269.47L636.126 272.141L636.359 270.799ZM642.367 272.761L641.771 273.986L641.781 273.991L641.792 273.996L642.367 272.761ZM647.272 276.97L646.145 277.738L646.152 277.747L646.158 277.756L647.272 276.97ZM635.664 252.569L634.885 253.688L634.895 253.694L634.904 253.701L635.664 252.569ZM620.173 250.608V249.245H618.81V250.608H620.173ZM620.173 268.019H618.81V269.382H620.173V268.019ZM635.95 265.935L636.807 266.994L636.812 266.99L636.817 266.986L635.95 265.935ZM639.138 278.36L638.017 279.135L638.025 279.146L638.033 279.158L639.138 278.36ZM634.928 275.254L634.503 276.548L634.506 276.549L634.509 276.55L634.928 275.254ZM620.173 274.395V273.033H618.81V274.395H620.173ZM620.173 294.137H618.81V295.499H620.173V294.137ZM634.233 293.442L634.568 294.763L634.575 294.761L634.582 294.759L634.233 293.442ZM638.852 290.663L637.849 289.741L637.844 289.746L637.839 289.751L638.852 290.663ZM647.871 284.491C647.871 287.423 647.292 289.755 646.222 291.563L648.566 292.951C649.948 290.617 650.596 287.772 650.596 284.491H647.871ZM646.215 291.574C645.134 293.442 643.666 294.922 641.795 296.03L643.183 298.375C645.454 297.031 647.257 295.214 648.573 292.939L646.215 291.574ZM641.788 296.034C639.886 297.176 637.727 298.01 635.298 298.527L635.865 301.192C638.559 300.619 641.006 299.682 643.19 298.371L641.788 296.034ZM635.309 298.524C632.868 299.023 630.357 299.273 627.775 299.273V301.998C630.534 301.998 633.228 301.731 635.854 301.194L635.309 298.524ZM627.775 299.273H612.08V301.998H627.775V299.273ZM613.442 300.636V244.313H610.718V300.636H613.442ZM612.08 245.676H626.59V242.951H612.08V245.676ZM626.59 245.676C629.04 245.676 631.42 245.9 633.729 246.346L634.246 243.67C631.76 243.19 629.207 242.951 626.59 242.951V245.676ZM633.744 246.349C636.007 246.76 638.028 247.475 639.818 248.484L641.155 246.11C639.076 244.938 636.764 244.128 634.232 243.668L633.744 246.349ZM639.831 248.491C641.559 249.44 642.907 250.731 643.898 252.374L646.231 250.967C644.987 248.904 643.283 247.279 641.143 246.103L639.831 248.491ZM643.91 252.394C644.885 253.95 645.419 255.971 645.419 258.537H648.144C648.144 255.599 647.532 253.042 646.219 250.947L643.91 252.394ZM645.419 258.537C645.419 260.712 644.957 262.49 644.099 263.929L646.439 265.325C647.596 263.385 648.144 261.103 648.144 258.537H645.419ZM644.096 263.935C643.218 265.421 642.082 266.615 640.68 267.534L642.173 269.813C643.932 268.66 645.357 267.157 646.442 265.32L644.096 263.935ZM640.694 267.525C639.243 268.45 637.699 269.097 636.057 269.47L636.66 272.127C638.614 271.683 640.449 270.913 642.159 269.822L640.694 267.525ZM636.126 272.141C638.037 272.473 639.918 273.085 641.771 273.986L642.963 271.535C640.892 270.529 638.767 269.834 636.591 269.456L636.126 272.141ZM641.792 273.996C643.55 274.815 644.998 276.052 646.145 277.738L648.398 276.203C646.984 274.128 645.162 272.559 642.942 271.526L641.792 273.996ZM646.158 277.756C647.251 279.305 647.871 281.504 647.871 284.491H650.596C650.596 281.156 649.907 278.342 648.384 276.185L646.158 277.756ZM639.887 259.068C639.887 255.728 638.826 253.052 636.423 251.438L634.904 253.701C636.316 254.648 637.162 256.305 637.162 259.068H639.887ZM636.442 251.451C634.251 249.927 631.34 249.245 627.857 249.245V251.97C631.023 251.97 633.316 252.596 634.885 253.688L636.442 251.451ZM627.857 249.245H620.173V251.97H627.857V249.245ZM618.81 250.608V268.019H621.535V250.608H618.81ZM620.173 269.382H628.511V266.657H620.173V269.382ZM628.511 269.382C631.924 269.382 634.757 268.653 636.807 266.994L635.093 264.876C633.709 265.996 631.583 266.657 628.511 266.657V269.382ZM636.817 266.986C638.962 265.215 639.887 262.458 639.887 259.068H637.162C637.162 262 636.37 263.821 635.083 264.884L636.817 266.986ZM642.094 284.614C642.094 281.762 641.536 279.354 640.242 277.563L638.033 279.158C638.865 280.309 639.37 282.07 639.37 284.614H642.094ZM640.259 277.586C639.049 275.835 637.396 274.619 635.347 273.957L634.509 276.55C636.002 277.033 637.156 277.888 638.017 279.135L640.259 277.586ZM635.353 273.959C633.452 273.336 631.371 273.033 629.124 273.033V275.758C631.127 275.758 632.916 276.028 634.503 276.548L635.353 273.959ZM629.124 273.033H620.173V275.758H629.124V273.033ZM618.81 274.395V294.137H621.535V274.395H618.81ZM620.173 295.499H628.756V292.775H620.173V295.499ZM628.756 295.499C630.698 295.499 632.636 295.253 634.568 294.763L633.898 292.122C632.178 292.558 630.465 292.775 628.756 292.775V295.499ZM634.582 294.759C636.678 294.204 638.453 293.143 639.864 291.574L637.839 289.751C636.798 290.908 635.494 291.699 633.884 292.125L634.582 294.759ZM639.854 291.586C641.424 289.879 642.094 287.476 642.094 284.614H639.37C639.37 287.092 638.786 288.721 637.849 289.741L639.854 291.586ZM694.121 270.513L693.157 269.549L694.121 270.513ZM684.638 275.826L684.294 274.508L682.452 274.988L683.502 276.577L684.638 275.826ZM701.028 300.636V301.998H703.561L702.165 299.885L701.028 300.636ZM691.423 300.636L690.268 301.358L690.668 301.998H691.423V300.636ZM676.586 276.889L677.742 276.167L677.341 275.526H676.586V276.889ZM669.597 276.889V275.526H668.234V276.889H669.597ZM669.597 300.636V301.998H670.959V300.636H669.597ZM661.463 300.636H660.101V301.998H661.463V300.636ZM661.463 244.313V242.951H660.101V244.313H661.463ZM692.527 248.36L691.717 249.455L691.72 249.457L691.722 249.459L692.527 248.36ZM686.355 252.815L685.526 253.896L685.529 253.898L685.533 253.901L686.355 252.815ZM669.597 250.526V249.163H668.234V250.526H669.597ZM669.597 270.717H668.234V272.079H669.597V270.717ZM686.191 268.346L687.011 269.435L687.013 269.433L686.191 268.346ZM696.641 260.294C696.641 264.217 695.451 267.256 693.157 269.549L695.084 271.476C697.968 268.592 699.366 264.819 699.366 260.294H696.641ZM693.157 269.549C690.78 271.927 687.838 273.583 684.294 274.508L684.982 277.144C688.959 276.107 692.339 274.221 695.084 271.476L693.157 269.549ZM683.502 276.577L699.892 301.387L702.165 299.885L685.775 275.075L683.502 276.577ZM701.028 299.273H691.423V301.998H701.028V299.273ZM692.579 299.914L677.742 276.167L675.431 277.611L690.268 301.358L692.579 299.914ZM676.586 275.526H669.597V278.251H676.586V275.526ZM668.234 276.889V300.636H670.959V276.889H668.234ZM669.597 299.273H661.463V301.998H669.597V299.273ZM662.826 300.636V244.313H660.101V300.636H662.826ZM661.463 245.676H676.463V242.951H661.463V245.676ZM676.463 245.676C683.381 245.676 688.398 247.003 691.717 249.455L693.336 247.264C689.353 244.321 683.661 242.951 676.463 242.951V245.676ZM691.722 249.459C694.961 251.827 696.641 255.359 696.641 260.294H699.366C699.366 254.657 697.395 250.232 693.331 247.26L691.722 249.459ZM690.742 260.294C690.742 256.576 689.649 253.599 687.177 251.728L685.533 253.901C687.094 255.082 688.017 257.092 688.017 260.294H690.742ZM687.184 251.734C684.846 249.94 681.421 249.163 677.158 249.163V251.888C681.179 251.888 683.885 252.638 685.526 253.896L687.184 251.734ZM677.158 249.163H669.597V251.888H677.158V249.163ZM668.234 250.526V270.717H670.959V250.526H668.234ZM669.597 272.079H677.24V269.355H669.597V272.079ZM677.24 272.079C681.271 272.079 684.588 271.259 687.011 269.435L685.372 267.258C683.598 268.594 680.948 269.355 677.24 269.355V272.079ZM687.013 269.433C689.604 267.473 690.742 264.296 690.742 260.294H688.017C688.017 263.814 687.029 266.004 685.369 267.26L687.013 269.433ZM743.749 244.313H745.112V242.951H743.749V244.313ZM743.749 250.648V252.011H745.112V250.648H743.749ZM731.365 250.648V249.286H730.002V250.648H731.365ZM731.365 294.26H730.002V295.622H731.365V294.26ZM743.749 294.26H745.112V292.897H743.749V294.26ZM743.749 300.636V301.998H745.112V300.636H743.749ZM710.806 300.636H709.443V301.998H710.806V300.636ZM710.806 294.26V292.897H709.443V294.26H710.806ZM723.19 294.26V295.622H724.553V294.26H723.19ZM723.19 250.648H724.553V249.286H723.19V250.648ZM710.806 250.648H709.443V252.011H710.806V250.648ZM710.806 244.313V242.951H709.443V244.313H710.806ZM742.387 244.313V250.648H745.112V244.313H742.387ZM743.749 249.286H731.365V252.011H743.749V249.286ZM730.002 250.648V294.26H732.727V250.648H730.002ZM731.365 295.622H743.749V292.897H731.365V295.622ZM742.387 294.26V300.636H745.112V294.26H742.387ZM743.749 299.273H710.806V301.998H743.749V299.273ZM712.168 300.636V294.26H709.443V300.636H712.168ZM710.806 295.622H723.19V292.897H710.806V295.622ZM724.553 294.26V250.648H721.828V294.26H724.553ZM723.19 249.286H710.806V252.011H723.19V249.286ZM712.168 250.648V244.313H709.443V250.648H712.168ZM710.806 245.676H743.749V242.951H710.806V245.676Z" fill="#F1F2F6"/>
<path d="M805.141 467.403C801.693 467.39 799.243 466.125 797.643 464.338C796.018 462.522 795.18 460.063 795.189 457.556C795.199 455.049 796.056 452.594 797.687 450.789C799.293 449.013 801.73 447.771 805.129 447.784C815.283 447.822 825.163 447.822 832.505 447.812C836.176 447.808 839.212 447.801 841.331 447.795C842.39 447.792 843.22 447.789 843.786 447.787C844.068 447.786 844.285 447.785 844.431 447.785L844.652 447.784C844.652 447.784 844.652 447.784 844.645 446.149C844.639 444.514 844.639 444.514 844.639 444.514L844.419 444.515C844.273 444.515 844.057 444.516 843.775 444.517C843.21 444.519 842.381 444.522 841.322 444.525C839.205 444.531 836.17 444.538 832.501 444.542C825.162 444.552 815.287 444.552 805.141 444.514C800.863 444.498 797.522 446.096 795.261 448.597C793.027 451.069 791.932 454.329 791.92 457.544C791.907 460.759 792.978 464.029 795.207 466.519C797.462 469.038 800.813 470.656 805.129 470.673C825.978 470.752 845.599 470.752 860.009 470.732C860.951 470.731 861.87 470.729 862.766 470.728L861.54 467.444C861.035 467.444 860.523 467.462 860.004 467.462C845.598 467.482 825.982 467.482 805.141 467.403Z" fill="#F1F2F6"/>
<path d="M877.208 467.425C875.273 467.431 872.94 467.438 870.259 467.444L871.622 470.71L862.766 470.728C868.726 470.718 873.652 470.706 877.216 470.695C879.268 470.689 880.867 470.683 881.954 470.679C882.499 470.677 882.913 470.676 883.194 470.675L883.616 470.673C883.616 470.673 883.619 470.673 883.611 469.038C883.603 467.403 883.603 467.403 883.603 467.403L883.18 467.405C882.903 467.406 882.486 467.408 881.943 467.409C880.856 467.414 879.257 467.419 877.208 467.425Z" fill="#F1F2F6"/>
<g filter="url(#filter0_d)">
<path d="M873.12 470.809C871.349 469.991 871.485 469.038 871.622 467.403" stroke="black" stroke-opacity="0.19" stroke-width="0.544971"/>
</g>
<g filter="url(#filter1_d)">
<path d="M860.177 467.539C860.547 469.316 860.442 469.67 861.131 470.673" stroke="black" stroke-opacity="0.12" stroke-width="0.544971"/>
</g>
<path d="M865.684 475.55L866.737 474.686L865.684 475.55ZM863.027 437.498L861.819 436.867L861.818 436.87L863.027 437.498ZM871.897 427.77L872.589 428.943L872.592 428.942L872.594 428.94L871.897 427.77ZM892.987 426.135L892.439 427.382L892.442 427.383V427.384L892.987 426.135ZM900.058 430.835L901.036 431.782L902.004 430.781L900.985 429.836L900.058 430.835ZM895.317 435.74L894.39 436.739L895.369 437.646L896.295 436.687L895.317 435.74ZM870.466 440.277L869.222 439.722L870.466 440.277ZM871.897 471.013L870.772 471.783L870.774 471.785L870.775 471.787L871.897 471.013ZM892.701 473.711L893.355 474.906L894.063 474.518V473.711H892.701ZM892.701 457.239H894.063V455.877H892.701V457.239ZM882.278 457.239L880.93 457.435L881.099 458.602H882.278V457.239ZM881.338 450.781V449.419H879.763L879.99 450.977L881.338 450.781ZM900.671 450.781H902.034V449.419H900.671V450.781ZM900.671 477.839L901.333 479.029L902.034 478.639V477.839H900.671ZM892.374 481.436L891.954 480.14L891.949 480.141L892.374 481.436ZM882.033 481.504C875.505 481.504 870.457 479.216 866.737 474.686L864.631 476.415C868.921 481.64 874.774 484.229 882.033 484.229V481.504ZM866.737 474.686C863.014 470.153 861.038 463.217 861.038 453.642H858.313C858.313 463.523 860.342 471.192 864.631 476.415L866.737 474.686ZM861.038 453.642C861.038 447.334 862.13 442.183 864.236 438.125L861.818 436.87C859.455 441.423 858.313 447.035 858.313 453.642H861.038ZM864.235 438.128C866.397 433.986 869.188 430.948 872.589 428.943L871.204 426.596C867.302 428.897 864.18 432.344 861.819 436.867L864.235 438.128ZM872.594 428.94C876.039 426.884 879.72 425.862 883.668 425.862V423.138C879.221 423.138 875.058 424.296 871.198 426.6L872.594 428.94ZM883.668 425.862C887.279 425.862 890.183 426.391 892.439 427.382L893.535 424.888C890.829 423.699 887.524 423.138 883.668 423.138V425.862ZM892.442 427.384C894.796 428.408 897.025 429.885 899.132 431.835L900.985 429.836C898.674 427.698 896.192 426.042 893.529 424.886L892.442 427.384ZM899.077 429.888L894.336 434.793L896.295 436.687L901.036 431.782L899.077 429.888ZM896.243 434.741C892.655 431.415 888.486 429.718 883.791 429.718V432.443C887.758 432.443 891.276 433.852 894.39 436.739L896.243 434.741ZM883.791 429.718C880.864 429.718 878.104 430.498 875.529 432.036L876.927 434.375C879.096 433.08 881.374 432.443 883.791 432.443V429.718ZM875.529 432.036C872.853 433.636 870.773 436.247 869.222 439.722L871.709 440.832C873.101 437.713 874.861 435.61 876.927 434.375L875.529 432.036ZM869.222 439.722C867.641 443.263 866.896 447.933 866.896 453.642H869.621C869.621 448.125 870.348 443.885 871.709 440.832L869.222 439.722ZM866.896 453.642C866.896 461.75 868.107 467.889 870.772 471.783L873.019 470.244C870.836 467.053 869.621 461.611 869.621 453.642H866.896ZM870.775 471.787C873.483 475.713 877.496 477.648 882.606 477.648V474.923C878.284 474.923 875.158 473.343 873.017 470.24L870.775 471.787ZM882.606 477.648C886.428 477.648 890.02 476.733 893.355 474.906L892.047 472.516C889.115 474.122 885.973 474.923 882.606 474.923V477.648ZM894.063 473.711V457.239H891.339V473.711H894.063ZM892.701 455.877H882.278V458.602H892.701V455.877ZM883.627 457.043L882.687 450.585L879.99 450.977L880.93 457.435L883.627 457.043ZM881.338 452.144H900.671V449.419H881.338V452.144ZM899.309 450.781V477.839H902.034V450.781H899.309ZM900.006 476.649C897.5 478.048 894.816 479.212 891.954 480.14L892.794 482.733C895.818 481.752 898.666 480.518 901.333 479.029L900.006 476.649ZM891.949 480.141C889.205 481.039 885.908 481.504 882.033 481.504V484.229C886.115 484.229 889.712 483.741 892.796 482.73L891.949 480.141Z" fill="#F1F2F6"/>
<g filter="url(#filter2_d)">
<path d="M879.284 434.588C879.284 434.588 812.743 434.55 802.524 434.588C792.305 434.627 787.873 411.88 805.44 411.836C823.006 411.791 843.669 411.836 843.669 411.836" stroke="#F1F2F6" stroke-width="3.26982"/>
</g>
<path d="M973.659 431.898V450.005H994.341V456.422H973.659V475.509H998.959V481.845H965.526V425.522H998.346L997.406 431.898H973.659ZM1022.67 431.898V450.005H1043.36V456.422H1022.67V475.509H1047.97V481.845H1014.54V425.522H1047.36L1046.42 431.898H1022.67ZM1085.42 481.845L1066.42 433.002C1066.47 433.955 1066.58 435.59 1066.74 437.906C1066.93 440.195 1067.11 442.838 1067.27 445.836C1067.44 448.806 1067.52 451.776 1067.52 454.746V481.845H1060.16V425.522H1070.91L1090.12 474.488C1090.07 473.561 1089.95 472.022 1089.75 469.869C1089.56 467.689 1089.39 465.114 1089.22 462.144C1089.09 459.174 1089.02 455.999 1089.02 452.621V425.522H1096.38V481.845H1085.42Z" fill="#F1F2F6"/>
<path d="M947.081 451.721L946.119 450.758L947.081 451.721ZM937.598 457.035L937.255 455.717L935.413 456.197L936.462 457.786L937.598 457.035ZM953.988 481.845V483.207H956.523L955.127 481.094L953.988 481.845ZM944.383 481.845L943.228 482.567L943.629 483.207H944.383V481.845ZM929.547 458.098L930.702 457.376L930.304 456.735H929.547V458.098ZM922.557 458.098V456.735H921.195V458.098H922.557ZM922.557 481.845V483.207H923.92V481.845H922.557ZM914.424 481.845H913.061V483.207H914.424V481.845ZM914.424 425.522V424.159H913.061V425.522H914.424ZM945.487 429.568L944.678 430.664L944.68 430.666L944.683 430.668L945.487 429.568ZM939.315 434.023L938.487 435.104L938.49 435.107L938.495 435.11L939.315 434.023ZM922.557 431.735V430.372H921.195V431.735H922.557ZM922.557 451.926H921.195V453.288H922.557V451.926ZM939.152 449.555L939.972 450.643L939.975 450.642L939.152 449.555ZM949.601 441.503C949.601 445.426 948.413 448.465 946.119 450.758L948.046 452.685C950.928 449.801 952.326 446.028 952.326 441.503H949.601ZM946.119 450.758C943.74 453.136 940.8 454.792 937.255 455.717L937.945 458.353C941.92 457.316 945.302 455.43 948.046 452.685L946.119 450.758ZM936.462 457.786L952.852 482.597L955.127 481.094L938.737 456.284L936.462 457.786ZM953.988 480.482H944.383V483.207H953.988V480.482ZM945.539 481.123L930.702 457.376L928.391 458.819L943.228 482.567L945.539 481.123ZM929.547 456.735H922.557V459.46H929.547V456.735ZM921.195 458.098V481.845H923.92V458.098H921.195ZM922.557 480.482H914.424V483.207H922.557V480.482ZM915.786 481.845V425.522H913.061V481.845H915.786ZM914.424 426.884H929.424V424.159H914.424V426.884ZM929.424 426.884C936.342 426.884 941.359 428.212 944.678 430.664L946.299 428.472C942.315 425.53 936.623 424.159 929.424 424.159V426.884ZM944.683 430.668C947.923 433.036 949.601 436.568 949.601 441.503H952.326C952.326 435.866 950.356 431.441 946.293 428.469L944.683 430.668ZM943.702 441.503C943.702 437.785 942.609 434.808 940.138 432.937L938.495 435.11C940.056 436.291 940.977 438.301 940.977 441.503H943.702ZM940.146 432.942C937.808 431.149 934.383 430.372 930.119 430.372V433.097C934.141 433.097 936.846 433.846 938.487 435.104L940.146 432.942ZM930.119 430.372H922.557V433.097H930.119V430.372ZM921.195 431.735V451.926H923.92V431.735H921.195ZM922.557 453.288H930.2V450.563H922.557V453.288ZM930.2 453.288C934.233 453.288 937.549 452.468 939.972 450.643L938.334 448.467C936.56 449.803 933.909 450.563 930.2 450.563V453.288ZM939.975 450.642C942.566 448.682 943.702 445.504 943.702 441.503H940.977C940.977 445.023 939.991 447.213 938.331 448.468L939.975 450.642ZM973.659 431.898V430.536H972.297V431.898H973.659ZM973.659 450.005H972.297V451.367H973.659V450.005ZM994.341 450.005H995.703V448.642H994.341V450.005ZM994.341 456.422V457.784H995.703V456.422H994.341ZM973.659 456.422V455.059H972.297V456.422H973.659ZM973.659 475.509H972.297V476.872H973.659V475.509ZM998.959 475.509H1000.32V474.147H998.959V475.509ZM998.959 481.845V483.207H1000.32V481.845H998.959ZM965.526 481.845H964.163V483.207H965.526V481.845ZM965.526 425.522V424.159H964.163V425.522H965.526ZM998.346 425.522L999.692 425.721L999.924 424.159H998.346V425.522ZM997.406 431.898V433.26H998.581L998.752 432.097L997.406 431.898ZM972.297 431.898V450.005H975.022V431.898H972.297ZM973.659 451.367H994.341V448.642H973.659V451.367ZM992.978 450.005V456.422H995.703V450.005H992.978ZM994.341 455.059H973.659V457.784H994.341V455.059ZM972.297 456.422V475.509H975.022V456.422H972.297ZM973.659 476.872H998.959V474.147H973.659V476.872ZM997.597 475.509V481.845H1000.32V475.509H997.597ZM998.959 480.482H965.526V483.207H998.959V480.482ZM966.888 481.845V425.522H964.163V481.845H966.888ZM965.526 426.884H998.346V424.159H965.526V426.884ZM996.998 425.323L996.058 431.699L998.752 432.097L999.692 425.721L996.998 425.323ZM997.406 430.536H973.659V433.26H997.406V430.536ZM1022.67 431.898V430.536H1021.31V431.898H1022.67ZM1022.67 450.005H1021.31V451.367H1022.67V450.005ZM1043.36 450.005H1044.72V448.642H1043.36V450.005ZM1043.36 456.422V457.784H1044.72V456.422H1043.36ZM1022.67 456.422V455.059H1021.31V456.422H1022.67ZM1022.67 475.509H1021.31V476.872H1022.67V475.509ZM1047.97 475.509H1049.34V474.147H1047.97V475.509ZM1047.97 481.845V483.207H1049.34V481.845H1047.97ZM1014.54 481.845H1013.18V483.207H1014.54V481.845ZM1014.54 425.522V424.159H1013.18V425.522H1014.54ZM1047.36 425.522L1048.71 425.721L1048.94 424.159H1047.36V425.522ZM1046.42 431.898V433.26H1047.6L1047.77 432.097L1046.42 431.898ZM1021.31 431.898V450.005H1024.04V431.898H1021.31ZM1022.67 451.367H1043.36V448.642H1022.67V451.367ZM1041.99 450.005V456.422H1044.72V450.005H1041.99ZM1043.36 455.059H1022.67V457.784H1043.36V455.059ZM1021.31 456.422V475.509H1024.04V456.422H1021.31ZM1022.67 476.872H1047.97V474.147H1022.67V476.872ZM1046.61 475.509V481.845H1049.34V475.509H1046.61ZM1047.97 480.482H1014.54V483.207H1047.97V480.482ZM1015.9 481.845V425.522H1013.18V481.845H1015.9ZM1014.54 426.884H1047.36V424.159H1014.54V426.884ZM1046.01 425.323L1045.07 431.699L1047.77 432.097L1048.71 425.721L1046.01 425.323ZM1046.42 430.536H1022.67V433.26H1046.42V430.536ZM1085.42 481.845L1084.15 482.338L1084.49 483.207H1085.42V481.845ZM1066.42 433.002L1067.69 432.508L1065.06 433.079L1066.42 433.002ZM1066.74 437.906L1065.39 438.002V438.011V438.019L1066.74 437.906ZM1067.27 445.836L1065.91 445.91V445.911L1067.27 445.836ZM1067.52 481.845V483.207H1068.88V481.845H1067.52ZM1060.16 481.845H1058.8V483.207H1060.16V481.845ZM1060.16 425.522V424.159H1058.8V425.522H1060.16ZM1070.91 425.522L1072.18 425.024L1071.84 424.159H1070.91V425.522ZM1090.12 474.488L1088.86 474.985L1091.48 474.407L1090.12 474.488ZM1089.75 469.869L1088.4 469.988V469.989L1089.75 469.869ZM1089.22 462.144L1087.86 462.206V462.213V462.219L1089.22 462.144ZM1089.02 425.522V424.159H1087.66V425.522H1089.02ZM1096.38 425.522H1097.74V424.159H1096.38V425.522ZM1096.38 481.845V483.207H1097.74V481.845H1096.38ZM1086.69 481.351L1067.69 432.508L1065.15 433.496L1084.15 482.338L1086.69 481.351ZM1065.06 433.079C1065.11 434.043 1065.22 435.686 1065.39 438.002L1068.1 437.81C1067.94 435.494 1067.83 433.868 1067.78 432.924L1065.06 433.079ZM1065.39 438.019C1065.58 440.292 1065.75 442.922 1065.91 445.91L1068.64 445.762C1068.47 442.755 1068.29 440.098 1068.1 437.793L1065.39 438.019ZM1065.91 445.911C1066.08 448.856 1066.16 451.801 1066.16 454.746H1068.88C1068.88 451.751 1068.8 448.756 1068.64 445.761L1065.91 445.911ZM1066.16 454.746V481.845H1068.88V454.746H1066.16ZM1067.52 480.482H1060.16V483.207H1067.52V480.482ZM1061.52 481.845V425.522H1058.8V481.845H1061.52ZM1060.16 426.884H1070.91V424.159H1060.16V426.884ZM1069.64 426.019L1088.86 474.985L1091.39 473.99L1072.18 425.024L1069.64 426.019ZM1091.48 474.407C1091.43 473.459 1091.3 471.902 1091.11 469.749L1088.4 469.989C1088.59 472.141 1088.71 473.663 1088.76 474.568L1091.48 474.407ZM1091.11 469.75C1090.92 467.589 1090.75 465.029 1090.59 462.069L1087.86 462.219C1088.03 465.199 1088.21 467.789 1088.4 469.988L1091.11 469.75ZM1090.59 462.082C1090.45 459.135 1090.38 455.981 1090.38 452.621H1087.66C1087.66 456.017 1087.72 459.213 1087.86 462.206L1090.59 462.082ZM1090.38 452.621V425.522H1087.66V452.621H1090.38ZM1089.02 426.884H1096.38V424.159H1089.02V426.884ZM1095.01 425.522V481.845H1097.74V425.522H1095.01ZM1096.38 480.482H1085.42V483.207H1096.38V480.482Z" fill="#F1F2F6"/>
<path d="M805.983 480.93C829.046 494.499 841.976 495.752 865.039 480.93M885.818 398.81H800.515C801.438 386.279 799.399 379.115 790.672 366.06C790.672 366.06 750.975 326.061 751.301 294.011C751.75 249.792 789.302 211.527 840.979 210.734C893.532 209.928 931.105 249.106 933.939 294.011C935.868 324.579 892.38 366.06 892.38 366.06L885.818 398.81Z" stroke="#F1F2F6" stroke-width="3.26982"/>
<path fill-rule="evenodd" clip-rule="evenodd" d="M636 300L611.5 301V244H634C649.5 244 653.205 270.5 638 270.5C653.5 274 653 297.5 636 300ZM620 268H629.5C642.068 267.941 641.836 249.947 629.5 250H620V259V268ZM632 294H620.5V283V274H632C644.336 273.947 644.568 293.941 632 294Z" fill="#45AF0D" stroke="#45AF0D"/>
<path d="M670.5 260L660.5 277.5V243.5C668.115 242.744 672.885 242.791 680.5 243.5L675.5 251.5H670.5V260Z" fill="#45AF0D" stroke="#45AF0D"/>
</g>
<defs>
<filter id="filter0_d" x="871.276" y="466.29" width="4.13797" height="5.85598" filterUnits="userSpaceOnUse" color-interpolation-filters="sRGB">
<feFlood flood-opacity="0" result="BackgroundImageFix"/>
<feColorMatrix in="SourceAlpha" type="matrix" values="0 0 0 0 0 0 0 0 0 0 0 0 0 0 0 0 0 0 127 0"/>
<feOffset dx="1.08994"/>
<feGaussianBlur stdDeviation="0.544971"/>
<feColorMatrix type="matrix" values="0 0 0 0 0 0 0 0 0 0 0 0 0 0 0 0 0 0 0.25 0"/>
<feBlend mode="normal" in2="BackgroundImageFix" result="effect1_dropShadow"/>
<feBlend mode="normal" in="SourceGraphic" in2="effect1_dropShadow" result="shape"/>
</filter>
<filter id="filter1_d" x="857.731" y="466.394" width="3.62497" height="5.52323" filterUnits="userSpaceOnUse" color-interpolation-filters="sRGB">
<feFlood flood-opacity="0" result="BackgroundImageFix"/>
<feColorMatrix in="SourceAlpha" type="matrix" values="0 0 0 0 0 0 0 0 0 0 0 0 0 0 0 0 0 0 127 0"/>
<feOffset dx="-1.08994"/>
<feGaussianBlur stdDeviation="0.544971"/>
<feColorMatrix type="matrix" values="0 0 0 0 0 0 0 0 0 0 0 0 0 0 0 0 0 0 0.25 0"/>
<feBlend mode="normal" in2="BackgroundImageFix" result="effect1_dropShadow"/>
<feBlend mode="normal" in="SourceGraphic" in2="effect1_dropShadow" result="shape"/>
</filter>
<filter id="filter2_d" x="790.83" y="410.181" width="89.5448" height="29.0396" filterUnits="userSpaceOnUse" color-interpolation-filters="sRGB">
<feFlood flood-opacity="0" result="BackgroundImageFix"/>
<feColorMatrix in="SourceAlpha" type="matrix" values="0 0 0 0 0 0 0 0 0 0 0 0 0 0 0 0 0 0 127 0"/>
<feOffset dy="1.9074"/>
<feGaussianBlur stdDeviation="0.544971"/>
<feColorMatrix type="matrix" values="0 0 0 0 0 0 0 0 0 0 0 0 0 0 0 0 0 0 0.25 0"/>
<feBlend mode="normal" in2="BackgroundImageFix" result="effect1_dropShadow"/>
<feBlend mode="normal" in="SourceGraphic" in2="effect1_dropShadow" result="shape"/>
</filter>
<clipPath id="clip0">
<rect width="1134" height="576" fill="white"/>
</clipPath>
</defs>
</svg>
