<svg version="1.1" id="Livello_1" xmlns="http://www.w3.org/2000/svg" xmlns:xlink="http://www.w3.org/1999/xlink" x="0px" y="0px"
	 width="286.373px" height="80.332px" viewBox="0 0 286.373 80.332" enable-background="new 0 0 286.373 80.332"
	 xml:space="preserve">
<g>
	<polygon fill="#E30613" points="261.83,54.08 263.951,43.582 248.045,43.582 250.336,32.244 264.977,32.244 267.098,21.747 
		252.457,21.747 254.406,12.09 269.516,12.09 271.637,1.59 244.814,1.59 234.211,54.08 	"/>
	
		<polygon fill="none" stroke="#E30613" stroke-width="0.664" stroke-linecap="round" stroke-linejoin="round" stroke-miterlimit="3.864" points="
		261.83,54.08 263.951,43.582 248.045,43.582 250.336,32.244 264.977,32.244 267.098,21.747 252.457,21.747 254.406,12.09 
		269.516,12.09 271.637,1.59 244.814,1.59 234.211,54.08 	"/>
	<g>
		<path fill="#E30613" d="M168.148,39.592c-2.18,10.777,2.607,15.746,12.525,15.746c11.979,0,17.16-6.856,18.955-15.746l7.68-37.999
			h-11.715l-7.934,39.258c-0.451,2.241-1.949,5.039-5.012,5.039c-3.326,0-3.621-2.169-3.111-4.688l8.006-39.61h-11.715
			L168.148,39.592z"/>
		
			<path fill="none" stroke="#E30613" stroke-width="0.664" stroke-linecap="round" stroke-linejoin="round" stroke-miterlimit="3.864" d="
			M168.148,39.592c-2.18,10.777,2.607,15.746,12.525,15.746c11.979,0,17.16-6.856,18.955-15.746l7.68-37.999h-11.715l-7.934,39.258
			c-0.451,2.241-1.949,5.039-5.012,5.039c-3.326,0-3.621-2.169-3.111-4.688l8.006-39.61h-11.715L168.148,39.592z"/>
		<path fill="#E30613" d="M238.152,19.927l0.892-4.408c2.162-10.708-2.923-15.187-12.904-15.187
			c-10.715,0-16.78,5.317-19.085,16.726l-4.357,21.555c-2.164,10.707,0.812,16.724,11.596,16.724c11.979,0,18.174-6.298,20-15.325
			l1.303-6.438h-11.715l-0.962,4.757c-0.651,3.22-1.86,7.559-5.853,7.559c-3.062,0-3.84-1.75-3.246-4.688l5.314-25.965
			c0.692-3.43,1.982-5.527,5.627-5.458c2.195,0,3.262,2.31,2.355,6.788l-0.678,3.36H238.152z"/>
		
			<path fill="none" stroke="#E30613" stroke-width="0.664" stroke-linecap="round" stroke-linejoin="round" stroke-miterlimit="3.864" d="
			M238.152,19.927l0.892-4.408c2.162-10.708-2.923-15.187-12.904-15.187c-10.715,0-16.78,5.317-19.085,16.726l-4.357,21.555
			c-2.164,10.707,0.812,16.724,11.596,16.724c11.979,0,18.174-6.298,20-15.325l1.303-6.438h-11.715l-0.962,4.757
			c-0.651,3.22-1.86,7.559-5.853,7.559c-3.062,0-3.84-1.75-3.246-4.688l5.314-25.965c0.692-3.43,1.982-5.527,5.627-5.458
			c2.195,0,3.262,2.31,2.355,6.788l-0.678,3.36H238.152z"/>
		<path fill="#000000" d="M137.676,54.187H112.82l7.377-0.66c7.536-1.057,14.754-6.438,18.837-13.702
			c3.61-7.593,4.238-16.592,1.567-23.769c-3.764-8.915-11.142-13.207-17.42-14.327c6.959,0,16.889-0.01,25.23,0L137.676,54.187z"/>
		
			<path fill="none" stroke="#000000" stroke-width="0.664" stroke-linecap="round" stroke-linejoin="round" stroke-miterlimit="3.864" d="
			M137.676,54.187H112.82l7.377-0.66c7.536-1.057,14.754-6.438,18.837-13.702c3.61-7.593,4.238-16.592,1.567-23.769
			c-3.764-8.915-11.142-13.207-17.42-14.327c6.959,0,16.889-0.01,25.23,0L137.676,54.187z"/>
		<path fill="#000000" d="M99.823,37.548c0,0-0.314,5.489,4.698,5.489c5.795,0,7.359-3.837,7.832-5.654
			c0.039-0.159,3.756-18.98,3.756-18.98s1.411-6.026-4.854-6.026c-6.266,0-7.674,6.19-7.674,6.19L99.823,37.548z"/>
		<path fill="none" stroke="#000000" stroke-width="0.664" stroke-miterlimit="3.864" d="M99.823,37.548
			c0,0-0.314,5.489,4.698,5.489c5.795,0,7.359-3.837,7.832-5.654c0.039-0.159,3.756-18.98,3.756-18.98s1.411-6.026-4.854-6.026
			c-6.266,0-7.674,6.19-7.674,6.19L99.823,37.548z"/>
		<path fill="#000000" d="M49.746,16.749c-0.781,4.125-2.49,4.676-4.854,4.783h-9.391c0.784-3.792,1.096-6.121,1.721-9.155h8.297
			C45.52,12.459,50.943,12.048,49.746,16.749"/>
		<path fill="none" stroke="#000000" stroke-width="0.664" stroke-miterlimit="3.864" d="M49.746,16.749
			c-0.781,4.125-2.49,4.676-4.854,4.783h-9.391c0.784-3.792,1.096-6.121,1.721-9.155h8.297
			C45.52,12.459,50.943,12.048,49.746,16.749z"/>
		<path fill="#000000" d="M45.187,38.254c-0.782,4.126-2.526,4.804-4.855,4.783h-9.39c0.781-3.837,1.565-7.314,2.192-10.349h8.609
			C43.736,32.917,46.125,33.881,45.187,38.254"/>
		<path fill="none" stroke="#000000" stroke-width="0.664" stroke-miterlimit="3.864" d="M45.187,38.254
			c-0.782,4.126-2.526,4.804-4.855,4.783h-9.39c0.781-3.837,1.565-7.314,2.192-10.349h8.609
			C43.736,32.917,46.125,33.881,45.187,38.254z"/>
		<path fill="#000000" d="M96.146,2.39c-7.537,1.055-14.761,6.436-18.846,13.699c-3.61,7.593-4.24,16.594-1.57,23.771
			c3.771,8.915,11.15,13.204,17.434,14.327c-11.778,0-28.74-0.133-40.048,0l4.712-0.627c5.779-1.056,10.146-5.15,12.407-11.224
			c0.878-3.039,1.829-8.208-0.853-11.927c-0.855-1.188-2.666-2.601-2.666-2.601c5.024-2.77,8.229-6.766,9.172-13.534
			c0.469-3.63-1.602-7.198-3.611-9.311c-1.73-1.584-4.869-2.709-8.324-3.234h39.576L96.146,2.39z"/>
		
			<path fill="none" stroke="#000000" stroke-width="0.664" stroke-linecap="round" stroke-linejoin="round" stroke-miterlimit="1" d="
			M96.146,2.39c-7.537,1.055-14.761,6.436-18.846,13.699c-3.61,7.593-4.24,16.594-1.57,23.771
			c3.771,8.915,11.15,13.204,17.434,14.327c-11.778,0-28.74-0.133-40.048,0l4.712-0.627c5.779-1.056,10.146-5.15,12.407-11.224
			c0.878-3.039,1.829-8.208-0.853-11.927c-0.855-1.188-2.666-2.601-2.666-2.601c5.024-2.77,8.229-6.766,9.172-13.534
			c0.469-3.63-1.602-7.198-3.611-9.311c-1.73-1.584-4.869-2.709-8.324-3.234h39.576L96.146,2.39z"/>
	</g>
	<polygon fill="#E30613" points="163.729,54.187 165.93,43.582 151.631,43.582 160.16,1.729 148.453,1.729 137.724,54.187 	"/>
	
		<polygon fill="none" stroke="#E30613" stroke-width="0.664" stroke-linecap="round" stroke-linejoin="round" stroke-miterlimit="3.864" points="
		163.729,54.187 165.93,43.582 151.631,43.582 160.16,1.729 148.453,1.729 137.724,54.187 	"/>
	<g>
		<path fill="#000000" d="M282.123,1.368c2.53,0,4.041,2.176,3.529,4.707c-0.531,2.625-2.967,4.745-5.44,4.745
			c-2.453,0-4.062-2.091-3.522-4.745C277.215,3.487,279.673,1.368,282.123,1.368 M282.252,0.732c-2.717,0-5.561,2.344-6.166,5.342
			c-0.607,2.993,1.255,5.365,3.998,5.365c2.771,0,5.568-2.372,6.174-5.365C286.859,3.104,285.053,0.732,282.252,0.732 M280.52,3.84
			h1.184c0.404,0,1.078,0,0.895,0.904c-0.178,0.876-0.877,0.876-1.253,0.876h-1.186L280.52,3.84z M278.742,8.897h0.754l0.524-2.598
			h0.944c0.887,0,1.057,0.225,0.959,1.101c-0.074,0.904-0.066,1.131-0.031,1.498h0.779c-0.074-0.565-0.02-1.101,0.042-1.807
			c0.063-0.708-0.075-0.961-0.61-1.101c1.086-0.311,1.27-1.217,1.305-1.385c0.29-1.443-1.162-1.443-1.566-1.443h-1.938
			L278.742,8.897z"/>
	</g>
	<path fill="#000000" d="M16.268,1.719L5.595,54.197L16.268,1.719z"/>
	<path fill="none" stroke="#000000" stroke-width="0.78" stroke-miterlimit="3.864" d="M16.268,1.719L5.595,54.197L16.268,1.719z"/>
	<polygon fill="#000000" points="1.458,79.976 4.916,62.909 3.456,62.909 0,79.976 	"/>
	<polygon fill="#000000" points="23.061,79.976 23.348,78.566 15.203,78.566 18.361,62.98 16.904,62.98 13.462,79.976 	"/>
	<polygon fill="#000000" points="42.913,79.976 43.201,78.566 35.058,78.566 38.215,62.98 36.757,62.98 33.312,79.976 	"/>
	<g>
		<path fill="#000000" d="M56.542,62.98l-2.23,11.016c-0.695,3.652,0.713,6.336,4.639,6.336c3.923,0,6.418-2.684,7.203-6.336
			l2.23-11.016h-1.457l-2.227,10.994c-0.736,3.084-2.796,4.945-5.464,4.945c-2.671,0-3.976-1.861-3.464-4.945l2.228-10.994H56.542z"
			/>
	</g>
	<polygon fill="#000000" points="78.137,79.976 81.303,64.345 81.347,64.345 84.371,79.976 85.828,79.976 95.2,64.275 
		95.244,64.275 92.064,79.976 93.523,79.976 96.964,62.98 94.742,62.98 85.531,77.787 82.451,62.98 80.121,62.98 76.678,79.976 	"/>
	<polygon fill="#000000" points="106.916,79.976 110.374,62.909 108.916,62.909 105.461,79.976 	"/>
	<polygon fill="#000000" points="118.742,79.976 120.197,79.976 123.174,65.287 123.219,65.287 128.99,79.976 130.83,79.976 
		134.272,62.98 132.814,62.98 129.787,77.928 129.742,77.928 123.842,62.98 122.184,62.98 	"/>
	<path fill="#000000" d="M141.96,79.976l2.632-4.589h8.053l0.799,4.589h1.593l-3.017-16.998h-1.707l-9.856,16.998H141.96z
		 M145.35,73.974l5.508-9.582l1.559,9.582H145.35z"/>
	<polygon fill="#000000" points="174.197,79.976 174.484,78.566 165.467,78.566 177.353,64.39 177.641,62.98 166.916,62.98 
		166.633,64.39 175.625,64.39 163.764,78.566 163.478,79.976 	"/>
	<polygon fill="#000000" points="186.312,79.976 189.77,62.909 188.312,62.909 184.856,79.976 	"/>
	<g>
		<path fill="#000000" d="M213.742,71.478c1.07-5.297-0.787-8.852-5.431-8.852s-7.942,3.555-9.015,8.852
			c-1.072,5.299,0.787,8.852,5.43,8.852S212.669,76.777,213.742,71.478 M200.867,71.478c0.754-3.719,3.121-7.438,7.158-7.438
			s4.897,3.72,4.146,7.438c-0.754,3.72-3.122,7.438-7.159,7.438S200.113,75.198,200.867,71.478"/>
	</g>
	<polygon fill="#000000" points="222.971,79.976 224.429,79.976 227.402,65.287 227.447,65.287 233.221,79.976 235.058,79.976 
		238.5,62.98 237.043,62.98 234.017,77.928 233.971,77.928 228.07,62.98 226.413,62.98 	"/>
	<polygon fill="#000000" points="256.729,79.976 257.016,78.566 248.516,78.566 249.864,71.903 257.714,71.903 258,70.49 
		250.15,70.49 251.386,64.39 259.549,64.39 259.834,62.98 250.214,62.98 246.771,79.976 	"/>
</g>
</svg>