<svg width="1920" height="990" viewBox="0 0 1920 990" fill="none" xmlns="http://www.w3.org/2000/svg">
<g clip-path="url(#clip0)">
<path d="M1923.29 0H3.28729V975.203H1923.29V0Z" fill="url(#paint0_linear)"/>
<path d="M229.258 515.105V546.7H213.667V929.008H368.164V546.7H349.738V515.105H229.258V515.105Z" fill="url(#paint1_linear)"/>
<path d="M842.266 262.972C814.113 267.31 792.66 295.854 788.549 326.299C778.973 336.293 768.506 345.367 756.288 334.72C737.292 330.69 716.72 342.822 708.803 362.437C685.698 354.04 658.544 382.479 669.079 408.532C676.097 428.037 699.89 435.79 715.792 425.186C730.948 447.726 764.819 450.134 781.658 428.702C797.154 436.866 817.079 446.935 832.47 432.987C847.012 422.6 865.452 431.562 879.88 421.613C891.957 410.029 904.568 405.086 919.704 410.635C936.893 410.226 953.569 397.863 959.906 379.928C974.385 397.532 1003.5 391.46 1011.92 369.705C1022.67 372.994 1033.75 386.328 1046.91 377.779C1071.56 366.412 1073.12 323.073 1050.28 308.518C1036.88 298.277 1016.51 303.466 1009.66 320.365C1001.99 326.037 995.928 306.745 984.91 310.803C970.619 307.824 983.353 284.934 971.148 276.147C961.523 260.607 940.314 256.358 927.423 269.349C917.345 277.651 919.331 314.238 902.913 293.664C892.91 277.51 878.164 265.799 860.508 263.106C854.483 262.008 848.302 261.932 842.266 262.973V262.972Z" fill="url(#paint2_linear)"/>
<path d="M853.681 315.817C834.981 318.698 820.73 337.658 817.999 357.882C811.639 364.52 804.686 370.547 796.571 363.475C783.952 360.799 770.287 368.857 765.028 381.886C749.68 376.309 731.643 395.199 738.641 412.505C743.303 425.461 759.107 430.611 769.671 423.568C779.738 438.54 802.237 440.139 813.423 425.903C823.716 431.326 836.951 438.015 847.175 428.749C856.834 421.85 869.083 427.803 878.666 421.194C886.689 413.5 895.066 410.216 905.12 413.902C916.538 413.63 927.615 405.418 931.824 393.505C941.442 405.198 960.781 401.165 966.378 386.715C973.513 388.899 980.875 397.756 989.619 392.077C1005.99 384.527 1007.03 355.739 991.854 346.071C982.957 339.268 969.426 342.715 964.871 353.94C959.776 357.707 955.752 344.893 948.433 347.589C938.941 345.609 947.399 330.405 939.292 324.568C932.898 314.245 918.81 311.423 910.247 320.053C903.553 325.567 904.872 349.87 893.966 336.204C887.322 325.473 877.527 317.694 865.799 315.906C861.797 315.176 857.691 315.126 853.681 315.816V315.817Z" fill="url(#paint3_linear)"/>
<path d="M1337.88 176.107C1305.2 175.665 1276.41 204.034 1267.05 237.876C1254.63 247.414 1241.33 255.735 1229.07 241.294C1208.08 233.084 1182.82 242.954 1170.8 263.751C1145.81 249.79 1110.56 276.95 1118.54 308.593C1123.52 332.117 1149.39 345.477 1169.11 336.454C1182.88 364.983 1221.03 374.188 1243.48 353.027C1259.85 365.272 1280.96 380.528 1300.61 367.602C1318.75 358.565 1338.34 372.279 1356.28 363.719C1371.8 352.849 1386.9 349.635 1403.26 358.836C1422.87 361.653 1443.74 350.776 1453.7 331.588C1467.47 354.373 1501.51 353.026 1514.44 329.893C1526.15 335.683 1536.71 352.965 1552.99 345.755C1582.76 337.532 1591.21 288.539 1567.46 267.624C1553.8 253.418 1529.84 255.432 1519.44 273.342C1509.85 278.328 1505.92 255.231 1492.77 257.743C1476.97 251.625 1494.97 228.023 1482.44 215.699C1473.88 196.186 1450.41 187.304 1433.75 199.619C1421.02 207.137 1417.65 249.128 1402.14 222.593C1393.25 202.311 1378.28 186.177 1358.61 179.743C1351.93 177.344 1344.91 176.076 1337.88 176.107V176.107Z" fill="url(#paint4_linear)"/>
<path d="M1342.74 238.389C1321.03 238.096 1301.91 256.94 1295.7 279.419C1287.44 285.755 1278.61 291.283 1270.46 281.69C1256.52 276.236 1239.74 282.793 1231.76 296.607C1215.16 287.333 1191.74 305.375 1197.04 326.393C1200.35 342.019 1217.54 350.894 1230.63 344.9C1239.78 363.851 1265.12 369.965 1280.04 355.909C1290.91 364.043 1304.93 374.176 1317.99 365.59C1330.03 359.588 1343.05 368.697 1354.96 363.011C1365.27 355.791 1375.3 353.656 1386.17 359.768C1399.2 361.639 1413.06 354.414 1419.68 341.668C1428.82 356.803 1451.44 355.908 1460.02 340.542C1467.8 344.388 1474.81 355.868 1485.63 351.078C1505.41 345.616 1511.02 313.073 1495.24 299.18C1486.17 289.744 1470.25 291.081 1463.35 302.978C1456.97 306.29 1454.36 290.947 1445.63 292.616C1435.13 288.552 1447.09 272.875 1438.77 264.688C1433.08 251.727 1417.49 245.827 1406.43 254.007C1397.97 259.001 1395.73 286.894 1385.43 269.268C1379.52 255.795 1369.58 245.078 1356.51 240.804C1352.07 239.211 1347.41 238.369 1342.74 238.389V238.389Z" fill="url(#paint5_linear)"/>
<path d="M1005.88 176.107V249.382H973.005V784.29H933.559V469.207H775.774V637.74H752.764V245.719H608.128V520.5H565.395V637.74H562.108V784.29H489.79V494.853H486.503V626.748L489.79 923.512V919.848H1814.52V912.521H1817.81V483.862H1732.34V201.754H1676.46V483.862H1650.16V776.962H1623.87V480.198H1528.54V350.021L1364.18 289.684V399.596H1226.12V648.731H1150.51V249.382H1124.22V176.107H1005.88V176.107Z" fill="url(#paint6_linear)"/>
<path d="M1086.24 556.731H1325.34V911.804H1086.24V556.731V556.731Z" fill="#349BA4"/>
<path d="M1088.87 571.036V595.894H1101.92V571.036H1088.87ZM1105.86 571.036V595.894H1118.91V571.036H1105.86ZM1122.83 571.036V595.894H1135.9V571.036H1122.83ZM1139.82 571.036V595.894H1152.87V571.036H1139.82ZM1156.81 571.036V595.894H1169.86V571.036H1156.81ZM1173.78 571.036V595.894H1186.85V571.036H1173.78ZM1190.77 571.036V595.894H1203.82V571.036H1190.77ZM1207.76 571.036V595.894H1220.81V571.036H1207.76ZM1224.73 571.036V595.894H1237.8V571.036H1224.73ZM1241.72 571.036V595.894H1254.77V571.036H1241.72ZM1258.71 571.036V595.894H1271.76V571.036H1258.71ZM1275.68 571.036V595.894H1288.76V571.036H1275.68ZM1292.67 571.036V595.894H1305.72V571.036H1292.67ZM1309.66 571.036V595.894H1322.71V571.036H1309.66Z" fill="#72CCCF"/>
<path d="M1088.87 571.03V595.887H1101.92V571.03H1088.87ZM1105.86 571.03V595.887H1118.91V571.03H1105.86ZM1122.83 571.03V595.887H1135.9V571.03H1122.83ZM1139.82 571.03V595.887H1152.87V571.03H1139.82V571.03ZM1156.81 571.03V595.887H1169.86V571.03H1156.81ZM1173.78 571.03V595.887H1186.85V571.03H1173.78ZM1190.77 571.03V595.887H1203.82V571.03H1190.77ZM1207.76 571.03V595.887H1220.81V571.03H1207.76ZM1224.73 571.03V595.887H1237.8V571.03H1224.73ZM1241.72 571.03V595.887H1254.77V571.03H1241.72ZM1258.71 571.03V595.887H1271.76V571.03H1258.71ZM1275.68 571.03V595.887H1288.75V571.03H1275.68ZM1292.67 571.03V595.887H1305.72V571.03H1292.67ZM1309.66 571.03V595.887H1322.71V571.03H1309.66ZM1088.87 602.102V626.959H1101.92V602.102H1088.87ZM1105.86 602.102V626.959H1118.91V602.102H1105.86ZM1122.83 602.102V626.959H1135.9V602.102H1122.83ZM1139.82 602.102V626.959H1152.87V602.102H1139.82ZM1156.81 602.102V626.959H1169.86V602.102H1156.81ZM1173.78 602.102V626.959H1186.85V602.102H1173.78ZM1190.77 602.102V626.959H1203.82V602.102H1190.77ZM1207.76 602.102V626.959H1220.81V602.102H1207.76ZM1224.73 602.102V626.959H1237.8V602.102H1224.73ZM1241.72 602.102V626.959H1254.77V602.102H1241.72ZM1258.71 602.102V626.959H1271.76V602.102H1258.71ZM1275.68 602.102V626.959H1288.75V602.102H1275.68ZM1292.67 602.102V626.959H1305.72V602.102H1292.67ZM1309.66 602.102V626.959H1322.71V602.102H1309.66ZM1088.87 633.174V658.032H1101.92V633.174H1088.87ZM1105.86 633.174V658.032H1118.91V633.174H1105.86ZM1122.83 633.174V658.032H1135.9V633.174H1122.83ZM1139.82 633.174V658.032H1152.87V633.174H1139.82ZM1156.81 633.174V658.032H1169.86V633.174H1156.81ZM1173.78 633.174V658.032H1186.85V633.174H1173.78ZM1190.77 633.174V658.032H1203.82V633.174H1190.77ZM1207.76 633.174V658.032H1220.81V633.174H1207.76ZM1224.73 633.174V658.032H1237.8V633.174H1224.73ZM1241.72 633.174V658.032H1254.77V633.174H1241.72ZM1258.71 633.174V658.032H1271.76V633.174H1258.71ZM1275.68 633.174V658.032H1288.75V633.174H1275.68ZM1292.67 633.174V658.032H1305.72V633.174H1292.67ZM1309.66 633.174V658.032H1322.71V633.174H1309.66ZM1088.87 664.246V689.104H1101.92V664.246H1088.87ZM1105.86 664.246V689.104H1118.91V664.246H1105.86ZM1122.83 664.246V689.104H1135.9V664.246H1122.83ZM1139.82 664.246V689.104H1152.87V664.246H1139.82ZM1156.81 664.246V689.104H1169.86V664.246H1156.81ZM1173.78 664.246V689.104H1186.85V664.246H1173.78ZM1190.77 664.246V689.104H1203.82V664.246H1190.77ZM1207.76 664.246V689.104H1220.81V664.246H1207.76ZM1224.73 664.246V689.104H1237.8V664.246H1224.73ZM1241.72 664.246V689.104H1254.77V664.246H1241.72ZM1258.71 664.246V689.104H1271.76V664.246H1258.71ZM1275.68 664.246V689.104H1288.75V664.246H1275.68ZM1292.67 664.246V689.104H1305.72V664.246H1292.67ZM1309.66 664.246V689.104H1322.71V664.246H1309.66ZM1088.87 695.318V720.176H1101.92V695.318H1088.87ZM1105.86 695.318V720.176H1118.91V695.318H1105.86ZM1122.83 695.318V720.176H1135.9V695.318H1122.83ZM1139.82 695.318V720.176H1152.87V695.318H1139.82ZM1156.81 695.318V720.176H1169.86V695.318H1156.81ZM1173.78 695.318V720.176H1186.85V695.318H1173.78ZM1190.77 695.318V720.176H1203.82V695.318H1190.77ZM1207.76 695.318V720.176H1220.81V695.318H1207.76ZM1224.73 695.318V720.176H1237.8V695.318H1224.73ZM1241.72 695.318V720.176H1254.77V695.318H1241.72ZM1258.71 695.318V720.176H1271.76V695.318H1258.71ZM1275.68 695.318V720.176H1288.75V695.318H1275.68ZM1292.67 695.318V720.176H1305.72V695.318H1292.67ZM1309.66 695.318V720.176H1322.71V695.318H1309.66ZM1088.87 726.39V751.248H1101.92V726.39H1088.87ZM1105.86 726.39V751.248H1118.91V726.39H1105.86ZM1122.83 726.39V751.248H1135.9V726.39H1122.83ZM1139.82 726.39V751.248H1152.87V726.39H1139.82ZM1156.81 726.39V751.248H1169.86V726.39H1156.81ZM1173.78 726.39V751.248H1186.85V726.39H1173.78ZM1190.77 726.39V751.248H1203.82V726.39H1190.77ZM1207.76 726.39V751.248H1220.81V726.39H1207.76ZM1224.73 726.39V751.248H1237.8V726.39H1224.73ZM1241.72 726.39V751.248H1254.77V726.39H1241.72ZM1258.71 726.39V751.248H1271.76V726.39H1258.71ZM1275.68 726.39V751.248H1288.75V726.39H1275.68ZM1292.67 726.39V751.248H1305.72V726.39H1292.67ZM1309.66 726.39V751.248H1322.71V726.39H1309.66ZM1088.87 757.463V782.32H1101.92V757.463H1088.87ZM1105.86 757.463V782.32H1118.91V757.463H1105.86ZM1122.83 757.463V782.32H1135.9V757.463H1122.83ZM1139.82 757.463V782.32H1152.87V757.463H1139.82ZM1156.81 757.463V782.32H1169.86V757.463H1156.81ZM1173.78 757.463V782.32H1186.85V757.463H1173.78ZM1190.77 757.463V782.32H1203.82V757.463H1190.77ZM1207.76 757.463V782.32H1220.81V757.463H1207.76ZM1224.73 757.463V782.32H1237.8V757.463H1224.73ZM1241.72 757.463V782.32H1254.77V757.463H1241.72ZM1258.71 757.463V782.32H1271.76V757.463H1258.71ZM1275.68 757.463V782.32H1288.75V757.463H1275.68ZM1292.67 757.463V782.32H1305.72V757.463H1292.67ZM1309.66 757.463V782.32H1322.71V757.463H1309.66ZM1088.87 788.535V813.393H1101.92V788.535H1088.87ZM1105.86 788.535V813.393H1118.91V788.535H1105.86ZM1122.83 788.535V813.393H1135.9V788.535H1122.83ZM1139.82 788.535V813.393H1152.87V788.535H1139.82ZM1156.81 788.535V813.393H1169.86V788.535H1156.81ZM1173.78 788.535V813.393H1186.85V788.535H1173.78ZM1190.77 788.535V813.393H1203.82V788.535H1190.77ZM1207.76 788.535V813.393H1220.81V788.535H1207.76ZM1224.73 788.535V813.393H1237.8V788.535H1224.73ZM1241.72 788.535V813.393H1254.77V788.535H1241.72ZM1258.71 788.535V813.393H1271.76V788.535H1258.71ZM1275.68 788.535V813.393H1288.75V788.535H1275.68ZM1292.67 788.535V813.393H1305.72V788.535H1292.67ZM1309.66 788.535V813.393H1322.71V788.535H1309.66ZM1088.87 819.607V844.465H1101.92V819.607H1088.87ZM1105.86 819.607V844.465H1118.91V819.607H1105.86ZM1122.83 819.607V844.465H1135.9V819.607H1122.83ZM1139.82 819.607V844.465H1152.87V819.607H1139.82ZM1156.81 819.607V844.465H1169.86V819.607H1156.81ZM1173.78 819.607V844.465H1186.85V819.607H1173.78ZM1190.77 819.607V844.465H1203.82V819.607H1190.77ZM1207.76 819.607V844.465H1220.81V819.607H1207.76ZM1224.73 819.607V844.465H1237.8V819.607H1224.73ZM1241.72 819.607V844.465H1254.77V819.607H1241.72ZM1258.71 819.607V844.465H1271.76V819.607H1258.71ZM1275.68 819.607V844.465H1288.75V819.607H1275.68ZM1292.67 819.607V844.465H1305.72V819.607H1292.67ZM1309.66 819.607V844.465H1322.71V819.607H1309.66ZM1088.87 850.679V911.913H1101.92V850.679H1088.87ZM1105.86 850.679V911.913H1118.91V850.679H1105.86ZM1122.83 850.679V911.913H1135.9V850.679H1122.83ZM1139.82 850.679V911.913H1152.87V850.679H1139.82ZM1156.81 850.679V911.913H1169.86V850.679H1156.81ZM1173.78 850.679V911.913H1186.85V850.679H1173.78ZM1190.77 850.679V911.913H1203.82V850.679H1190.77ZM1207.76 850.679V911.913H1220.81V850.679H1207.76ZM1224.73 850.679V911.913H1237.8V850.679H1224.73ZM1241.72 850.679V911.913H1254.77V850.679H1241.72ZM1258.71 850.679V911.913H1271.76V850.679H1258.71ZM1275.68 850.679V911.913H1288.75V850.679H1275.68ZM1292.67 850.679V911.913H1305.72V850.679H1292.67ZM1309.66 850.679V911.913H1322.71V850.679H1309.66Z" fill="url(#paint7_linear)"/>
<path d="M0.000100317 936.625L514.444 892.66L1083.08 901.219L1083.12 910.764L1395.48 906.439L1781.65 914.439L1808.04 901.9L1920 914.642V990H6.57436L0 936.625H0.000100317Z" fill="url(#paint8_linear)"/>
<path d="M935.409 527.557H715.267V733.765H935.409V527.557Z" fill="url(#paint9_linear)"/>
<path d="M885.057 602.601H974.051V910.608H885.057V602.601Z" fill="url(#paint10_linear)"/>
<path d="M961.17 613.042H949.461V639.144H961.17V613.042Z" fill="#6B6F57"/>
<path d="M961.17 645.67H949.461V671.772H961.17V645.67Z" fill="#6B6F57"/>
<path d="M961.17 678.298H949.461V704.4H961.17V678.298Z" fill="#6B6F57"/>
<path d="M961.17 710.925H949.461V737.028H961.17V710.925Z" fill="#6B6F57"/>
<path d="M961.17 743.553H949.461V769.656H961.17V743.553Z" fill="#6B6F57"/>
<path d="M961.17 776.181H949.461V802.283H961.17V776.181V776.181Z" fill="#6B6F57"/>
<path d="M961.17 808.809H949.461V834.911H961.17V808.809Z" fill="#6B6F57"/>
<path d="M925.558 536.04H913.849V562.143H925.558V536.04Z" fill="#6B6F57"/>
<path d="M925.558 568.668H913.849V594.77H925.558V568.668Z" fill="#6B6F57"/>
<path d="M907.752 536.04H896.043V562.143H907.752V536.04Z" fill="#6B6F57"/>
<path d="M907.752 568.668H896.043V594.77H907.752V568.668Z" fill="#6B6F57"/>
<path d="M943.364 613.042H931.654V639.144H943.364V613.042Z" fill="#6B6F57"/>
<path d="M943.364 645.67H931.654V671.772H943.364V645.67Z" fill="#6B6F57"/>
<path d="M943.364 678.298H931.654V704.4H943.364V678.298Z" fill="#6B6F57"/>
<path d="M943.364 710.925H931.654V737.028H943.364V710.925Z" fill="#6B6F57"/>
<path d="M943.364 743.553H931.654V769.656H943.364V743.553Z" fill="#6B6F57"/>
<path d="M943.364 776.181H931.654V802.283H943.364V776.181V776.181Z" fill="#6B6F57"/>
<path d="M943.364 808.809H931.654V834.911H943.364V808.809Z" fill="#6B6F57"/>
<path d="M925.558 613.042H913.849V639.144H925.558V613.042Z" fill="#6B6F57"/>
<path d="M925.558 645.67H913.849V671.772H925.558V645.67Z" fill="#6B6F57"/>
<path d="M925.558 678.298H913.849V704.4H925.558V678.298Z" fill="#6B6F57"/>
<path d="M925.558 710.925H913.849V737.028H925.558V710.925Z" fill="#6B6F57"/>
<path d="M925.558 743.553H913.849V769.656H925.558V743.553Z" fill="#6B6F57"/>
<path d="M925.558 776.181H913.849V802.283H925.558V776.181V776.181Z" fill="#6B6F57"/>
<path d="M925.558 808.809H913.849V834.911H925.558V808.809Z" fill="#6B6F57"/>
<path d="M907.752 613.042H896.043V639.144H907.752V613.042Z" fill="#6B6F57"/>
<path d="M907.752 645.67H896.043V671.772H907.752V645.67Z" fill="#6B6F57"/>
<path d="M907.752 678.298H896.043V704.4H907.752V678.298Z" fill="#6B6F57"/>
<path d="M907.752 710.925H896.043V737.028H907.752V710.925Z" fill="#6B6F57"/>
<path d="M907.752 743.553H896.043V769.656H907.752V743.553Z" fill="#6B6F57"/>
<path d="M907.752 776.181H896.043V802.283H907.752V776.181V776.181Z" fill="#6B6F57"/>
<path d="M907.752 808.809H896.043V834.911H907.752V808.809Z" fill="#6B6F57"/>
<path d="M847.586 123.625H801.918V318.087H847.586V123.625Z" fill="url(#paint11_linear)"/>
<path d="M809.185 162.778H820.895V188.881H809.185V162.778Z" fill="#6B6F57"/>
<path d="M809.185 195.406H820.895V221.508H809.185V195.406Z" fill="#6B6F57"/>
<path d="M809.185 228.034H820.895V254.136H809.185V228.034Z" fill="#6B6F57"/>
<path d="M809.185 260.662H820.895V286.764H809.185V260.662Z" fill="#6B6F57"/>
<path d="M826.991 162.778H838.701V188.881H826.991V162.778Z" fill="#6B6F57"/>
<path d="M826.991 195.406H838.701V221.508H826.991V195.406Z" fill="#6B6F57"/>
<path d="M826.991 228.034H838.701V254.136H826.991V228.034Z" fill="#6B6F57"/>
<path d="M826.991 260.662H838.701V286.764H826.991V260.662Z" fill="#6B6F57"/>
<path d="M867.492 280.238H778.499V695.264H867.492V280.238Z" fill="url(#paint12_linear)"/>
<path d="M791.379 299.815H803.089V325.917H791.379V299.815Z" fill="#6B6F57"/>
<path d="M791.379 332.443H803.089V358.545H791.379V332.443Z" fill="#6B6F57"/>
<path d="M791.379 365.071H803.089V391.173H791.379V365.071Z" fill="#6B6F57"/>
<path d="M791.379 397.699H803.089V423.801H791.379V397.699Z" fill="#6B6F57"/>
<path d="M791.379 430.326H803.089V456.429H791.379V430.326Z" fill="#6B6F57"/>
<path d="M791.379 462.954H803.089V489.056H791.379V462.954Z" fill="#6B6F57"/>
<path d="M791.379 495.582H803.089V521.684H791.379V495.582Z" fill="#6B6F57"/>
<path d="M791.379 528.21H803.089V554.312H791.379V528.21Z" fill="#6B6F57"/>
<path d="M791.379 560.838H803.089V586.94H791.379V560.838V560.838Z" fill="#6B6F57"/>
<path d="M791.379 593.465H803.089V619.568H791.379V593.465V593.465Z" fill="#6B6F57"/>
<path d="M809.185 299.815H820.895V325.917H809.185V299.815Z" fill="#6B6F57"/>
<path d="M809.185 332.443H820.895V358.545H809.185V332.443Z" fill="#6B6F57"/>
<path d="M809.185 365.071H820.895V391.173H809.185V365.071Z" fill="#6B6F57"/>
<path d="M809.185 397.699H820.895V423.801H809.185V397.699Z" fill="#6B6F57"/>
<path d="M809.185 430.326H820.895V456.429H809.185V430.326Z" fill="#6B6F57"/>
<path d="M809.185 462.954H820.895V489.056H809.185V462.954Z" fill="#6B6F57"/>
<path d="M809.185 495.582H820.895V521.684H809.185V495.582Z" fill="#6B6F57"/>
<path d="M809.185 528.21H820.895V554.312H809.185V528.21Z" fill="#6B6F57"/>
<path d="M809.185 560.838H820.895V586.94H809.185V560.838V560.838Z" fill="#6B6F57"/>
<path d="M809.185 593.465H820.895V619.568H809.185V593.465V593.465Z" fill="#6B6F57"/>
<path d="M826.991 299.815H838.701V325.917H826.991V299.815Z" fill="#6B6F57"/>
<path d="M826.991 332.443H838.701V358.545H826.991V332.443Z" fill="#6B6F57"/>
<path d="M826.991 365.071H838.701V391.173H826.991V365.071Z" fill="#6B6F57"/>
<path d="M826.991 397.699H838.701V423.801H826.991V397.699Z" fill="#6B6F57"/>
<path d="M826.991 430.326H838.701V456.429H826.991V430.326Z" fill="#6B6F57"/>
<path d="M826.991 462.954H838.701V489.056H826.991V462.954Z" fill="#6B6F57"/>
<path d="M826.991 495.582H838.701V521.684H826.991V495.582Z" fill="#6B6F57"/>
<path d="M826.991 528.21H838.701V554.312H826.991V528.21Z" fill="#6B6F57"/>
<path d="M826.991 560.838H838.701V586.94H826.991V560.838V560.838Z" fill="#6B6F57"/>
<path d="M826.991 593.465H838.701V619.568H826.991V593.465V593.465Z" fill="#6B6F57"/>
<path d="M844.797 299.815H856.507V325.917H844.797V299.815Z" fill="#6B6F57"/>
<path d="M844.797 332.443H856.507V358.545H844.797V332.443Z" fill="#6B6F57"/>
<path d="M844.797 365.071H856.507V391.173H844.797V365.071Z" fill="#6B6F57"/>
<path d="M844.797 397.699H856.507V423.801H844.797V397.699Z" fill="#6B6F57"/>
<path d="M844.797 430.326H856.507V456.429H844.797V430.326Z" fill="#6B6F57"/>
<path d="M844.797 462.954H856.507V489.056H844.797V462.954Z" fill="#6B6F57"/>
<path d="M844.797 495.582H856.507V521.684H844.797V495.582Z" fill="#6B6F57"/>
<path d="M844.797 528.21H856.507V554.312H844.797V528.21Z" fill="#6B6F57"/>
<path d="M844.797 560.838H856.507V586.94H844.797V560.838V560.838Z" fill="#6B6F57"/>
<path d="M844.797 593.465H856.507V619.568H844.797V593.465V593.465Z" fill="#6B6F57"/>
<path d="M886.228 422.496H762.105V911.913H886.228V422.496Z" fill="#BBC0B1"/>
<path d="M774.986 451.208H786.696V477.31H774.986V451.208Z" fill="#6B6F57"/>
<path d="M774.986 451.208H786.696V477.31H774.986V451.208Z" fill="#6B6F57"/>
<path d="M774.986 483.836H786.696V509.938H774.986V483.836Z" fill="#6B6F57"/>
<path d="M774.986 516.464H786.696V542.566H774.986V516.464Z" fill="#6B6F57"/>
<path d="M774.986 549.092H786.696V575.194H774.986V549.092Z" fill="#6B6F57"/>
<path d="M774.986 581.719H786.696V607.822H774.986V581.719Z" fill="#6B6F57"/>
<path d="M774.986 614.347H786.696V640.449H774.986V614.347Z" fill="#6B6F57"/>
<path d="M774.986 646.975H786.696V673.077H774.986V646.975Z" fill="#6B6F57"/>
<path d="M774.986 679.603H786.696V705.705H774.986V679.603Z" fill="#6B6F57"/>
<path d="M774.986 712.231H786.696V738.333H774.986V712.231Z" fill="#6B6F57"/>
<path d="M774.986 744.858H786.696V770.961H774.986V744.858Z" fill="#6B6F57"/>
<path d="M774.986 777.486H786.696V803.588H774.986V777.486V777.486Z" fill="#6B6F57"/>
<path d="M774.986 810.114H786.696V836.216H774.986V810.114Z" fill="#6B6F57"/>
<path d="M792.792 451.208H804.502V477.31H792.792V451.208Z" fill="#6B6F57"/>
<path d="M792.792 483.836H804.502V509.938H792.792V483.836Z" fill="#6B6F57"/>
<path d="M792.792 516.464H804.502V542.566H792.792V516.464Z" fill="#6B6F57"/>
<path d="M792.792 549.092H804.502V575.194H792.792V549.092Z" fill="#6B6F57"/>
<path d="M792.792 581.719H804.502V607.822H792.792V581.719Z" fill="#6B6F57"/>
<path d="M792.792 614.347H804.502V640.449H792.792V614.347Z" fill="#6B6F57"/>
<path d="M792.792 646.975H804.502V673.077H792.792V646.975Z" fill="#6B6F57"/>
<path d="M792.792 679.603H804.502V705.705H792.792V679.603Z" fill="#6B6F57"/>
<path d="M792.792 712.231H804.502V738.333H792.792V712.231Z" fill="#6B6F57"/>
<path d="M792.792 744.858H804.502V770.961H792.792V744.858Z" fill="#6B6F57"/>
<path d="M792.792 777.486H804.502V803.588H792.792V777.486V777.486Z" fill="#6B6F57"/>
<path d="M792.792 810.114H804.502V836.216H792.792V810.114Z" fill="#6B6F57"/>
<path d="M810.598 451.208H822.307V477.31H810.598V451.208Z" fill="#6B6F57"/>
<path d="M810.598 483.836H822.307V509.938H810.598V483.836Z" fill="#6B6F57"/>
<path d="M810.598 516.464H822.307V542.566H810.598V516.464Z" fill="#6B6F57"/>
<path d="M810.598 549.092H822.307V575.194H810.598V549.092Z" fill="#6B6F57"/>
<path d="M810.598 581.719H822.307V607.822H810.598V581.719Z" fill="#6B6F57"/>
<path d="M810.598 614.347H822.307V640.449H810.598V614.347Z" fill="#6B6F57"/>
<path d="M810.598 646.975H822.307V673.077H810.598V646.975Z" fill="#6B6F57"/>
<path d="M810.598 679.603H822.307V705.705H810.598V679.603Z" fill="#6B6F57"/>
<path d="M810.598 712.231H822.307V738.333H810.598V712.231Z" fill="#6B6F57"/>
<path d="M810.598 744.858H822.307V770.961H810.598V744.858Z" fill="#6B6F57"/>
<path d="M810.598 777.486H822.307V803.588H810.598V777.486V777.486Z" fill="#6B6F57"/>
<path d="M810.598 810.114H822.307V836.216H810.598V810.114Z" fill="#6B6F57"/>
<path d="M828.404 451.208H840.114V477.31H828.404V451.208Z" fill="#6B6F57"/>
<path d="M828.404 483.836H840.114V509.938H828.404V483.836Z" fill="#6B6F57"/>
<path d="M828.404 516.464H840.114V542.566H828.404V516.464Z" fill="#6B6F57"/>
<path d="M828.404 549.092H840.114V575.194H828.404V549.092Z" fill="#6B6F57"/>
<path d="M828.404 581.719H840.114V607.822H828.404V581.719Z" fill="#6B6F57"/>
<path d="M828.404 614.347H840.114V640.449H828.404V614.347Z" fill="#6B6F57"/>
<path d="M828.404 646.975H840.114V673.077H828.404V646.975Z" fill="#6B6F57"/>
<path d="M828.404 679.603H840.114V705.705H828.404V679.603Z" fill="#6B6F57"/>
<path d="M828.404 712.231H840.114V738.333H828.404V712.231Z" fill="#6B6F57"/>
<path d="M828.404 744.858H840.114V770.961H828.404V744.858Z" fill="#6B6F57"/>
<path d="M828.404 777.486H840.114V803.588H828.404V777.486V777.486Z" fill="#6B6F57"/>
<path d="M828.404 810.114H840.114V836.216H828.404V810.114Z" fill="#6B6F57"/>
<path d="M846.21 451.208H857.919V477.31H846.21V451.208Z" fill="#6B6F57"/>
<path d="M846.21 483.836H857.919V509.938H846.21V483.836Z" fill="#6B6F57"/>
<path d="M846.21 516.464H857.919V542.566H846.21V516.464Z" fill="#6B6F57"/>
<path d="M846.21 549.092H857.919V575.194H846.21V549.092Z" fill="#6B6F57"/>
<path d="M846.21 581.719H857.919V607.822H846.21V581.719Z" fill="#6B6F57"/>
<path d="M846.21 614.347H857.919V640.449H846.21V614.347Z" fill="#6B6F57"/>
<path d="M846.21 646.975H857.919V673.077H846.21V646.975Z" fill="#6B6F57"/>
<path d="M846.21 679.603H857.919V705.705H846.21V679.603Z" fill="#6B6F57"/>
<path d="M846.21 712.231H857.919V738.333H846.21V712.231Z" fill="#6B6F57"/>
<path d="M846.21 744.858H857.919V770.961H846.21V744.858Z" fill="#6B6F57"/>
<path d="M846.21 777.486H857.919V803.588H846.21V777.486V777.486Z" fill="#6B6F57"/>
<path d="M846.21 810.114H857.919V836.216H846.21V810.114Z" fill="#6B6F57"/>
<path d="M864.016 451.208H875.725V477.31H864.016V451.208Z" fill="#6B6F57"/>
<path d="M864.016 483.836H875.725V509.938H864.016V483.836Z" fill="#6B6F57"/>
<path d="M864.016 516.464H875.725V542.566H864.016V516.464Z" fill="#6B6F57"/>
<path d="M864.016 549.092H875.725V575.194H864.016V549.092Z" fill="#6B6F57"/>
<path d="M864.016 581.719H875.725V607.822H864.016V581.719Z" fill="#6B6F57"/>
<path d="M864.016 614.347H875.725V640.449H864.016V614.347Z" fill="#6B6F57"/>
<path d="M864.016 646.975H875.725V673.077H864.016V646.975Z" fill="#6B6F57"/>
<path d="M864.016 679.603H875.725V705.705H864.016V679.603Z" fill="#6B6F57"/>
<path d="M864.016 712.231H875.725V738.333H864.016V712.231Z" fill="#6B6F57"/>
<path d="M864.016 744.858H875.725V770.961H864.016V744.858Z" fill="#6B6F57"/>
<path d="M864.016 777.486H875.725V803.588H864.016V777.486V777.486Z" fill="#6B6F57"/>
<path d="M864.016 810.114H875.725V836.216H864.016V810.114Z" fill="#6B6F57"/>
<path d="M762.105 602.601H673.112V910.608H762.105V602.601Z" fill="url(#paint13_linear)"/>
<path d="M685.992 613.042H697.702V639.144H685.992V613.042Z" fill="#6B6F57"/>
<path d="M685.992 645.67H697.702V671.772H685.992V645.67Z" fill="#6B6F57"/>
<path d="M685.992 678.298H697.702V704.4H685.992V678.298Z" fill="#6B6F57"/>
<path d="M685.992 710.925H697.702V737.028H685.992V710.925Z" fill="#6B6F57"/>
<path d="M685.992 743.553H697.702V769.655H685.992V743.553Z" fill="#6B6F57"/>
<path d="M685.992 776.181H697.702V802.283H685.992V776.181V776.181Z" fill="#6B6F57"/>
<path d="M685.992 808.809H697.702V834.911H685.992V808.809Z" fill="#6B6F57"/>
<path d="M721.604 536.04H733.314V562.143H721.604V536.04Z" fill="#6B6F57"/>
<path d="M721.604 568.668H733.314V594.77H721.604V568.668Z" fill="#6B6F57"/>
<path d="M739.41 536.04H751.119V562.143H739.41V536.04Z" fill="#6B6F57"/>
<path d="M739.41 568.668H751.119V594.77H739.41V568.668Z" fill="#6B6F57"/>
<path d="M703.798 613.042H715.508V639.144H703.798V613.042Z" fill="#6B6F57"/>
<path d="M703.798 645.67H715.508V671.772H703.798V645.67Z" fill="#6B6F57"/>
<path d="M703.798 678.298H715.508V704.4H703.798V678.298Z" fill="#6B6F57"/>
<path d="M703.798 710.925H715.508V737.028H703.798V710.925Z" fill="#6B6F57"/>
<path d="M703.798 743.553H715.508V769.655H703.798V743.553Z" fill="#6B6F57"/>
<path d="M703.798 776.181H715.508V802.283H703.798V776.181V776.181Z" fill="#6B6F57"/>
<path d="M703.798 808.809H715.508V834.911H703.798V808.809Z" fill="#6B6F57"/>
<path d="M721.604 613.042H733.314V639.144H721.604V613.042Z" fill="#6B6F57"/>
<path d="M721.604 645.67H733.314V671.772H721.604V645.67Z" fill="#6B6F57"/>
<path d="M721.604 678.298H733.314V704.4H721.604V678.298Z" fill="#6B6F57"/>
<path d="M721.604 710.925H733.314V737.028H721.604V710.925Z" fill="#6B6F57"/>
<path d="M721.604 743.553H733.314V769.655H721.604V743.553Z" fill="#6B6F57"/>
<path d="M721.604 776.181H733.314V802.283H721.604V776.181V776.181Z" fill="#6B6F57"/>
<path d="M721.604 808.809H733.314V834.911H721.604V808.809Z" fill="#6B6F57"/>
<path d="M739.41 613.042H751.12V639.144H739.41V613.042Z" fill="#6B6F57"/>
<path d="M739.41 645.67H751.12V671.772H739.41V645.67Z" fill="#6B6F57"/>
<path d="M739.41 678.298H751.12V704.4H739.41V678.298Z" fill="#6B6F57"/>
<path d="M739.41 710.925H751.12V737.028H739.41V710.925Z" fill="#6B6F57"/>
<path d="M739.41 743.553H751.12V769.655H739.41V743.553Z" fill="#6B6F57"/>
<path d="M739.41 776.181H751.12V802.283H739.41V776.181V776.181Z" fill="#6B6F57"/>
<path d="M739.41 808.809H751.12V834.911H739.41V808.809Z" fill="#6B6F57"/>
<path d="M1567.4 217.987H1457.89V274.322H1567.4V217.987Z" fill="url(#paint14_linear)"/>
<path d="M1586.78 269.698H1438.51V911.913H1586.78V269.698Z" fill="#8A9DA5"/>
<path d="M1544.52 366.07H1537.85V910.639H1544.52V366.07Z" fill="#555753"/>
<path d="M1563.55 366.07H1556.87V910.639H1563.55V366.07Z" fill="#555753"/>
<path d="M1525.49 366.07H1518.82V910.639H1525.49V366.07Z" fill="#555753"/>
<path d="M1506.47 366.07H1499.79V910.639H1506.47V366.07Z" fill="#555753"/>
<path d="M1487.44 366.07H1480.77V910.639H1487.44V366.07Z" fill="#555753"/>
<path d="M1468.41 366.07H1461.74V910.639H1468.41V366.07Z" fill="#555753"/>
<path d="M1506.27 176.746H1501.56V220.123H1506.27V176.746Z" fill="#2F3542"/>
<path d="M1527.13 101.821H1522.42V218.809H1527.13V101.821Z" fill="#2F3542"/>
<path d="M1763.65 350.528H1615.57V396.348H1763.65V350.528Z" fill="url(#paint15_linear)"/>
<path d="M1780.33 388.127H1600.05V910.477H1780.33V388.127Z" fill="url(#paint16_linear)"/>
<path d="M1764.37 409.999H1610.89V423.898H1764.37V409.999Z" fill="#555753"/>
<path d="M1764.37 441.93H1610.89V455.829H1764.37V441.93Z" fill="#555753"/>
<path d="M1764.37 633.52H1610.89V647.418H1764.37V633.52Z" fill="#555753"/>
<path d="M1764.37 665.451H1610.89V679.35H1764.37V665.451Z" fill="#555753"/>
<path d="M1764.37 697.383H1610.89V711.281H1764.37V697.383Z" fill="#555753"/>
<path d="M1764.37 729.314H1610.89V743.213H1764.37V729.314Z" fill="#555753"/>
<path d="M1764.37 761.246H1610.89V775.144H1764.37V761.246Z" fill="#555753"/>
<path d="M1764.37 793.177H1610.89V807.076H1764.37V793.177Z" fill="#555753"/>
<path d="M1764.37 825.109H1610.89V839.008H1764.37V825.109Z" fill="#555753"/>
<path d="M1764.37 857.04H1610.89V870.939H1764.37V857.04Z" fill="#555753"/>
<path d="M1766.29 888.972H1612.81V902.871H1766.29V888.972Z" fill="#555753"/>
<path d="M1764.37 473.862H1610.89V487.761H1764.37V473.862Z" fill="#555753"/>
<path d="M1764.37 505.794H1610.89V519.692H1764.37V505.794Z" fill="#555753"/>
<path d="M1764.37 537.725H1610.89V551.624H1764.37V537.725Z" fill="#555753"/>
<path d="M1764.37 569.657H1610.89V583.555H1764.37V569.657Z" fill="#555753"/>
<path d="M1764.37 601.588H1610.89V615.487H1764.37V601.588Z" fill="#555753"/>
<path d="M600.255 377.583H490.273V423.77H600.255V377.583Z" fill="url(#paint17_linear)"/>
<path d="M493.111 463.488H471.416V508.271H493.111V463.488Z" fill="#EEEEEC" stroke="#3465A4"/>
<path d="M485.488 466.131H490.761V478.081L485.488 466.131Z" fill="white"/>
<path d="M491.807 500.95V506.828H473.258L491.807 500.95Z" fill="#D3D7CF"/>
<path d="M493.111 463.488H471.416V508.271H493.111V463.488Z" fill="#EEEEEC" stroke="#3465A4" stroke-width="0.64148"/>
<path d="M485.488 466.131H490.761V478.081L485.488 466.131Z" fill="white"/>
<path d="M491.807 500.95V506.828H473.258L491.807 500.95Z" fill="#D3D7CF"/>
<path d="M493.111 508.271H471.416V553.055H493.111V508.271Z" fill="#EEEEEC" stroke="#3465A4" stroke-width="0.64148"/>
<path d="M485.488 510.915H490.761V522.864L485.488 510.915Z" fill="white"/>
<path d="M491.807 545.734V551.612H473.258L491.807 545.734Z" fill="#D3D7CF"/>
<path d="M493.111 553.055H471.416V597.839H493.111V553.055Z" fill="#EEEEEC" stroke="#3465A4" stroke-width="0.64148"/>
<path d="M485.488 555.699H490.761V567.648L485.488 555.699Z" fill="white"/>
<path d="M491.807 590.518V596.395H473.258L491.807 590.518Z" fill="#D3D7CF"/>
<path d="M493.111 597.839H471.416V642.623H493.111V597.839Z" fill="#EEEEEC" stroke="#3465A4" stroke-width="0.64148"/>
<path d="M485.488 600.483H490.761V612.432L485.488 600.483Z" fill="white"/>
<path d="M491.807 635.302V641.179H473.258L491.807 635.302Z" fill="#D3D7CF"/>
<path d="M493.111 642.623H471.416V687.406H493.111V642.623Z" fill="#EEEEEC" stroke="#3465A4" stroke-width="0.64148"/>
<path d="M485.488 645.266H490.761V657.216L485.488 645.266Z" fill="white"/>
<path d="M491.807 680.085V685.963H473.258L491.807 680.085Z" fill="#D3D7CF"/>
<path d="M493.111 687.407H471.416V732.19H493.111V687.407Z" fill="#EEEEEC" stroke="#3465A4" stroke-width="0.64148"/>
<path d="M485.488 690.05H490.761V701.999L485.488 690.05Z" fill="white"/>
<path d="M491.807 724.869V730.747H473.258L491.807 724.869Z" fill="#D3D7CF"/>
<path d="M493.111 732.19H471.416V776.974H493.111V732.19Z" fill="#EEEEEC" stroke="#3465A4" stroke-width="0.64148"/>
<path d="M485.488 734.834H490.761V746.783L485.488 734.834Z" fill="white"/>
<path d="M491.807 769.653V775.53H473.258L491.807 769.653Z" fill="#D3D7CF"/>
<path d="M493.111 776.974H471.416V821.758H493.111V776.974Z" fill="#EEEEEC" stroke="#3465A4" stroke-width="0.64148"/>
<path d="M485.488 779.617H490.761V791.567L485.488 779.617Z" fill="white"/>
<path d="M491.807 814.436V820.314H473.258L491.807 814.436Z" fill="#D3D7CF"/>
<path d="M493.111 821.758H471.416V866.542H493.111V821.758Z" fill="#EEEEEC" stroke="#3465A4" stroke-width="0.64148"/>
<path d="M485.488 824.401H490.761V836.351L485.488 824.401Z" fill="white"/>
<path d="M491.807 859.22V865.098H473.258L491.807 859.22Z" fill="#D3D7CF"/>
<path d="M493.111 866.541H471.416V911.325H493.111V866.541Z" fill="#EEEEEC" stroke="#3465A4" stroke-width="0.64148"/>
<path d="M485.488 869.185H490.761V881.134L485.488 869.185Z" fill="white"/>
<path d="M491.807 904.004V909.881H473.258L491.807 904.004Z" fill="#D3D7CF"/>
<path d="M514.806 463.488H493.111V508.271H514.806V463.488Z" fill="#EEEEEC" stroke="#3465A4" stroke-width="0.64148"/>
<path d="M507.183 466.131H512.456V478.081L507.183 466.131Z" fill="white"/>
<path d="M513.503 500.95V506.828H494.954L513.503 500.95Z" fill="#D3D7CF"/>
<path d="M514.806 508.271H493.111V553.055H514.806V508.271Z" fill="#EEEEEC" stroke="#3465A4" stroke-width="0.64148"/>
<path d="M507.183 510.915H512.456V522.864L507.183 510.915Z" fill="white"/>
<path d="M513.503 545.734V551.612H494.954L513.503 545.734Z" fill="#D3D7CF"/>
<path d="M514.806 553.055H493.111V597.839H514.806V553.055Z" fill="#EEEEEC" stroke="#3465A4" stroke-width="0.64148"/>
<path d="M507.183 555.699H512.456V567.648L507.183 555.699Z" fill="white"/>
<path d="M513.503 590.518V596.395H494.954L513.503 590.518Z" fill="#D3D7CF"/>
<path d="M514.806 597.839H493.111V642.623H514.806V597.839Z" fill="#EEEEEC" stroke="#3465A4" stroke-width="0.64148"/>
<path d="M507.183 600.483H512.456V612.432L507.183 600.483Z" fill="white"/>
<path d="M513.503 635.302V641.179H494.954L513.503 635.302Z" fill="#D3D7CF"/>
<path d="M514.806 642.623H493.111V687.406H514.806V642.623Z" fill="#EEEEEC" stroke="#3465A4" stroke-width="0.64148"/>
<path d="M507.183 645.266H512.456V657.216L507.183 645.266Z" fill="white"/>
<path d="M513.503 680.085V685.963H494.954L513.503 680.085Z" fill="#D3D7CF"/>
<path d="M514.806 687.407H493.111V732.19H514.806V687.407Z" fill="#EEEEEC" stroke="#3465A4" stroke-width="0.64148"/>
<path d="M507.183 690.05H512.456V701.999L507.183 690.05Z" fill="white"/>
<path d="M513.503 724.869V730.747H494.954L513.503 724.869Z" fill="#D3D7CF"/>
<path d="M514.806 732.19H493.111V776.974H514.806V732.19Z" fill="#EEEEEC" stroke="#3465A4" stroke-width="0.64148"/>
<path d="M507.183 734.834H512.456V746.783L507.183 734.834Z" fill="white"/>
<path d="M513.503 769.653V775.53H494.954L513.503 769.653Z" fill="#D3D7CF"/>
<path d="M514.806 776.974H493.111V821.758H514.806V776.974Z" fill="#EEEEEC" stroke="#3465A4" stroke-width="0.64148"/>
<path d="M507.183 779.617H512.456V791.567L507.183 779.617Z" fill="white"/>
<path d="M513.503 814.436V820.314H494.954L513.503 814.436Z" fill="#D3D7CF"/>
<path d="M514.806 821.758H493.111V866.542H514.806V821.758Z" fill="#EEEEEC" stroke="#3465A4" stroke-width="0.64148"/>
<path d="M507.183 824.401H512.456V836.351L507.183 824.401Z" fill="white"/>
<path d="M513.503 859.22V865.098H494.954L513.503 859.22Z" fill="#D3D7CF"/>
<path d="M514.806 866.541H493.111V911.325H514.806V866.541Z" fill="#EEEEEC" stroke="#3465A4" stroke-width="0.64148"/>
<path d="M507.183 869.185H512.456V881.134L507.183 869.185Z" fill="white"/>
<path d="M513.503 904.004V909.881H494.954L513.503 904.004Z" fill="#D3D7CF"/>
<path d="M536.501 463.488H514.806V508.271H536.501V463.488Z" fill="#EEEEEC" stroke="#3465A4" stroke-width="0.64148"/>
<path d="M528.878 466.131H534.152V478.081L528.878 466.131Z" fill="white"/>
<path d="M535.198 500.95V506.828H516.649L535.198 500.95Z" fill="#D3D7CF"/>
<path d="M536.501 508.271H514.806V553.055H536.501V508.271Z" fill="#EEEEEC" stroke="#3465A4" stroke-width="0.64148"/>
<path d="M528.878 510.915H534.152V522.864L528.878 510.915Z" fill="white"/>
<path d="M535.198 545.734V551.612H516.649L535.198 545.734Z" fill="#D3D7CF"/>
<path d="M536.501 553.055H514.806V597.839H536.501V553.055Z" fill="#EEEEEC" stroke="#3465A4" stroke-width="0.64148"/>
<path d="M528.878 555.699H534.152V567.648L528.878 555.699Z" fill="white"/>
<path d="M535.198 590.518V596.395H516.649L535.198 590.518Z" fill="#D3D7CF"/>
<path d="M536.501 597.839H514.806V642.623H536.501V597.839Z" fill="#EEEEEC" stroke="#3465A4" stroke-width="0.64148"/>
<path d="M528.878 600.483H534.152V612.432L528.878 600.483Z" fill="white"/>
<path d="M535.198 635.302V641.179H516.649L535.198 635.302Z" fill="#D3D7CF"/>
<path d="M536.501 642.623H514.806V687.406H536.501V642.623Z" fill="#EEEEEC" stroke="#3465A4" stroke-width="0.64148"/>
<path d="M528.878 645.266H534.152V657.216L528.878 645.266Z" fill="white"/>
<path d="M535.198 680.085V685.963H516.649L535.198 680.085Z" fill="#D3D7CF"/>
<path d="M536.501 687.407H514.806V732.19H536.501V687.407Z" fill="#EEEEEC" stroke="#3465A4" stroke-width="0.64148"/>
<path d="M528.878 690.05H534.152V701.999L528.878 690.05Z" fill="white"/>
<path d="M535.198 724.869V730.747H516.649L535.198 724.869Z" fill="#D3D7CF"/>
<path d="M536.501 732.19H514.806V776.974H536.501V732.19Z" fill="#EEEEEC" stroke="#3465A4" stroke-width="0.64148"/>
<path d="M528.878 734.834H534.152V746.783L528.878 734.834Z" fill="white"/>
<path d="M535.198 769.653V775.53H516.649L535.198 769.653Z" fill="#D3D7CF"/>
<path d="M536.501 776.974H514.806V821.758H536.501V776.974Z" fill="#EEEEEC" stroke="#3465A4" stroke-width="0.64148"/>
<path d="M528.878 779.617H534.152V791.567L528.878 779.617Z" fill="white"/>
<path d="M535.198 814.436V820.314H516.649L535.198 814.436Z" fill="#D3D7CF"/>
<path d="M536.501 821.758H514.806V866.542H536.501V821.758Z" fill="#EEEEEC" stroke="#3465A4" stroke-width="0.64148"/>
<path d="M528.878 824.401H534.152V836.351L528.878 824.401Z" fill="white"/>
<path d="M535.198 859.22V865.098H516.649L535.198 859.22Z" fill="#D3D7CF"/>
<path d="M536.501 866.541H514.806V911.325H536.501V866.541Z" fill="#EEEEEC" stroke="#3465A4" stroke-width="0.64148"/>
<path d="M528.878 869.185H534.152V881.134L528.878 869.185Z" fill="white"/>
<path d="M535.198 904.004V909.881H516.649L535.198 904.004Z" fill="#D3D7CF"/>
<path d="M558.197 463.488H536.501V508.271H558.197V463.488Z" fill="#EEEEEC" stroke="#3465A4" stroke-width="0.64148"/>
<path d="M550.573 466.131H555.847V478.081L550.573 466.131Z" fill="white"/>
<path d="M556.893 500.95V506.828H538.344L556.893 500.95Z" fill="#D3D7CF"/>
<path d="M558.197 508.271H536.501V553.055H558.197V508.271Z" fill="#EEEEEC" stroke="#3465A4" stroke-width="0.64148"/>
<path d="M550.573 510.915H555.847V522.864L550.573 510.915Z" fill="white"/>
<path d="M556.893 545.734V551.612H538.344L556.893 545.734Z" fill="#D3D7CF"/>
<path d="M558.197 553.055H536.501V597.839H558.197V553.055Z" fill="#EEEEEC" stroke="#3465A4" stroke-width="0.64148"/>
<path d="M550.573 555.699H555.847V567.648L550.573 555.699Z" fill="white"/>
<path d="M556.893 590.518V596.395H538.344L556.893 590.518Z" fill="#D3D7CF"/>
<path d="M558.197 597.839H536.501V642.623H558.197V597.839Z" fill="#EEEEEC" stroke="#3465A4" stroke-width="0.64148"/>
<path d="M550.573 600.483H555.847V612.432L550.573 600.483Z" fill="white"/>
<path d="M556.893 635.302V641.179H538.344L556.893 635.302Z" fill="#D3D7CF"/>
<path d="M558.197 642.623H536.501V687.406H558.197V642.623Z" fill="#EEEEEC" stroke="#3465A4" stroke-width="0.64148"/>
<path d="M550.573 645.266H555.847V657.216L550.573 645.266Z" fill="white"/>
<path d="M556.893 680.085V685.963H538.344L556.893 680.085Z" fill="#D3D7CF"/>
<path d="M558.197 687.407H536.501V732.19H558.197V687.407Z" fill="#EEEEEC" stroke="#3465A4" stroke-width="0.64148"/>
<path d="M550.573 690.05H555.847V701.999L550.573 690.05Z" fill="white"/>
<path d="M556.893 724.869V730.747H538.344L556.893 724.869Z" fill="#D3D7CF"/>
<path d="M558.197 732.19H536.501V776.974H558.197V732.19Z" fill="#EEEEEC" stroke="#3465A4" stroke-width="0.64148"/>
<path d="M550.573 734.834H555.847V746.783L550.573 734.834Z" fill="white"/>
<path d="M556.893 769.653V775.53H538.344L556.893 769.653Z" fill="#D3D7CF"/>
<path d="M558.197 776.974H536.501V821.758H558.197V776.974Z" fill="#EEEEEC" stroke="#3465A4" stroke-width="0.64148"/>
<path d="M550.573 779.617H555.847V791.567L550.573 779.617Z" fill="white"/>
<path d="M556.893 814.436V820.314H538.344L556.893 814.436Z" fill="#D3D7CF"/>
<path d="M558.197 821.758H536.501V866.542H558.197V821.758Z" fill="#EEEEEC" stroke="#3465A4" stroke-width="0.64148"/>
<path d="M550.573 824.401H555.847V836.351L550.573 824.401Z" fill="white"/>
<path d="M556.893 859.22V865.098H538.344L556.893 859.22Z" fill="#D3D7CF"/>
<path d="M558.197 866.541H536.501V911.325H558.197V866.541Z" fill="#EEEEEC" stroke="#3465A4" stroke-width="0.64148"/>
<path d="M550.573 869.185H555.847V881.134L550.573 869.185Z" fill="white"/>
<path d="M556.893 904.004V909.881H538.344L556.893 904.004Z" fill="#D3D7CF"/>
<path d="M579.892 463.488H558.196V508.271H579.892V463.488Z" fill="#EEEEEC" stroke="#3465A4" stroke-width="0.64148"/>
<path d="M572.269 466.131H577.542V478.081L572.269 466.131Z" fill="white"/>
<path d="M578.588 500.95V506.828H560.039L578.588 500.95Z" fill="#D3D7CF"/>
<path d="M579.892 508.271H558.196V553.055H579.892V508.271Z" fill="#EEEEEC" stroke="#3465A4" stroke-width="0.64148"/>
<path d="M572.269 510.915H577.542V522.864L572.269 510.915Z" fill="white"/>
<path d="M578.588 545.734V551.612H560.039L578.588 545.734Z" fill="#D3D7CF"/>
<path d="M579.892 553.055H558.196V597.839H579.892V553.055Z" fill="#EEEEEC" stroke="#3465A4" stroke-width="0.64148"/>
<path d="M572.269 555.699H577.542V567.648L572.269 555.699Z" fill="white"/>
<path d="M578.588 590.518V596.395H560.039L578.588 590.518Z" fill="#D3D7CF"/>
<path d="M579.892 597.839H558.196V642.623H579.892V597.839Z" fill="#EEEEEC" stroke="#3465A4" stroke-width="0.64148"/>
<path d="M572.269 600.483H577.542V612.432L572.269 600.483Z" fill="white"/>
<path d="M578.588 635.302V641.179H560.039L578.588 635.302Z" fill="#D3D7CF"/>
<path d="M579.892 642.623H558.196V687.406H579.892V642.623Z" fill="#EEEEEC" stroke="#3465A4" stroke-width="0.64148"/>
<path d="M572.269 645.266H577.542V657.216L572.269 645.266Z" fill="white"/>
<path d="M578.588 680.085V685.963H560.039L578.588 680.085Z" fill="#D3D7CF"/>
<path d="M579.892 687.407H558.196V732.19H579.892V687.407Z" fill="#EEEEEC" stroke="#3465A4" stroke-width="0.64148"/>
<path d="M572.269 690.05H577.542V701.999L572.269 690.05Z" fill="white"/>
<path d="M578.588 724.869V730.747H560.039L578.588 724.869Z" fill="#D3D7CF"/>
<path d="M579.892 732.19H558.196V776.974H579.892V732.19Z" fill="#EEEEEC" stroke="#3465A4" stroke-width="0.64148"/>
<path d="M572.269 734.834H577.542V746.783L572.269 734.834Z" fill="white"/>
<path d="M578.588 769.653V775.53H560.039L578.588 769.653Z" fill="#D3D7CF"/>
<path d="M579.892 776.974H558.196V821.758H579.892V776.974Z" fill="#EEEEEC" stroke="#3465A4" stroke-width="0.64148"/>
<path d="M572.269 779.617H577.542V791.567L572.269 779.617Z" fill="white"/>
<path d="M578.588 814.436V820.314H560.039L578.588 814.436Z" fill="#D3D7CF"/>
<path d="M579.892 821.758H558.196V866.542H579.892V821.758Z" fill="#EEEEEC" stroke="#3465A4" stroke-width="0.64148"/>
<path d="M572.269 824.401H577.542V836.351L572.269 824.401Z" fill="white"/>
<path d="M578.588 859.22V865.098H560.039L578.588 859.22Z" fill="#D3D7CF"/>
<path d="M579.892 866.541H558.196V911.325H579.892V866.541Z" fill="#EEEEEC" stroke="#3465A4" stroke-width="0.64148"/>
<path d="M572.269 869.185H577.542V881.134L572.269 869.185Z" fill="white"/>
<path d="M578.588 904.004V909.881H560.039L578.588 904.004Z" fill="#D3D7CF"/>
<path d="M601.587 463.488H579.892V508.271H601.587V463.488Z" fill="#EEEEEC" stroke="#3465A4" stroke-width="0.64148"/>
<path d="M593.964 466.131H599.237V478.081L593.964 466.131Z" fill="white"/>
<path d="M600.284 500.95V506.828H581.735L600.284 500.95Z" fill="#D3D7CF"/>
<path d="M601.587 508.271H579.892V553.055H601.587V508.271Z" fill="#EEEEEC" stroke="#3465A4" stroke-width="0.64148"/>
<path d="M593.964 510.915H599.237V522.864L593.964 510.915Z" fill="white"/>
<path d="M600.284 545.734V551.612H581.735L600.284 545.734Z" fill="#D3D7CF"/>
<path d="M601.587 553.055H579.892V597.839H601.587V553.055Z" fill="#EEEEEC" stroke="#3465A4" stroke-width="0.64148"/>
<path d="M593.964 555.699H599.237V567.648L593.964 555.699Z" fill="white"/>
<path d="M600.284 590.518V596.395H581.735L600.284 590.518Z" fill="#D3D7CF"/>
<path d="M601.587 597.839H579.892V642.623H601.587V597.839Z" fill="#EEEEEC" stroke="#3465A4" stroke-width="0.64148"/>
<path d="M593.964 600.483H599.237V612.432L593.964 600.483Z" fill="white"/>
<path d="M600.284 635.302V641.179H581.735L600.284 635.302Z" fill="#D3D7CF"/>
<path d="M601.587 642.623H579.892V687.406H601.587V642.623Z" fill="#EEEEEC" stroke="#3465A4" stroke-width="0.64148"/>
<path d="M593.964 645.266H599.237V657.216L593.964 645.266Z" fill="white"/>
<path d="M600.284 680.085V685.963H581.735L600.284 680.085Z" fill="#D3D7CF"/>
<path d="M601.587 687.407H579.892V732.19H601.587V687.407Z" fill="#EEEEEC" stroke="#3465A4" stroke-width="0.64148"/>
<path d="M593.964 690.05H599.237V701.999L593.964 690.05Z" fill="white"/>
<path d="M600.284 724.869V730.747H581.735L600.284 724.869Z" fill="#D3D7CF"/>
<path d="M601.587 732.19H579.892V776.974H601.587V732.19Z" fill="#EEEEEC" stroke="#3465A4" stroke-width="0.64148"/>
<path d="M593.964 734.834H599.237V746.783L593.964 734.834Z" fill="white"/>
<path d="M600.284 769.653V775.53H581.735L600.284 769.653Z" fill="#D3D7CF"/>
<path d="M601.587 776.974H579.892V821.758H601.587V776.974Z" fill="#EEEEEC" stroke="#3465A4" stroke-width="0.64148"/>
<path d="M593.964 779.617H599.237V791.567L593.964 779.617Z" fill="white"/>
<path d="M600.284 814.436V820.314H581.735L600.284 814.436Z" fill="#D3D7CF"/>
<path d="M601.587 821.758H579.892V866.542H601.587V821.758Z" fill="#EEEEEC" stroke="#3465A4" stroke-width="0.64148"/>
<path d="M593.964 824.401H599.237V836.351L593.964 824.401Z" fill="white"/>
<path d="M600.284 859.22V865.098H581.735L600.284 859.22Z" fill="#D3D7CF"/>
<path d="M601.587 866.541H579.892V911.325H601.587V866.541Z" fill="#EEEEEC" stroke="#3465A4" stroke-width="0.64148"/>
<path d="M593.964 869.185H599.237V881.134L593.964 869.185Z" fill="white"/>
<path d="M600.284 904.004V909.881H581.735L600.284 904.004Z" fill="#D3D7CF"/>
<path d="M623.282 463.488H601.587V508.271H623.282V463.488Z" fill="#EEEEEC" stroke="#3465A4" stroke-width="0.64148"/>
<path d="M615.659 466.131H620.932V478.081L615.659 466.131Z" fill="white"/>
<path d="M621.979 500.95V506.828H603.43L621.979 500.95Z" fill="#D3D7CF"/>
<path d="M623.282 508.271H601.587V553.055H623.282V508.271Z" fill="#EEEEEC" stroke="#3465A4" stroke-width="0.64148"/>
<path d="M615.659 510.915H620.932V522.864L615.659 510.915Z" fill="white"/>
<path d="M621.979 545.734V551.612H603.43L621.979 545.734Z" fill="#D3D7CF"/>
<path d="M623.282 553.055H601.587V597.839H623.282V553.055Z" fill="#EEEEEC" stroke="#3465A4" stroke-width="0.64148"/>
<path d="M615.659 555.699H620.932V567.648L615.659 555.699Z" fill="white"/>
<path d="M621.979 590.518V596.395H603.43L621.979 590.518Z" fill="#D3D7CF"/>
<path d="M623.282 597.839H601.587V642.623H623.282V597.839Z" fill="#EEEEEC" stroke="#3465A4" stroke-width="0.64148"/>
<path d="M615.659 600.483H620.932V612.432L615.659 600.483Z" fill="white"/>
<path d="M621.979 635.302V641.179H603.43L621.979 635.302Z" fill="#D3D7CF"/>
<path d="M623.282 642.623H601.587V687.406H623.282V642.623Z" fill="#EEEEEC" stroke="#3465A4" stroke-width="0.64148"/>
<path d="M615.659 645.266H620.932V657.216L615.659 645.266Z" fill="white"/>
<path d="M621.979 680.085V685.963H603.43L621.979 680.085Z" fill="#D3D7CF"/>
<path d="M623.282 687.407H601.587V732.19H623.282V687.407Z" fill="#EEEEEC" stroke="#3465A4" stroke-width="0.64148"/>
<path d="M615.659 690.05H620.932V701.999L615.659 690.05Z" fill="white"/>
<path d="M621.979 724.869V730.747H603.43L621.979 724.869Z" fill="#D3D7CF"/>
<path d="M623.282 732.19H601.587V776.974H623.282V732.19Z" fill="#EEEEEC" stroke="#3465A4" stroke-width="0.64148"/>
<path d="M615.659 734.834H620.932V746.783L615.659 734.834Z" fill="white"/>
<path d="M621.979 769.653V775.53H603.43L621.979 769.653Z" fill="#D3D7CF"/>
<path d="M623.282 776.974H601.587V821.758H623.282V776.974Z" fill="#EEEEEC" stroke="#3465A4" stroke-width="0.64148"/>
<path d="M615.659 779.617H620.932V791.567L615.659 779.617Z" fill="white"/>
<path d="M621.979 814.436V820.314H603.43L621.979 814.436Z" fill="#D3D7CF"/>
<path d="M623.282 821.758H601.587V866.542H623.282V821.758Z" fill="#EEEEEC" stroke="#3465A4" stroke-width="0.64148"/>
<path d="M615.659 824.401H620.932V836.351L615.659 824.401Z" fill="white"/>
<path d="M621.979 859.22V865.098H603.43L621.979 859.22Z" fill="#D3D7CF"/>
<path d="M623.282 866.541H601.587V911.325H623.282V866.541Z" fill="#EEEEEC" stroke="#3465A4" stroke-width="0.64148"/>
<path d="M615.659 869.185H620.932V881.134L615.659 869.185Z" fill="white"/>
<path d="M621.979 904.004V909.881H603.43L621.979 904.004Z" fill="#D3D7CF"/>
<path d="M623.45 417.537H471.295V463.724H623.45V417.537Z" fill="url(#paint18_linear)"/>
<path d="M508.193 644.132H312.781V911.913H508.193V644.132Z" fill="url(#paint19_linear)"/>
<path d="M493.667 654.266H327.306V660.705H493.667V654.266Z" fill="#555753"/>
<path d="M493.667 669.06H327.306V675.5H493.667V669.06Z" fill="#555753"/>
<path d="M493.667 757.83H327.306V764.27H493.667V757.83Z" fill="#555753"/>
<path d="M493.667 772.625H327.306V779.065H493.667V772.625Z" fill="#555753"/>
<path d="M493.667 787.42H327.306V793.86H493.667V787.42Z" fill="#555753"/>
<path d="M493.667 802.215H327.306V808.655H493.667V802.215Z" fill="#555753"/>
<path d="M493.667 817.01H327.306V823.45H493.667V817.01Z" fill="#555753"/>
<path d="M493.667 831.805H327.306V838.245H493.667V831.805Z" fill="#555753"/>
<path d="M493.667 846.6H327.306V853.04H493.667V846.6Z" fill="#555753"/>
<path d="M493.667 861.395H327.306V867.835H493.667V861.395Z" fill="#555753"/>
<path d="M493.667 876.19H327.306V882.63H493.667V876.19Z" fill="#555753"/>
<path d="M493.667 683.856H327.306V690.295H493.667V683.856Z" fill="#555753"/>
<path d="M493.667 698.65H327.306V705.09H493.667V698.65Z" fill="#555753"/>
<path d="M493.667 713.445H327.306V719.885H493.667V713.445Z" fill="#555753"/>
<path d="M493.667 728.24H327.306V734.68H493.667V728.24Z" fill="#555753"/>
<path d="M493.667 743.035H327.306V749.475H493.667V743.035Z" fill="#555753"/>
<path d="M354.917 644.534H351.388V886.926H354.917V644.534Z" fill="#8A9DA5"/>
<path d="M469.586 647.747H466.056V890.138H469.586V647.747Z" fill="#8A9DA5"/>
<path d="M393.14 646.02H389.61V888.412H393.14V646.02Z" fill="#8A9DA5"/>
<path d="M431.363 645.029H427.833V887.421H431.363V645.029Z" fill="#8A9DA5"/>
<path d="M493.155 890.824H482.488V911.134H493.155V890.824Z" fill="#555753"/>
<path d="M415.82 890.824H405.153V911.134H415.82V890.824Z" fill="#555753"/>
<path d="M402.931 890.824H392.264V911.134H402.931V890.824Z" fill="#555753"/>
<path d="M390.042 890.824H379.375V911.134H390.042V890.824Z" fill="#555753"/>
<path d="M377.153 890.824H366.486V911.134H377.153V890.824Z" fill="#555753"/>
<path d="M364.264 890.824H353.597V911.134H364.264V890.824Z" fill="#555753"/>
<path d="M351.375 890.824H340.708V911.134H351.375V890.824Z" fill="#555753"/>
<path d="M338.485 890.824H327.819V911.134H338.485V890.824Z" fill="#555753"/>
<path d="M325.596 890.824H314.93V911.134H325.596V890.824Z" fill="#555753"/>
<path d="M506.044 890.824H495.377V911.134H506.044V890.824Z" fill="#555753"/>
<path d="M480.266 890.824H469.599V911.134H480.266V890.824Z" fill="#555753"/>
<path d="M467.376 890.824H456.71V911.134H467.376V890.824Z" fill="#555753"/>
<path d="M454.487 890.824H443.82V911.134H454.487V890.824Z" fill="#555753"/>
<path d="M441.598 890.824H430.931V911.134H441.598V890.824Z" fill="#555753"/>
<path d="M428.709 890.824H418.042V911.134H428.709V890.824Z" fill="#555753"/>
<path d="M224.737 120.321C192.315 122.874 181.428 175.647 204.87 197.778C212.369 216.755 186.359 237.351 172.825 221.198C149.812 211.957 121.763 225.013 111.27 249.586C85.6014 234.317 54.5929 261.123 53.2008 291.262C48.6843 321.802 69.1346 358.931 99.2579 356.801C118.125 358.403 128.397 324.848 148.368 344.183C169.481 352.408 189.235 319.812 205.876 339.814C223.903 350.098 247.741 347.607 262.685 331.913C283.519 345.892 311.385 319.13 328.872 343.684C360.538 367.073 409.788 357.953 429.44 320.648C446.388 318.181 455.898 350.191 476.925 342.63C493.708 348.066 509.293 321.78 519.15 326.302C538.746 347.901 576.015 334.381 581.296 304.393C589.517 275.659 566.777 239.452 538.589 244.797C514.322 260.483 507.627 210.266 481.513 216.856C474.939 207.594 491.368 186.415 480.807 172.1C474.147 149.84 449.142 136.829 430.506 149.177C421.625 159.84 412.677 184.047 399.068 163.818C379.355 147.933 351.948 161.686 334.283 157.418C314.007 136.325 282.721 128.306 256.713 140.002C250.242 127.78 237.697 119.077 224.737 120.321V120.321Z" fill="url(#paint20_linear)"/>
<path d="M269.528 185.438C249.944 186.975 243.619 222.694 257.895 237.841C262.519 250.754 246.897 264.564 238.639 253.53C224.685 247.126 207.795 255.811 201.572 272.41C185.983 261.903 167.371 279.893 166.675 300.322C164.093 321.004 176.632 346.303 194.829 345.039C206.24 346.239 212.287 323.547 224.451 336.778C237.252 342.481 249.034 320.497 259.188 334.16C270.134 341.242 284.53 339.696 293.486 329.144C306.146 338.748 322.86 320.768 333.548 337.522C352.8 353.572 382.523 347.684 394.221 322.505C404.452 320.934 410.355 342.697 423.028 337.696C433.198 341.483 442.491 323.752 448.47 326.877C460.419 341.641 482.879 332.696 485.926 312.394C490.757 292.959 476.837 268.271 459.826 271.726C445.234 282.217 440.945 248.125 425.193 252.437C421.175 246.118 431.003 231.855 424.55 222.085C420.418 206.951 405.241 197.978 394.038 206.239C388.721 213.417 383.43 229.777 375.106 215.978C363.115 205.089 346.616 214.25 335.918 211.25C323.562 196.826 304.613 191.2 288.95 198.975C284.98 190.649 277.356 184.672 269.528 185.438V185.438Z" fill="url(#paint21_linear)"/>
<path d="M432.238 786.801C411.186 800.212 397.654 821.064 397.654 844.483C397.654 871.762 415.999 895.56 443.22 908.169C464.271 894.758 477.803 873.906 477.803 850.487C477.803 823.209 459.459 799.41 432.238 786.801Z" fill="#5C8C2E"/>
<path d="M438.683 820.899L452.041 972.974H437.729L438.683 820.899V820.899Z" fill="#8F5902"/>
<path d="M468.221 847.86L443.492 886.114L440.315 882.746L468.221 847.86V847.86Z" fill="#8F5902"/>
<path d="M412.991 842.972L438.617 872.578L441.909 869.971L412.991 842.972Z" fill="#8F5902"/>
<path d="M325.05 783.728C346.102 795.912 359.633 814.859 359.633 836.137C359.633 860.923 341.289 882.546 314.068 894.003C293.016 881.818 279.484 862.872 279.484 841.593C279.484 816.807 297.829 795.184 325.05 783.728Z" fill="#45AF0D"/>
<path d="M318.605 814.709L305.246 952.885H319.559L318.605 814.709Z" fill="#8F5902"/>
<path d="M289.066 839.206L313.796 873.963L316.972 870.903L289.066 839.206Z" fill="#8F5902"/>
<path d="M344.297 834.765L318.67 861.665L315.379 859.296L344.297 834.765Z" fill="#8F5902"/>
<path d="M1483.06 805.71C1504.11 817.895 1513.83 868.745 1513.83 890.024C1513.83 914.809 1499.3 904.529 1472.08 915.985C1451.03 903.801 1434.63 912.504 1434.63 891.226C1434.63 866.44 1455.84 817.167 1483.06 805.71Z" fill="#45AF0D"/>
<path d="M1476.62 836.692L1465.17 947.218H1479.48L1476.62 836.692Z" fill="#8F5902"/>
<path d="M1447.08 861.189L1471.81 895.946L1474.98 892.885L1447.08 861.189Z" fill="#8F5902"/>
<path d="M1502.31 856.747L1476.68 883.647L1473.39 881.279L1502.31 856.747Z" fill="#8F5902"/>
<path d="M574.642 872.503L563.192 983.029H577.504L574.642 872.503Z" fill="#8F5902"/>
<path d="M581.087 841.521C602.139 853.706 611.854 904.556 611.854 925.835C611.854 950.62 597.326 940.34 570.105 951.796C549.053 939.612 532.659 948.315 532.659 927.037C532.659 902.251 553.866 852.978 581.087 841.521Z" fill="url(#paint22_linear)"/>
<path d="M582.281 788.121C599.746 798.229 607.805 840.415 607.805 858.068C607.805 878.631 595.753 870.102 573.17 879.606C555.705 869.498 542.104 876.718 542.104 859.065C542.104 838.503 559.698 797.625 582.281 788.121V788.121Z" fill="url(#paint23_linear)"/>
<path d="M583.698 744.869C596.5 752.278 602.408 783.201 602.408 796.141C602.408 811.213 593.573 804.961 577.02 811.928C564.218 804.519 554.249 809.811 554.249 796.872C554.249 781.799 567.145 751.836 583.698 744.869Z" fill="url(#paint24_linear)"/>
<path d="M769.831 826.156C790.883 838.34 800.598 889.19 800.598 910.469C800.598 935.255 786.07 924.974 758.849 936.431C737.797 924.246 721.403 932.95 721.403 911.671C721.403 886.885 742.61 837.612 769.831 826.156Z" fill="#448552"/>
<path d="M763.386 857.137L751.936 967.663H766.248L763.386 857.137Z" fill="#8F5902"/>
<path d="M733.847 881.634L758.577 916.391L761.753 913.331L733.847 881.634Z" fill="#8F5902"/>
<path d="M789.078 877.193L763.452 904.093L760.16 901.724L789.078 877.193Z" fill="#8F5902"/>
<path d="M906.573 786.991C873.111 786.991 849.801 810.862 849.801 831.125C849.801 851.388 883.606 857.179 917.069 857.179C939.631 849.086 944.218 877.652 966.208 879.512C984.651 879.512 999.603 869.513 999.603 857.179C1001.48 836.273 970.657 841.192 970.978 831.125C970.978 810.862 940.035 786.991 906.573 786.991Z" fill="#D7E0B1"/>
<path d="M912.658 805.07C886.889 805.07 868.937 823.453 868.937 839.058C868.937 854.663 894.971 859.123 920.741 859.123C938.117 852.89 941.649 874.889 958.584 876.322C972.788 876.322 984.302 868.621 984.302 859.123C985.747 843.023 962.01 846.811 962.258 839.058C962.258 823.453 938.428 805.07 912.658 805.07V805.07Z" fill="#BFCD82"/>
<path d="M906.096 813.578L919.454 975.224H905.142L906.096 813.578V813.578Z" fill="#8F5902"/>
<path d="M954.718 851.705L909.951 880.92L907.729 869.575L954.718 851.705Z" fill="#8F5902"/>
<path d="M880.404 839.905L906.507 876.423L909.322 866.904L880.404 839.905Z" fill="#8F5902"/>
<path d="M1757.78 804.83C1791.24 804.83 1814.55 823.845 1814.55 839.987C1814.55 856.129 1780.74 860.743 1747.28 860.743C1724.72 854.296 1720.13 877.051 1698.14 878.533C1679.7 878.533 1664.75 870.568 1664.75 860.743C1662.87 844.088 1693.69 848.007 1693.37 839.987C1693.37 823.845 1724.32 804.83 1757.78 804.83Z" fill="#D7E0B1"/>
<path d="M1751.69 819.232C1777.46 819.232 1795.41 833.876 1795.41 846.307C1795.41 858.738 1769.38 862.291 1743.61 862.291C1726.23 857.326 1722.7 874.85 1705.77 875.992C1691.56 875.992 1680.05 869.858 1680.05 862.291C1678.6 849.465 1702.34 852.483 1702.09 846.307C1702.09 833.876 1725.92 819.232 1751.69 819.232V819.232Z" fill="#BFCD82"/>
<path d="M1758.26 826.01L1744.9 954.778H1759.21L1758.26 826.01V826.01Z" fill="#8F5902"/>
<path d="M1709.63 856.382L1754.4 879.654L1756.62 870.617L1709.63 856.382Z" fill="#8F5902"/>
<path d="M1783.95 846.982L1757.84 876.073L1755.03 868.49L1783.95 846.982Z" fill="#8F5902"/>
<path d="M1123.48 853.004L1138.79 963.529H1119.65L1123.48 853.004Z" fill="#8F5902"/>
<path d="M1114.86 822.022C1086.7 834.207 1073.71 885.057 1073.71 906.336C1073.71 931.121 1093.14 920.841 1129.54 932.297C1157.7 920.113 1179.62 928.816 1179.62 907.538C1179.62 882.752 1151.26 833.479 1114.86 822.022Z" fill="url(#paint25_linear)"/>
<path d="M1113.26 768.622C1089.9 778.73 1079.13 820.916 1079.13 838.569C1079.13 859.132 1095.24 850.603 1125.44 860.107C1148.8 849.999 1166.99 857.219 1166.99 839.566C1166.99 819.004 1143.46 778.126 1113.26 768.622V768.622Z" fill="url(#paint26_linear)"/>
<path d="M1111.36 725.37C1094.24 732.779 1086.34 763.702 1086.34 776.642C1086.34 791.714 1098.16 785.462 1120.3 792.429C1137.42 785.02 1150.75 790.312 1150.75 777.373C1150.75 762.3 1133.5 732.337 1111.36 725.37Z" fill="url(#paint27_linear)"/>
<path d="M186.631 867.659L201.943 978.185H182.803L186.631 867.659Z" fill="#8F5902"/>
<path d="M178.011 836.677C149.858 848.862 136.865 899.712 136.865 920.991C136.865 945.776 156.294 935.496 192.698 946.952C220.852 934.768 242.776 943.471 242.776 922.193C242.776 897.407 214.415 848.134 178.011 836.677Z" fill="url(#paint28_linear)"/>
<path d="M176.414 783.277C153.058 793.385 142.279 835.571 142.279 853.224C142.279 873.787 158.398 865.258 188.599 874.762C211.955 864.654 230.144 871.874 230.144 854.221C230.144 833.659 206.616 792.781 176.414 783.277V783.277Z" fill="url(#paint29_linear)"/>
<path d="M174.519 740.025C157.398 747.434 149.498 778.357 149.498 791.297C149.498 806.369 161.312 800.117 183.45 807.084C200.57 799.675 213.903 804.967 213.903 792.028C213.903 776.955 196.656 746.992 174.519 740.025Z" fill="url(#paint30_linear)"/>
<path d="M672.077 824.029C696.399 838.106 707.624 896.856 707.624 921.44C707.624 950.076 690.839 938.198 659.389 951.435C635.067 937.357 616.126 947.413 616.126 922.829C616.126 894.193 640.628 837.265 672.077 824.029Z" fill="#45AF0D"/>
<path d="M664.631 859.823L651.402 987.519H667.938L664.631 859.823Z" fill="#8F5902"/>
<path d="M630.503 888.125L659.075 928.282L662.745 924.746L630.503 888.125Z" fill="#8F5902"/>
<path d="M694.314 882.994L664.707 914.073L660.904 911.337L694.314 882.994Z" fill="#8F5902"/>
<path d="M1255.32 776.4C1276.37 788.585 1289.9 807.531 1289.9 828.81C1289.9 853.595 1271.56 875.219 1244.34 886.675C1223.29 874.491 1209.76 855.544 1209.76 834.266C1209.76 809.48 1228.1 787.857 1255.32 776.4Z" fill="#45AF0D"/>
<path d="M1248.88 807.382L1235.52 945.557H1249.83L1248.88 807.382Z" fill="#8F5902"/>
<path d="M1219.34 831.878L1244.07 866.636L1247.24 863.575L1219.34 831.878Z" fill="#8F5902"/>
<path d="M1274.57 827.437L1248.94 854.337L1245.65 851.969L1274.57 827.437Z" fill="#8F5902"/>
<path d="M1351.66 780.022C1393.93 780.022 1423.38 804.042 1423.38 824.432C1423.38 844.822 1380.67 850.65 1338.41 850.65C1309.91 842.506 1304.11 871.25 1276.33 873.122C1253.04 873.122 1234.15 863.061 1234.15 850.65C1231.78 829.612 1270.71 834.562 1270.31 824.432C1270.31 804.042 1309.39 780.022 1351.66 780.022Z" fill="#D7E0B1"/>
<path d="M1343.98 798.214C1376.53 798.214 1399.2 816.712 1399.2 832.415C1399.2 848.117 1366.32 852.605 1333.77 852.605C1311.82 846.334 1307.36 868.47 1285.96 869.912C1268.02 869.912 1253.48 862.164 1253.48 852.605C1251.65 836.404 1281.64 840.216 1281.32 832.415C1281.32 816.712 1311.42 798.214 1343.98 798.214V798.214Z" fill="#BFCD82"/>
<path d="M1352.27 806.776L1335.39 969.433H1353.47L1352.27 806.776V806.776Z" fill="#8F5902"/>
<path d="M1290.85 845.141L1347.4 874.539L1350.2 863.123L1290.85 845.141Z" fill="#8F5902"/>
<path d="M1384.72 833.267L1351.75 870.014L1348.19 860.435L1384.72 833.267Z" fill="#8F5902"/>
<path d="M1013.83 859.137L1023.72 930.556H1011.35L1013.83 859.137Z" fill="#8F5902"/>
<path d="M1008.26 839.117C990.066 846.99 981.67 879.848 981.67 893.598C981.67 909.614 994.225 902.971 1017.75 910.374C1035.94 902.501 1050.11 908.125 1050.11 894.375C1050.11 878.359 1031.78 846.52 1008.26 839.117Z" fill="url(#paint31_linear)"/>
<path d="M1007.23 804.611C992.134 811.143 985.169 838.402 985.169 849.809C985.169 863.096 995.584 857.585 1015.1 863.727C1030.19 857.195 1041.95 861.86 1041.95 850.454C1041.95 837.166 1026.74 810.752 1007.23 804.611V804.611Z" fill="url(#paint32_linear)"/>
<path d="M1006 776.662C994.938 781.45 989.833 801.432 989.833 809.793C989.833 819.532 997.468 815.493 1011.77 819.994C1022.84 815.207 1031.45 818.627 1031.45 810.265C1031.45 800.526 1020.31 781.164 1006 776.662Z" fill="url(#paint33_linear)"/>
<path d="M57.5847 552.5C50.5632 552.482 43.9159 557.364 40.3899 564.023C28.3697 558.618 14.4268 560.475 3.28729 567.619V677.908C13.2842 672.219 26.6121 682.511 36.9437 675.579C45.6292 684.7 59.4622 686.133 69.94 680.155C79.6121 668.53 91.105 687.469 103.376 682.688C114.984 671.451 120.934 690.975 131.9 690.044C149.408 691.282 161.325 669.71 158.7 651.96C157.891 634.442 139.853 618.854 124.934 627.728C118.835 613.446 102.527 605.849 89.1513 611.22C81.285 620.608 66.1681 608.642 70.5267 597.612C84.1519 584.75 77.8224 554.066 58.9779 552.582C58.5071 552.536 58.0528 552.501 57.5847 552.5V552.5Z" fill="url(#paint34_linear)"/>
</g>
<defs>
<linearGradient id="paint0_linear" x1="881.493" y1="114.064" x2="898.73" y2="1352.88" gradientUnits="userSpaceOnUse">
<stop stop-color="#1E90FF"/>
<stop offset="0.463542" stop-color="#93C3EA" stop-opacity="0"/>
</linearGradient>
<linearGradient id="paint1_linear" x1="287.372" y1="551.441" x2="291.774" y2="928.999" gradientUnits="userSpaceOnUse">
<stop stop-color="#2F3542"/>
<stop offset="0.942708" stop-color="#CED6E0"/>
<stop offset="1" stop-color="#778A96"/>
</linearGradient>
<linearGradient id="paint2_linear" x1="842.713" y1="192.024" x2="986.447" y2="481.722" gradientUnits="userSpaceOnUse">
<stop stop-color="#DFE4EA"/>
<stop offset="1" stop-color="#F1F2F6" stop-opacity="0"/>
</linearGradient>
<linearGradient id="paint3_linear" x1="793.463" y1="325.923" x2="947.576" y2="452.153" gradientUnits="userSpaceOnUse">
<stop stop-color="#F1F2F6"/>
<stop offset="1" stop-color="#DFE4EA" stop-opacity="0"/>
</linearGradient>
<linearGradient id="paint4_linear" x1="1349.29" y1="95.4997" x2="1459.9" y2="454.998" gradientUnits="userSpaceOnUse">
<stop stop-color="#F1F2F6"/>
<stop offset="0.756443" stop-color="#DFE4EA" stop-opacity="0"/>
</linearGradient>
<linearGradient id="paint5_linear" x1="1272.7" y1="238.386" x2="1428.85" y2="411.137" gradientUnits="userSpaceOnUse">
<stop stop-color="#F1F2F6"/>
<stop offset="1" stop-color="#DFE4EA" stop-opacity="0"/>
</linearGradient>
<linearGradient id="paint6_linear" x1="1061.76" y1="1399.8" x2="1061.76" y2="69.8586" gradientUnits="userSpaceOnUse">
<stop offset="0.619792" stop-color="#2F3542"/>
<stop offset="0.729167" stop-color="#5A6270"/>
<stop offset="1" stop-color="#747D8C"/>
</linearGradient>
<linearGradient id="paint7_linear" x1="1205.79" y1="346.067" x2="1205.79" y2="911.913" gradientUnits="userSpaceOnUse">
<stop offset="0.375" stop-color="#2F3542"/>
<stop offset="1" stop-color="#204A87"/>
</linearGradient>
<linearGradient id="paint8_linear" x1="877.677" y1="923.513" x2="877.677" y2="1081.05" gradientUnits="userSpaceOnUse">
<stop stop-color="#2ED573"/>
<stop offset="0.3125" stop-color="#45AF0D"/>
<stop offset="0.375" stop-color="#43B214"/>
</linearGradient>
<linearGradient id="paint9_linear" x1="935.409" y1="777.211" x2="932.649" y2="574.159" gradientUnits="userSpaceOnUse">
<stop stop-color="#898E79"/>
<stop offset="1" stop-color="#A8AD9B"/>
</linearGradient>
<linearGradient id="paint10_linear" x1="885.057" y1="975.502" x2="900.251" y2="672.915" gradientUnits="userSpaceOnUse">
<stop stop-color="#898E79"/>
<stop offset="1" stop-color="#A8AD9B"/>
</linearGradient>
<linearGradient id="paint11_linear" x1="847.586" y1="359.058" x2="835.798" y2="168.265" gradientUnits="userSpaceOnUse">
<stop stop-color="#898E79"/>
<stop offset="1" stop-color="#A8AD9B"/>
</linearGradient>
<linearGradient id="paint12_linear" x1="867.492" y1="782.707" x2="839.961" y2="375.818" gradientUnits="userSpaceOnUse">
<stop stop-color="#898E79"/>
<stop offset="1" stop-color="#A8AD9B"/>
</linearGradient>
<linearGradient id="paint13_linear" x1="762.105" y1="975.502" x2="746.911" y2="672.915" gradientUnits="userSpaceOnUse">
<stop stop-color="#898E79"/>
<stop offset="1" stop-color="#A8AD9B"/>
</linearGradient>
<linearGradient id="paint14_linear" x1="1505.92" y1="233.154" x2="1514.46" y2="360.869" gradientUnits="userSpaceOnUse">
<stop stop-color="#8A9DA5"/>
<stop offset="1"/>
</linearGradient>
<linearGradient id="paint15_linear" x1="1680.52" y1="362.864" x2="1684.71" y2="467.038" gradientUnits="userSpaceOnUse">
<stop stop-color="#8A9DA5"/>
<stop offset="1"/>
</linearGradient>
<linearGradient id="paint16_linear" x1="1662.04" y1="649.302" x2="1696.93" y2="976.439" gradientUnits="userSpaceOnUse">
<stop stop-color="#8A9DA5"/>
<stop offset="1" stop-color="#74848A"/>
</linearGradient>
<linearGradient id="paint17_linear" x1="538.511" y1="390.018" x2="546.56" y2="470.718" gradientUnits="userSpaceOnUse">
<stop stop-color="#2F3542"/>
<stop offset="1" stop-color="#57606F"/>
</linearGradient>
<linearGradient id="paint18_linear" x1="538.03" y1="429.972" x2="543.876" y2="511.053" gradientUnits="userSpaceOnUse">
<stop offset="0.0833333" stop-color="#57606F"/>
<stop offset="1" stop-color="#2F3542"/>
</linearGradient>
<linearGradient id="paint19_linear" x1="379.975" y1="778.022" x2="388.509" y2="947.206" gradientUnits="userSpaceOnUse">
<stop stop-color="#8A9DA5"/>
<stop offset="1" stop-color="#74848A"/>
</linearGradient>
<linearGradient id="paint20_linear" x1="297.529" y1="162.583" x2="327.772" y2="359.643" gradientUnits="userSpaceOnUse">
<stop offset="0.166633" stop-color="#F1F2F6"/>
<stop offset="1" stop-color="#DFE4EA" stop-opacity="0"/>
</linearGradient>
<linearGradient id="paint21_linear" x1="296.949" y1="210.385" x2="343.423" y2="344.052" gradientUnits="userSpaceOnUse">
<stop offset="0.498115" stop-color="#DFE4EA"/>
<stop offset="1" stop-color="#F1F2F6" stop-opacity="0"/>
</linearGradient>
<linearGradient id="paint22_linear" x1="557.207" y1="938.593" x2="575.771" y2="842.198" gradientUnits="userSpaceOnUse">
<stop stop-color="#45AF0D"/>
<stop offset="1" stop-color="#FF6348"/>
</linearGradient>
<linearGradient id="paint23_linear" x1="574.955" y1="858.309" x2="613.753" y2="791.579" gradientUnits="userSpaceOnUse">
<stop stop-color="#45AF0D"/>
<stop offset="1" stop-color="#FF6348"/>
</linearGradient>
<linearGradient id="paint24_linear" x1="578.328" y1="744.869" x2="578.328" y2="850.151" gradientUnits="userSpaceOnUse">
<stop stop-color="#45AF0D"/>
<stop offset="1" stop-color="#FF6348"/>
</linearGradient>
<linearGradient id="paint25_linear" x1="1146.79" y1="919.094" x2="1132.69" y2="821.155" gradientUnits="userSpaceOnUse">
<stop stop-color="#45AF0D"/>
<stop offset="1" stop-color="#FF6348"/>
</linearGradient>
<linearGradient id="paint26_linear" x1="1123.06" y1="838.81" x2="1090.41" y2="763.715" gradientUnits="userSpaceOnUse">
<stop stop-color="#45AF0D"/>
<stop offset="1" stop-color="#FF6348"/>
</linearGradient>
<linearGradient id="paint27_linear" x1="1118.55" y1="725.37" x2="1118.55" y2="830.652" gradientUnits="userSpaceOnUse">
<stop stop-color="#45AF0D"/>
<stop offset="1" stop-color="#FF6348"/>
</linearGradient>
<linearGradient id="paint28_linear" x1="209.947" y1="933.749" x2="195.843" y2="835.81" gradientUnits="userSpaceOnUse">
<stop stop-color="#45AF0D"/>
<stop offset="1" stop-color="#FF6348"/>
</linearGradient>
<linearGradient id="paint29_linear" x1="186.212" y1="853.465" x2="153.565" y2="778.37" gradientUnits="userSpaceOnUse">
<stop stop-color="#45AF0D"/>
<stop offset="1" stop-color="#FF6348"/>
</linearGradient>
<linearGradient id="paint30_linear" x1="181.7" y1="740.025" x2="181.7" y2="845.307" gradientUnits="userSpaceOnUse">
<stop stop-color="#45AF0D"/>
<stop offset="1" stop-color="#FF6348"/>
</linearGradient>
<linearGradient id="paint31_linear" x1="1028.89" y1="901.843" x2="1019.78" y2="838.557" gradientUnits="userSpaceOnUse">
<stop stop-color="#45AF0D"/>
<stop offset="1" stop-color="#FF6348"/>
</linearGradient>
<linearGradient id="paint32_linear" x1="1013.56" y1="849.965" x2="992.461" y2="801.44" gradientUnits="userSpaceOnUse">
<stop stop-color="#45AF0D"/>
<stop offset="1" stop-color="#FF6348"/>
</linearGradient>
<linearGradient id="paint33_linear" x1="1010.64" y1="776.662" x2="1010.64" y2="844.693" gradientUnits="userSpaceOnUse">
<stop stop-color="#45AF0D"/>
<stop offset="1" stop-color="#FF6348"/>
</linearGradient>
<linearGradient id="paint34_linear" x1="16.6762" y1="577.15" x2="-0.901167" y2="691.684" gradientUnits="userSpaceOnUse">
<stop stop-color="white"/>
<stop offset="1" stop-color="white" stop-opacity="0"/>
</linearGradient>
<clipPath id="clip0">
<rect width="1920" height="990" fill="white"/>
</clipPath>
</defs>
</svg>
