<svg width="3452" height="1992" viewBox="0 0 3452 1992" fill="none" xmlns="http://www.w3.org/2000/svg">
<path d="M3195.6 1883.78C3159.52 1875.43 3107 1937 3107 1937H3257C3257 1937 3221.84 1889.85 3195.6 1883.78Z" fill="#2F3542" stroke="#2F3542"/>
<path d="M3304.87 1752.92C3291.32 1797.77 3261.35 1834.11 3234.74 1859.25C3221.43 1871.81 3208.97 1881.57 3199.84 1888.19C3195.28 1891.5 3191.55 1894.02 3188.96 1895.72C3187.66 1896.56 3186.65 1897.2 3185.97 1897.63C3185.73 1897.78 3185.53 1897.9 3185.37 1898C3185.29 1897.85 3185.2 1897.66 3185.08 1897.44C3184.73 1896.76 3184.22 1895.75 3183.58 1894.44C3182.3 1891.8 3180.49 1887.94 3178.41 1883.02C3174.25 1873.19 3168.99 1859.13 3164.57 1842.27C3155.73 1808.55 3150.29 1763.64 3163.83 1718.79C3177.37 1673.93 3207.34 1637.6 3233.96 1612.46C3247.26 1599.89 3259.72 1590.13 3268.85 1583.51C3273.42 1580.21 3277.15 1577.68 3279.74 1575.99C3281.03 1575.14 3282.04 1574.5 3282.73 1574.07C3282.97 1573.92 3283.16 1573.8 3283.32 1573.7C3283.4 1573.85 3283.5 1574.04 3283.61 1574.26C3283.96 1574.94 3284.48 1575.95 3285.12 1577.27C3286.4 1579.9 3288.2 1583.76 3290.28 1588.68C3294.44 1598.52 3299.71 1612.57 3304.13 1629.43C3312.97 1663.15 3318.41 1708.07 3304.87 1752.92Z" fill="#45AF0D" stroke="#2F3542"/>
<path d="M3080.34 1573.7C3080.5 1573.8 3080.69 1573.92 3080.93 1574.07C3081.62 1574.5 3082.63 1575.14 3083.92 1575.99C3086.51 1577.68 3090.24 1580.21 3094.81 1583.51C3103.94 1590.13 3116.4 1599.89 3129.7 1612.46C3156.32 1637.6 3186.29 1673.93 3199.83 1718.79C3213.37 1763.64 3207.93 1808.55 3199.09 1842.27C3194.68 1859.13 3189.41 1873.19 3185.25 1883.02C3183.17 1887.94 3181.37 1891.8 3180.08 1894.44C3179.44 1895.75 3178.93 1896.76 3178.58 1897.44C3178.46 1897.66 3178.37 1897.85 3178.29 1898C3178.27 1897.99 3178.26 1897.98 3178.25 1897.98C3178.1 1897.88 3177.91 1897.77 3177.69 1897.63C3177.01 1897.2 3176 1896.56 3174.7 1895.72C3172.11 1894.02 3168.38 1891.5 3163.82 1888.19C3154.69 1881.57 3142.23 1871.81 3128.92 1859.25C3102.31 1834.11 3072.34 1797.77 3058.8 1752.92C3045.25 1708.07 3050.69 1663.15 3059.53 1629.43C3063.95 1612.57 3069.22 1598.52 3073.38 1588.68C3075.46 1583.76 3077.26 1579.9 3078.54 1577.27C3079.19 1575.95 3079.7 1574.94 3080.05 1574.26C3080.16 1574.04 3080.26 1573.85 3080.34 1573.7Z" fill="#45AF0D" stroke="#2F3542"/>
<path d="M2912.56 1663.81C2912.74 1663.82 2912.97 1663.83 2913.24 1663.85C2914.07 1663.91 2915.31 1664 2916.9 1664.13C2920.1 1664.41 2924.74 1664.88 2930.55 1665.64C2942.17 1667.17 2958.45 1669.88 2977.04 1674.62C3014.25 1684.1 3060.72 1701.68 3097.89 1734.11C3135.06 1766.53 3155.92 1807.67 3167.49 1840.72C3173.28 1857.24 3176.74 1871.74 3178.75 1882.1C3179.76 1887.28 3180.41 1891.43 3180.8 1894.28C3181 1895.7 3181.13 1896.81 3181.21 1897.55C3181.24 1897.76 3181.26 1897.94 3181.27 1898.1C3181.09 1898.09 3180.86 1898.07 3180.59 1898.05C3179.76 1898 3178.52 1897.91 3176.93 1897.77C3173.74 1897.49 3169.09 1897.03 3163.28 1896.27C3151.66 1894.74 3135.38 1892.03 3116.79 1887.29C3079.58 1877.81 3033.11 1860.22 2995.94 1827.8C2958.77 1795.38 2937.91 1754.24 2926.34 1721.19C2920.55 1704.66 2917.09 1690.17 2915.08 1679.81C2914.07 1674.62 2913.43 1670.48 2913.03 1667.63C2912.84 1666.2 2912.7 1665.1 2912.62 1664.36C2912.59 1664.14 2912.57 1663.96 2912.56 1663.81Z" fill="#45AF0D" stroke="#2F3542"/>
<path d="M3451.11 1663.81C3451.09 1663.96 3451.07 1664.14 3451.04 1664.36C3450.96 1665.1 3450.83 1666.2 3450.63 1667.63C3450.24 1670.48 3449.59 1674.62 3448.58 1679.81C3446.57 1690.17 3443.11 1704.66 3437.32 1721.19C3425.75 1754.24 3404.89 1795.38 3367.72 1827.8C3330.55 1860.22 3284.08 1877.81 3246.87 1887.29C3228.28 1892.03 3212.01 1894.74 3200.38 1896.27C3194.57 1897.03 3189.93 1897.49 3186.73 1897.77C3185.14 1897.91 3183.9 1898 3183.07 1898.05C3182.8 1898.07 3182.57 1898.09 3182.39 1898.1C3182.4 1897.94 3182.42 1897.76 3182.45 1897.55C3182.53 1896.81 3182.67 1895.7 3182.86 1894.28C3183.26 1891.43 3183.9 1887.28 3184.91 1882.1C3186.92 1871.74 3190.38 1857.24 3196.17 1840.72C3207.74 1807.67 3228.6 1766.53 3265.77 1734.11C3302.94 1701.68 3349.41 1684.1 3386.62 1674.62C3405.22 1669.88 3421.49 1667.17 3433.11 1665.64C3438.92 1664.88 3443.57 1664.41 3446.76 1664.13C3448.36 1664 3449.59 1663.91 3450.42 1663.85C3450.69 1663.83 3450.92 1663.82 3451.11 1663.81Z" fill="#45AF0D" stroke="#2F3542"/>
<path d="M3312.49 1478.98L2563.79 1963.48C2554.56 1969.46 2543.85 1958.32 2550.18 1949.33L2709.5 1723L2809 1571L2879.5 1467L2902.53 1424.04C2904.35 1420.65 2907.93 1418.61 2911.78 1418.76C2940.11 1419.89 3056.41 1424.09 3094.5 1418.5C3129.13 1413.42 3258.52 1447.17 3309.84 1461.14C3318.13 1463.4 3319.7 1474.31 3312.49 1478.98Z" fill="#2F3542" fill-opacity="0.55" stroke="#2F3542" stroke-opacity="0.55"/>
<path d="M3233.92 821.115L1888.05 1011.01C1885.29 1011.4 1882.81 1012.93 1881.23 1015.23L1345.89 1789.05C1341.5 1795.39 1345.64 1804.1 1353.33 1804.7L2531.14 1897.54C2534.76 1897.82 2538.24 1896.13 2540.25 1893.11L3243.64 836.559C3248.43 829.373 3242.47 819.909 3233.92 821.115Z" fill="#F1F2F6" stroke="#2F3542" stroke-width="7"/>
<path d="M3172.95 877.701C3176.69 871.95 3171.93 864.473 3165.14 865.42L2938.43 897.022C2936.24 897.327 2934.28 898.523 2933 900.326L2278.61 1825.54C2275.03 1830.6 2278.31 1837.63 2284.49 1838.13L2531.24 1858.11C2534.17 1858.35 2537 1856.96 2538.6 1854.5L3172.95 877.701Z" fill="#2F3542"/>
<path d="M1343.5 1849.5V1800.5L2534.17 1894.34C2538.99 1894.72 2542.85 1898.5 2543.33 1903.32L2549 1960L1343.5 1849.5Z" fill="#F1F2F6" stroke="#2F3542" stroke-width="7"/>
<path d="M2919.79 910.388C2923.77 904.781 2919.29 897.098 2912.45 897.799L2636.16 926.125C2633.84 926.363 2631.73 927.605 2630.4 929.525L2024.49 1803.48C2020.96 1808.57 2024.31 1815.57 2030.49 1816.01L2260.51 1832.67C2263.3 1832.88 2265.99 1831.61 2267.61 1829.33L2919.79 910.388Z" fill="#2F3542"/>
<path d="M2619.26 940.237C2623.31 934.491 2618.51 926.69 2611.56 927.713L2347.98 966.487C2345.76 966.814 2343.78 968.058 2342.53 969.916L1794.1 1779.78C1790.68 1784.82 1793.93 1791.68 1799.99 1792.23L2000.9 1810.58C2003.74 1810.84 2006.52 1809.56 2008.16 1807.22L2619.26 940.237Z" fill="#2F3542"/>
<path d="M2085.45 1017.52C2089.31 1011.75 2084.49 1004.14 2077.62 1005.16L1887.41 1033.49C1885.23 1033.82 1883.29 1035.02 1882.03 1036.83L1384.07 1749.95C1380.51 1755.04 1383.86 1762.06 1390.05 1762.51L1573.36 1775.67C1576.23 1775.87 1578.99 1774.53 1580.59 1772.14L2085.45 1017.52Z" fill="#2F3542"/>
<path d="M2329.69 982.163C2333.62 976.388 2328.78 968.706 2321.87 969.756L2109.96 1001.97C2107.75 1002.31 2105.79 1003.55 2104.54 1005.4L1591.35 1762.91C1587.88 1768.03 1591.3 1774.99 1597.48 1775.38L1777.95 1786.71C1780.77 1786.89 1783.48 1785.57 1785.06 1783.23L2329.69 982.163Z" fill="#2F3542"/>
<path d="M2539 1950.56V1897.94C2539 1896.02 2539.55 1894.14 2540.59 1892.53L3227.19 825.906C3231.1 819.83 3239.97 819.781 3243.95 825.814L3261.91 853.055C3264.09 856.364 3264.11 860.65 3261.96 863.981L2557.4 1955.98C2552 1964.36 2539 1960.53 2539 1950.56Z" fill="#F1F2F6" stroke="#2F3542" stroke-width="7"/>
<path d="M3047.47 954.451L3070.72 940.743L3075.63 907.649L3052.38 921.356L3047.47 954.451Z" fill="#F1F2F6"/>
<path d="M2989.78 1046.32L3014.01 1034.42L3021.42 1001.79L2997.19 1013.69L2989.78 1046.32Z" fill="#F1F2F6"/>
<path d="M2916.81 1048.85L2941.03 1036.95L2948.44 1004.32L2924.22 1016.22L2916.81 1048.85Z" fill="#F1F2F6"/>
<path d="M2855.81 1051.85L2880.03 1039.95L2887.44 1007.32L2863.22 1019.22L2855.81 1051.85Z" fill="#F1F2F6"/>
<path d="M2941.07 1129.25L2962.21 1116.07L2965.9 1085.4L2944.76 1098.58L2941.07 1129.25Z" fill="#F1F2F6"/>
<path d="M2890.07 1221.25L2911.21 1208.07L2914.9 1177.4L2893.76 1190.58L2890.07 1221.25Z" fill="#F1F2F6"/>
<path d="M2835.07 1305.25L2856.21 1292.07L2859.9 1261.4L2838.76 1274.58L2835.07 1305.25Z" fill="#F1F2F6"/>
<path d="M2780.07 1389.25L2801.21 1376.07L2804.9 1345.4L2783.76 1358.58L2780.07 1389.25Z" fill="#F1F2F6"/>
<path d="M2707.07 1500.25L2728.21 1487.07L2731.9 1456.4L2710.76 1469.58L2707.07 1500.25Z" fill="#F1F2F6"/>
<path d="M2655.07 1585.25L2676.21 1572.07L2679.9 1541.4L2658.76 1554.58L2655.07 1585.25Z" fill="#F1F2F6"/>
<path d="M2592.07 1685.25L2613.21 1672.07L2616.9 1641.4L2595.76 1654.58L2592.07 1685.25Z" fill="#F1F2F6"/>
<path d="M2529.07 1785.25L2550.21 1772.07L2553.9 1741.4L2532.76 1754.58L2529.07 1785.25Z" fill="#F1F2F6"/>
<path d="M2867.07 1136.25L2888.21 1123.07L2891.9 1092.4L2870.76 1105.58L2867.07 1136.25Z" fill="#F1F2F6"/>
<path d="M2800.07 1132.25L2821.21 1119.07L2824.9 1088.4L2803.76 1101.58L2800.07 1132.25Z" fill="#F1F2F6"/>
<path d="M2735.13 1223.03L2757.38 1211.83L2763.84 1181.62L2741.59 1192.82L2735.13 1223.03Z" fill="#F1F2F6"/>
<path d="M2673.39 1316.86L2695.65 1305.66L2702.11 1275.45L2679.86 1286.65L2673.39 1316.86Z" fill="#F1F2F6"/>
<path d="M2623.39 1399.71L2645.65 1388.51L2652.11 1358.3L2629.86 1369.5L2623.39 1399.71Z" fill="#F1F2F6"/>
<path d="M2549.93 1504.52L2572.19 1493.32L2578.65 1463.11L2556.4 1474.31L2549.93 1504.52Z" fill="#F1F2F6"/>
<path d="M2493.39 1583.71L2515.65 1572.51L2522.11 1542.3L2499.86 1553.5L2493.39 1583.71Z" fill="#F1F2F6"/>
<path d="M2426.47 1692.18L2448.73 1680.98L2455.19 1650.77L2432.94 1661.98L2426.47 1692.18Z" fill="#F1F2F6"/>
<path d="M2357.39 1783.71L2379.65 1772.51L2386.11 1742.3L2363.86 1753.5L2357.39 1783.71Z" fill="#F1F2F6"/>
<path d="M2808.39 1222.71L2830.65 1211.51L2837.11 1181.3L2814.86 1192.5L2808.39 1222.71Z" fill="#F1F2F6"/>
<path d="M2758.39 1302.71L2780.65 1291.51L2787.11 1261.3L2764.86 1272.5L2758.39 1302.71Z" fill="#F1F2F6"/>
<path d="M2708.39 1382.71L2730.65 1371.51L2737.11 1341.3L2714.86 1352.5L2708.39 1382.71Z" fill="#F1F2F6"/>
<path d="M2630.39 1499.71L2652.65 1488.51L2659.11 1458.3L2636.86 1469.5L2630.39 1499.71Z" fill="#F1F2F6"/>
<path d="M2578.39 1589.71L2600.65 1578.51L2607.11 1548.3L2584.86 1559.5L2578.39 1589.71Z" fill="#F1F2F6"/>
<path d="M2526.39 1679.71L2548.65 1668.51L2555.11 1638.3L2532.86 1649.5L2526.39 1679.71Z" fill="#F1F2F6"/>
<path d="M2450.39 1775.71L2472.65 1764.51L2479.11 1734.3L2456.86 1745.5L2450.39 1775.71Z" fill="#F1F2F6"/>
<path d="M2981.43 954.326L3004.67 940.618L3009.58 907.524L2986.33 921.232L2981.43 954.326Z" fill="#F1F2F6"/>
<path d="M2813.43 975.326L2836.67 961.618L2841.58 928.524L2818.33 942.232L2813.43 975.326Z" fill="#F1F2F6"/>
<path d="M2759.43 1053.33L2782.67 1039.62L2787.58 1006.52L2764.33 1020.23L2759.43 1053.33Z" fill="#F1F2F6"/>
<path d="M2705.43 1131.33L2728.67 1117.62L2733.58 1084.52L2710.33 1098.23L2705.43 1131.33Z" fill="#F1F2F6"/>
<path d="M2641.43 1215.33L2664.67 1201.62L2669.58 1168.52L2646.33 1182.23L2641.43 1215.33Z" fill="#F1F2F6"/>
<path d="M2586.43 1297.33L2609.67 1283.62L2614.58 1250.52L2591.33 1264.23L2586.43 1297.33Z" fill="#F1F2F6"/>
<path d="M2533.43 1371.33L2556.67 1357.62L2561.58 1324.52L2538.33 1338.23L2533.43 1371.33Z" fill="#F1F2F6"/>
<path d="M2464.43 1466.33L2487.67 1452.62L2492.58 1419.52L2469.33 1433.23L2464.43 1466.33Z" fill="#F1F2F6"/>
<path d="M2393.43 1566.33L2416.67 1552.62L2421.58 1519.52L2398.33 1533.23L2393.43 1566.33Z" fill="#F1F2F6"/>
<path d="M2324.43 1672.33L2347.67 1658.62L2352.58 1625.52L2329.33 1639.23L2324.43 1672.33Z" fill="#F1F2F6"/>
<path d="M2257.43 1771.33L2280.67 1757.62L2285.58 1724.52L2262.33 1738.23L2257.43 1771.33Z" fill="#F1F2F6"/>
<path d="M2710.43 990.326L2733.67 976.618L2738.58 943.524L2715.33 957.232L2710.43 990.326Z" fill="#F1F2F6"/>
<path d="M2671.43 1053.33L2694.67 1039.62L2699.58 1006.52L2676.33 1020.23L2671.43 1053.33Z" fill="#F1F2F6"/>
<path d="M2619.43 1127.33L2642.67 1113.62L2647.58 1080.52L2624.33 1094.23L2619.43 1127.33Z" fill="#F1F2F6"/>
<path d="M2549.43 1225.33L2572.67 1211.62L2577.58 1178.52L2554.33 1192.23L2549.43 1225.33Z" fill="#F1F2F6"/>
<path d="M2495.43 1300.33L2518.67 1286.62L2523.58 1253.52L2500.33 1267.23L2495.43 1300.33Z" fill="#F1F2F6"/>
<path d="M2451.43 1375.33L2474.67 1361.62L2479.58 1328.52L2456.33 1342.23L2451.43 1375.33Z" fill="#F1F2F6"/>
<path d="M2384.43 1475.33L2407.67 1461.62L2412.58 1428.52L2389.33 1442.23L2384.43 1475.33Z" fill="#F1F2F6"/>
<path d="M2317.43 1575.33L2340.67 1561.62L2345.58 1528.52L2322.33 1542.23L2317.43 1575.33Z" fill="#F1F2F6"/>
<path d="M2250.43 1675.33L2273.67 1661.62L2278.58 1628.52L2255.33 1642.23L2250.43 1675.33Z" fill="#F1F2F6"/>
<path d="M2182.43 1767.33L2205.67 1753.62L2210.58 1720.52L2187.33 1734.23L2182.43 1767.33Z" fill="#F1F2F6"/>
<path d="M2636.43 990.326L2659.67 976.618L2664.58 943.524L2641.33 957.232L2636.43 990.326Z" fill="#F1F2F6"/>
<path d="M2586.43 1061.33L2609.67 1047.62L2614.58 1014.52L2591.33 1028.23L2586.43 1061.33Z" fill="#F1F2F6"/>
<path d="M2536.43 1132.33L2559.67 1118.62L2564.58 1085.52L2541.33 1099.23L2536.43 1132.33Z" fill="#F1F2F6"/>
<path d="M2473.43 1228.33L2496.67 1214.62L2501.58 1181.52L2478.33 1195.23L2473.43 1228.33Z" fill="#F1F2F6"/>
<path d="M2423.43 1302.33L2446.67 1288.62L2451.58 1255.52L2428.33 1269.23L2423.43 1302.33Z" fill="#F1F2F6"/>
<path d="M2373.43 1376.33L2396.67 1362.62L2401.58 1329.52L2378.33 1343.23L2373.43 1376.33Z" fill="#F1F2F6"/>
<path d="M2295.43 1477.33L2318.67 1463.62L2323.58 1430.52L2300.33 1444.23L2295.43 1477.33Z" fill="#F1F2F6"/>
<path d="M2235.43 1571.33L2258.67 1557.62L2263.58 1524.52L2240.33 1538.23L2235.43 1571.33Z" fill="#F1F2F6"/>
<path d="M2161.43 1677.33L2184.67 1663.62L2189.58 1630.52L2166.33 1644.23L2161.43 1677.33Z" fill="#F1F2F6"/>
<path d="M2102.43 1762.33L2125.67 1748.62L2130.58 1715.52L2107.33 1729.23L2102.43 1762.33Z" fill="#F1F2F6"/>
<path d="M2491.43 1029.33L2514.67 1015.62L2519.58 982.524L2496.33 996.232L2491.43 1029.33Z" fill="#F1F2F6"/>
<path d="M2418.43 1028.33L2441.67 1014.62L2446.58 981.524L2423.33 995.232L2418.43 1028.33Z" fill="#F1F2F6"/>
<path d="M2353.43 1031.33L2376.67 1017.62L2381.58 984.524L2358.33 998.232L2353.43 1031.33Z" fill="#F1F2F6"/>
<path d="M2243.43 1042.33L2266.67 1028.62L2271.58 995.524L2248.33 1009.23L2243.43 1042.33Z" fill="#F1F2F6"/>
<path d="M2169.43 1045.33L2192.67 1031.62L2197.58 998.524L2174.33 1012.23L2169.43 1045.33Z" fill="#F1F2F6"/>
<path d="M2112.43 1048.33L2135.67 1034.62L2140.58 1001.52L2117.33 1015.23L2112.43 1048.33Z" fill="#F1F2F6"/>
<path d="M2068.43 1112.33L2091.67 1098.62L2096.58 1065.52L2073.33 1079.23L2068.43 1112.33Z" fill="#F1F2F6"/>
<path d="M2037.43 1162.33L2060.67 1148.62L2065.58 1115.52L2042.33 1129.23L2037.43 1162.33Z" fill="#F1F2F6"/>
<path d="M1980.43 1250.33L2003.67 1236.62L2008.58 1203.52L1985.33 1217.23L1980.43 1250.33Z" fill="#F1F2F6"/>
<path d="M1937.43 1314.33L1960.67 1300.62L1965.58 1267.52L1942.33 1281.23L1937.43 1314.33Z" fill="#F1F2F6"/>
<path d="M1899.43 1378.33L1922.67 1364.62L1927.58 1331.52L1904.33 1345.23L1899.43 1378.33Z" fill="#F1F2F6"/>
<path d="M1842.43 1453.33L1865.67 1439.62L1870.58 1406.52L1847.33 1420.23L1842.43 1453.33Z" fill="#F1F2F6"/>
<path d="M1784.43 1551.33L1807.67 1537.62L1812.58 1504.52L1789.33 1518.23L1784.43 1551.33Z" fill="#F1F2F6"/>
<path d="M1735.43 1626.33L1758.67 1612.62L1763.58 1579.52L1740.33 1593.23L1735.43 1626.33Z" fill="#F1F2F6"/>
<path d="M1669.43 1721.33L1692.67 1707.62L1697.58 1674.52L1674.33 1688.23L1669.43 1721.33Z" fill="#F1F2F6"/>
<path d="M1723.43 1721.33L1746.67 1707.62L1751.58 1674.52L1728.33 1688.23L1723.43 1721.33Z" fill="#F1F2F6"/>
<path d="M1795.43 1721.33L1818.67 1707.62L1823.58 1674.52L1800.33 1688.23L1795.43 1721.33Z" fill="#F1F2F6"/>
<path d="M1861.43 1615.33L1884.67 1601.62L1889.58 1568.52L1866.33 1582.23L1861.43 1615.33Z" fill="#F1F2F6"/>
<path d="M1914.43 1541.33L1937.67 1527.62L1942.58 1494.52L1919.33 1508.23L1914.43 1541.33Z" fill="#F1F2F6"/>
<path d="M1962.43 1466.33L1985.67 1452.62L1990.58 1419.52L1967.33 1433.23L1962.43 1466.33Z" fill="#F1F2F6"/>
<path d="M2010.43 1391.33L2033.67 1377.62L2038.58 1344.52L2015.33 1358.23L2010.43 1391.33Z" fill="#F1F2F6"/>
<path d="M2058.43 1316.33L2081.67 1302.62L2086.58 1269.52L2063.33 1283.23L2058.43 1316.33Z" fill="#F1F2F6"/>
<path d="M2110.43 1243.33L2133.67 1229.62L2138.58 1196.52L2115.33 1210.23L2110.43 1243.33Z" fill="#F1F2F6"/>
<path d="M2162.43 1170.33L2185.67 1156.62L2190.58 1123.52L2167.33 1137.23L2162.43 1170.33Z" fill="#F1F2F6"/>
<path d="M2214.43 1097.33L2237.67 1083.62L2242.58 1050.52L2219.33 1064.23L2214.43 1097.33Z" fill="#F1F2F6"/>
<path d="M2128.43 1109.33L2151.67 1095.62L2156.58 1062.52L2133.33 1076.23L2128.43 1109.33Z" fill="#F1F2F6"/>
<path d="M2087.43 1172.33L2110.67 1158.62L2115.58 1125.52L2092.33 1139.23L2087.43 1172.33Z" fill="#F1F2F6"/>
<path d="M2044.43 1241.33L2067.67 1227.62L2072.58 1194.52L2049.33 1208.23L2044.43 1241.33Z" fill="#F1F2F6"/>
<path d="M1991.43 1318.33L2014.67 1304.62L2019.58 1271.52L1996.33 1285.23L1991.43 1318.33Z" fill="#F1F2F6"/>
<path d="M1950.43 1385.33L1973.67 1371.62L1978.58 1338.52L1955.33 1352.23L1950.43 1385.33Z" fill="#F1F2F6"/>
<path d="M1896.43 1457.33L1919.67 1443.62L1924.58 1410.52L1901.33 1424.23L1896.43 1457.33Z" fill="#F1F2F6"/>
<path d="M1842.43 1537.33L1865.67 1523.62L1870.58 1490.52L1847.33 1504.23L1842.43 1537.33Z" fill="#F1F2F6"/>
<path d="M1788.43 1617.33L1811.67 1603.62L1816.58 1570.52L1793.33 1584.23L1788.43 1617.33Z" fill="#F1F2F6"/>
<path d="M2023.66 1046.46L2042.79 1041.18L2043.58 1016.52L2024.45 1021.81L2023.66 1046.46Z" fill="#F1F2F6"/>
<path d="M1938.89 1061.19L1959.91 1052.04L1962.58 1023.52L1941.56 1032.66L1938.89 1061.19Z" fill="#F1F2F6"/>
<path d="M1894.43 1063.62L1915.31 1054.76L1917.85 1026.52L1896.96 1035.38L1894.43 1063.62Z" fill="#F1F2F6"/>
<path d="M1859.43 1115.33L1882.67 1101.62L1887.58 1068.52L1864.33 1082.23L1859.43 1115.33Z" fill="#F1F2F6"/>
<path d="M1820.43 1171.33L1843.67 1157.62L1848.58 1124.52L1825.33 1138.23L1820.43 1171.33Z" fill="#F1F2F6"/>
<path d="M1772.43 1248.33L1795.67 1234.62L1800.58 1201.52L1777.33 1215.23L1772.43 1248.33Z" fill="#F1F2F6"/>
<path d="M1727.43 1315.33L1750.67 1301.62L1755.58 1268.52L1732.33 1282.23L1727.43 1315.33Z" fill="#F1F2F6"/>
<path d="M1682.43 1382.33L1705.67 1368.62L1710.58 1335.52L1687.33 1349.23L1682.43 1382.33Z" fill="#F1F2F6"/>
<path d="M1620.43 1461.33L1643.67 1447.62L1648.58 1414.52L1625.33 1428.23L1620.43 1461.33Z" fill="#F1F2F6"/>
<path d="M1568.43 1541.33L1591.67 1527.62L1596.58 1494.52L1573.33 1508.23L1568.43 1541.33Z" fill="#F1F2F6"/>
<path d="M1516.43 1615.33L1539.67 1601.62L1544.58 1568.52L1521.33 1582.23L1516.43 1615.33Z" fill="#F1F2F6"/>
<path d="M1452.43 1711.33L1475.67 1697.62L1480.58 1664.52L1457.33 1678.23L1452.43 1711.33Z" fill="#F1F2F6"/>
<path d="M1520.43 1709.33L1543.67 1695.62L1548.58 1662.52L1525.33 1676.23L1520.43 1709.33Z" fill="#F1F2F6"/>
<path d="M1588.43 1707.33L1611.67 1693.62L1616.58 1660.52L1593.33 1674.23L1588.43 1707.33Z" fill="#F1F2F6"/>
<path d="M1646.43 1622.33L1669.67 1608.62L1674.58 1575.52L1651.33 1589.23L1646.43 1622.33Z" fill="#F1F2F6"/>
<path d="M1704.43 1537.33L1727.67 1523.62L1732.58 1490.52L1709.33 1504.23L1704.43 1537.33Z" fill="#F1F2F6"/>
<path d="M1750.43 1461.33L1773.67 1447.62L1778.58 1414.52L1755.33 1428.23L1750.43 1461.33Z" fill="#F1F2F6"/>
<path d="M1801.43 1385.33L1824.67 1371.62L1829.58 1338.52L1806.33 1352.23L1801.43 1385.33Z" fill="#F1F2F6"/>
<path d="M1852.43 1309.33L1875.67 1295.62L1880.58 1262.52L1857.33 1276.23L1852.43 1309.33Z" fill="#F1F2F6"/>
<path d="M1903.43 1233.33L1926.67 1219.62L1931.58 1186.52L1908.33 1200.23L1903.43 1233.33Z" fill="#F1F2F6"/>
<path d="M1942.43 1172.33L1965.67 1158.62L1970.58 1125.52L1947.33 1139.23L1942.43 1172.33Z" fill="#F1F2F6"/>
<path d="M1985.43 1107.5L2005.55 1100.2L2007.32 1073.52L1987.2 1080.82L1985.43 1107.5Z" fill="#F1F2F6"/>
<path d="M1909.43 1107.5L1929.55 1100.2L1931.32 1073.52L1911.2 1080.82L1909.43 1107.5Z" fill="#F1F2F6"/>
<path d="M1875.43 1161.5L1895.55 1154.2L1897.32 1127.52L1877.2 1134.82L1875.43 1161.5Z" fill="#F1F2F6"/>
<path d="M1832.43 1234.5L1852.55 1227.2L1854.32 1200.52L1834.2 1207.82L1832.43 1234.5Z" fill="#F1F2F6"/>
<path d="M1783.43 1307.5L1803.55 1300.2L1805.32 1273.52L1785.2 1280.82L1783.43 1307.5Z" fill="#F1F2F6"/>
<path d="M1734.43 1380.5L1754.55 1373.2L1756.32 1346.52L1736.2 1353.82L1734.43 1380.5Z" fill="#F1F2F6"/>
<path d="M1685.43 1453.5L1705.55 1446.2L1707.32 1419.52L1687.2 1426.82L1685.43 1453.5Z" fill="#F1F2F6"/>
<path d="M1635.43 1531.5L1655.55 1524.2L1657.32 1497.52L1637.2 1504.82L1635.43 1531.5Z" fill="#F1F2F6"/>
<path d="M1585.43 1609.5L1605.55 1602.2L1607.32 1575.52L1587.2 1582.82L1585.43 1609.5Z" fill="#F1F2F6"/>
<path d="M2309.43 1092.33L2332.67 1078.62L2337.58 1045.52L2314.33 1059.23L2309.43 1092.33Z" fill="#F1F2F6"/>
<path d="M2261.43 1167.33L2284.67 1153.62L2289.58 1120.52L2266.33 1134.23L2261.43 1167.33Z" fill="#F1F2F6"/>
<path d="M2207.43 1250.33L2230.67 1236.62L2235.58 1203.52L2212.33 1217.23L2207.43 1250.33Z" fill="#F1F2F6"/>
<path d="M2148.43 1328.33L2171.67 1314.62L2176.58 1281.52L2153.33 1295.23L2148.43 1328.33Z" fill="#F1F2F6"/>
<path d="M2098.43 1402.33L2121.67 1388.62L2126.58 1355.52L2103.33 1369.23L2098.43 1402.33Z" fill="#F1F2F6"/>
<path d="M2055.43 1466.33L2078.67 1452.62L2083.58 1419.52L2060.33 1433.23L2055.43 1466.33Z" fill="#F1F2F6"/>
<path d="M1996.43 1550.33L2019.67 1536.62L2024.58 1503.52L2001.33 1517.23L1996.43 1550.33Z" fill="#F1F2F6"/>
<path d="M1936.43 1640.33L1959.67 1626.62L1964.58 1593.52L1941.33 1607.23L1936.43 1640.33Z" fill="#F1F2F6"/>
<path d="M1851.43 1762.33L1874.67 1748.62L1879.58 1715.52L1856.33 1729.23L1851.43 1762.33Z" fill="#F1F2F6"/>
<path d="M1912.43 1761.33L1935.67 1747.62L1940.58 1714.52L1917.33 1728.23L1912.43 1761.33Z" fill="#F1F2F6"/>
<path d="M2004.43 1634.33L2027.67 1620.62L2032.58 1587.52L2009.33 1601.23L2004.43 1634.33Z" fill="#F1F2F6"/>
<path d="M2067.43 1545.33L2090.67 1531.62L2095.58 1498.52L2072.33 1512.23L2067.43 1545.33Z" fill="#F1F2F6"/>
<path d="M2119.43 1466.33L2142.67 1452.62L2147.58 1419.52L2124.33 1433.23L2119.43 1466.33Z" fill="#F1F2F6"/>
<path d="M2170.43 1388.33L2193.67 1374.62L2198.58 1341.52L2175.33 1355.23L2170.43 1388.33Z" fill="#F1F2F6"/>
<path d="M2218.43 1318.33L2241.67 1304.62L2246.58 1271.52L2223.33 1285.23L2218.43 1318.33Z" fill="#F1F2F6"/>
<path d="M2266.43 1248.33L2289.67 1234.62L2294.58 1201.52L2271.33 1215.23L2266.43 1248.33Z" fill="#F1F2F6"/>
<path d="M2318.43 1172.33L2341.67 1158.62L2346.58 1125.52L2323.33 1139.23L2318.43 1172.33Z" fill="#F1F2F6"/>
<path d="M2372.43 1088.33L2395.67 1074.62L2400.58 1041.52L2377.33 1055.23L2372.43 1088.33Z" fill="#F1F2F6"/>
<path d="M2440.43 1103.33L2463.67 1089.62L2468.58 1056.52L2445.33 1070.23L2440.43 1103.33Z" fill="#F1F2F6"/>
<path d="M2392.43 1172.33L2415.67 1158.62L2420.58 1125.52L2397.33 1139.23L2392.43 1172.33Z" fill="#F1F2F6"/>
<path d="M2344.43 1241.33L2367.67 1227.62L2372.58 1194.52L2349.33 1208.23L2344.43 1241.33Z" fill="#F1F2F6"/>
<path d="M2239.43 1393.33L2262.67 1379.62L2267.58 1346.52L2244.33 1360.23L2239.43 1393.33Z" fill="#F1F2F6"/>
<path d="M2282.43 1332.33L2305.67 1318.62L2310.58 1285.52L2287.33 1299.23L2282.43 1332.33Z" fill="#F1F2F6"/>
<path d="M2195.43 1458.33L2218.67 1444.62L2223.58 1411.52L2200.33 1425.23L2195.43 1458.33Z" fill="#F1F2F6"/>
<path d="M2130.43 1552.33L2153.67 1538.62L2158.58 1505.52L2135.33 1519.23L2130.43 1552.33Z" fill="#F1F2F6"/>
<path d="M2065.43 1646.33L2088.67 1632.62L2093.58 1599.52L2070.33 1613.23L2065.43 1646.33Z" fill="#F1F2F6"/>
<path d="M1979.43 1759.33L2002.67 1745.62L2007.58 1712.52L1984.33 1726.23L1979.43 1759.33Z" fill="#F1F2F6"/>
<path d="M2919.43 954.326L2942.67 940.618L2947.58 907.524L2924.33 921.232L2919.43 954.326Z" fill="#F1F2F6"/>
<path d="M2900.5 950.5L3142.5 927.5" stroke="#F1F2F6"/>
<path d="M2425.5 887.5L2667.5 864.5" stroke="#F1F2F6"/>
<path d="M2607.5 971.5L2877 956" stroke="#F1F2F6"/>
<path d="M2049 1086H2254.5" stroke="#F1F2F6"/>
<path d="M2840 1036L3082 1013" stroke="#F1F2F6"/>
<path d="M2311 1013H2539" stroke="#F1F2F6"/>
<path d="M2559.5 1035L2828 1024" stroke="#F1F2F6"/>
<path d="M2093 1024L2286.5 1018" stroke="#F1F2F6"/>
<path d="M2779.5 1121.5L3021.5 1098.5" stroke="#F1F2F6"/>
<path d="M2273 1071H2488.5" stroke="#F1F2F6"/>
<path d="M2507.5 1110H2769" stroke="#F1F2F6"/>
<path d="M2013 1144H2196" stroke="#F1F2F6"/>
<path d="M1806.5 1144H1989.5" stroke="#F1F2F6"/>
<path d="M1844.5 1086H2035.5" stroke="#F1F2F6"/>
<path d="M1877.5 1047L2060.5 1034" stroke="#F1F2F6"/>
<path d="M2719 1207L2967.5 1191.5" stroke="#F1F2F6"/>
<path d="M2237 1144H2446.5" stroke="#F1F2F6"/>
<path d="M2441.5 1199H2712.5" stroke="#F1F2F6"/>
<path d="M1962 1219H2143" stroke="#F1F2F6"/>
<path d="M1751.5 1219H1936" stroke="#F1F2F6"/>
<path d="M2658.5 1292.5L2911.5 1274" stroke="#F1F2F6"/>
<path d="M2190 1219L2398.5 1214" stroke="#F1F2F6"/>
<path d="M2387 1280H2659" stroke="#F1F2F6"/>
<path d="M1912.5 1292H2100" stroke="#F1F2F6"/>
<path d="M1703 1292H1886" stroke="#F1F2F6"/>
<path d="M2598 1378L2862 1357" stroke="#F1F2F6"/>
<path d="M2127 1305H2334.5" stroke="#F1F2F6"/>
<path d="M2082 1374H2289.5" stroke="#F1F2F6"/>
<path d="M2336 1358H2595.5" stroke="#F1F2F6"/>
<path d="M1870 1360H2067.5" stroke="#F1F2F6"/>
<path d="M1659 1361H1833.5" stroke="#F1F2F6"/>
<path d="M2539.5 1473H2778" stroke="#F1F2F6"/>
<path d="M2045 1437H2258.5" stroke="#F1F2F6"/>
<path d="M2265.5 1455H2531" stroke="#F1F2F6"/>
<path d="M1826 1437H2003" stroke="#F1F2F6"/>
<path d="M1609 1437H1797" stroke="#F1F2F6"/>
<path d="M2473 1565.5H2720" stroke="#F1F2F6"/>
<path d="M1976 1524H2183" stroke="#F1F2F6"/>
<path d="M2197.5 1553H2457" stroke="#F1F2F6"/>
<path d="M1746 1524H1951" stroke="#F1F2F6"/>
<path d="M1567 1515H1734" stroke="#F1F2F6"/>
<path d="M2390 1674L2662.5 1661" stroke="#F1F2F6"/>
<path d="M1923 1614H2141" stroke="#F1F2F6"/>
<path d="M2128.5 1654H2387" stroke="#F1F2F6"/>
<path d="M1710 1595H1912" stroke="#F1F2F6"/>
<path d="M1503 1595H1683.5" stroke="#F1F2F6"/>
<path d="M2329 1762L2596.5 1754.5" stroke="#F1F2F6"/>
<path d="M1844 1737H2073.5" stroke="#F1F2F6"/>
<path d="M2073 1738L2320 1747" stroke="#F1F2F6"/>
<path d="M1661 1693L1830.5 1699" stroke="#F1F2F6"/>
<path d="M1448 1685L1631 1693" stroke="#F1F2F6"/>
<path d="M2319 1841L2961 895" stroke="#F1F2F6"/>
<path d="M1830 1790.5L2403.5 955.5" stroke="#F1F2F6"/>
<path d="M2064 1812L2681 924" stroke="#F1F2F6"/>
<path d="M1636 1776.5L2143.5 1002" stroke="#F1F2F6"/>
<path d="M1415.5 1761L1914 1037" stroke="#F1F2F6"/>
<path d="M2408 1847L3025 884.5" stroke="#F1F2F6"/>
<path d="M2408 1847L3025 884.5" stroke="#F1F2F6"/>
<path d="M1891 1796.5L2466.5 951.5" stroke="#F1F2F6"/>
<path d="M2139 1829L2762.5 912.5" stroke="#F1F2F6"/>
<path d="M1686 1776L2208 987" stroke="#F1F2F6"/>
<path d="M1488 1766.5L1965 1022" stroke="#F1F2F6"/>
<path d="M2486 1849.5L3095 879" stroke="#F1F2F6"/>
<path d="M2486 1849.5L3095 879" stroke="#F1F2F6"/>
<path d="M1952.5 1803.5L2551 939.5" stroke="#F1F2F6"/>
<path d="M2211 1827L2856 908" stroke="#F1F2F6"/>
<path d="M1754 1779L2286.5 982" stroke="#F1F2F6"/>
<path d="M1545 1774.5L2045 1018" stroke="#F1F2F6"/>
<path d="M2792 1517C2815 1448 2541 1889.5 2541 1889.5C2541 1889.5 2545.06 1925.74 2541 1952C2538.85 1965.94 2556.93 1961 2566 1941.5C2624.5 1849.5 2820.23 1553.86 2781.5 1582.5C2743.64 1610.5 2750.25 1653.8 2711 1660C2692 1663 2771.7 1577.89 2792 1517Z" fill="#2F3542" fill-opacity="0.6" stroke="#2F3542" stroke-opacity="0.6"/>
<ellipse cx="473.552" cy="474.016" rx="166.211" ry="178.313" fill="#F9CA24"/>
<ellipse cx="473.324" cy="474.016" rx="96.6711" ry="104.016" fill="#F0932B"/>
<path d="M696.672 295.203C677.866 322.126 669.149 334.832 642.943 358.519C634.478 366.171 649.93 392.987 658.112 384.941C694.304 349.354 694.06 333.881 724.229 292.692C752.776 253.718 851.715 213.101 851.715 213.101C851.715 213.101 730.413 246.896 696.672 295.203Z" fill="#F9CA24"/>
<path d="M764.13 507.109C734.052 508.803 707.888 477.568 675.029 470.771C664.414 468.575 657.087 499.585 667.772 501.277C715.034 508.761 723.322 524.636 770.263 523.245C814.681 521.929 915.338 524.026 915.338 524.026C915.338 524.026 818.098 504.07 764.13 507.109Z" fill="#F9CA24"/>
<path d="M714.038 645.035C683.985 642.84 675.744 579.83 643.763 568.839C633.432 565.289 623.1 595.156 633.55 598.215C679.775 611.746 667.259 671.454 714.038 676.125C758.303 680.545 850.986 723.413 850.986 723.413C850.986 723.413 767.962 648.974 714.038 645.035Z" fill="#F9CA24"/>
<path d="M601.314 728.212C573.09 716.188 567.327 664.063 539.475 642.982C530.477 636.171 513.058 661.359 522.294 667.738C563.145 695.954 549.254 737.034 592.868 756.951C634.138 775.796 634.866 894.634 634.866 894.634C634.866 894.634 651.953 749.786 601.314 728.212Z" fill="#F9CA24"/>
<path d="M496.431 780.793C494.4 746.401 471.233 724.929 476.568 687.199C478.292 675.011 451.071 667.194 449.789 679.454C444.117 733.679 472.841 753.509 474.916 807.205C476.879 858.015 537.312 951 537.312 951C537.312 951 500.075 842.5 496.431 780.793Z" fill="#F9CA24"/>
<path d="M309.6 735.118C311.864 702.205 352.533 682.948 362.227 648.142C365.359 636.898 340.361 624.814 337.641 636.202C325.611 686.569 288.682 682.232 284.102 733.431C279.769 781.877 183.766 812.639 183.766 812.639C183.766 812.639 305.537 794.172 309.6 735.118Z" fill="#F9CA24"/>
<path d="M418.502 172.318C435.828 200.513 414.81 247.222 427.351 282.645C431.403 294.088 458.216 284.604 453.756 273.362C434.024 223.638 465.786 198.765 439.673 154.094C414.963 111.824 473.114 13.3735 473.114 13.3735C473.114 13.3735 387.416 121.731 418.502 172.318Z" fill="#F9CA24"/>
<path d="M255.189 284.948C282.386 310.495 292.713 346.459 321.693 365.445C331.055 371.578 347.021 345.159 337.446 339.474C295.093 314.326 299.048 284.948 262 255.647C225.444 226.735 110.745 224.28 110.745 224.28C110.745 224.28 213.42 245.713 255.189 284.948Z" fill="#F9CA24"/>
<path d="M205.122 471.782C240.279 473.335 264.729 456.172 297.844 451.263C308.541 449.677 307.322 417.583 296.691 419.674C249.667 428.92 239.611 438.686 194.623 440.954C150.233 443.191 7.0042 382.432 7.0042 382.432C7.0042 382.432 151.129 469.398 205.122 471.782Z" fill="#F9CA24"/>
<path d="M223.678 591.535C257.053 578.793 289.146 587.943 318.619 569.98C328.141 564.177 317.11 534.639 307.806 540.887C266.654 568.524 247.038 549.045 205.64 569.33C164.792 589.345 63.7198 747.18 63.7198 747.18C63.7198 747.18 172.42 611.102 223.678 591.535Z" fill="#F9CA24"/>
<path d="M626.578 192.759C610.013 228.288 532.579 245.008 521.986 281.254C518.563 292.963 544.322 305.715 547.319 293.854C560.575 241.391 641.821 240.08 659.674 192.759C677.289 146.068 761.7 58.1158 761.7 58.1158C761.7 58.1158 652.017 138.195 626.578 192.759Z" fill="#F9CA24"/>
</svg>
