<svg width="1908" height="972" viewBox="0 0 1908 972" fill="none" xmlns="http://www.w3.org/2000/svg">
<path d="M1.04745 679.056C1.04745 679.056 189.385 598.303 394.589 682.726C394.603 682.732 394.618 682.738 394.633 682.744C497.57 725.087 605.878 747.771 712.713 726.649C830.998 703.263 937.179 646.861 1057.55 683.421C1151.15 711.849 1228.3 785.834 1327.64 748.872C1434.2 709.222 1526.2 646.493 1639.08 655.333C1735.56 662.889 1811.67 717.789 1906.91 668.043V0H0L1.04745 679.056Z" fill="url(#paint0_linear)"/>
<path opacity="0.5" d="M2.13692 679.055C2.13692 679.055 190.475 598.302 395.678 682.725C395.693 682.731 395.708 682.737 395.722 682.743C498.659 725.086 606.968 747.769 713.802 726.647C832.087 703.262 938.269 646.86 1058.64 683.42C1152.24 711.848 1229.39 785.833 1328.73 748.87C1435.29 709.221 1527.29 646.491 1640.17 655.332C1736.64 662.887 1812.76 717.787 1908 668.042V0H1.08948L2.13692 679.055Z" fill="url(#paint1_linear)"/>
<path opacity="0.5" d="M1.08948 633.08C1.08948 633.08 189.427 557.795 394.631 636.502C394.645 636.508 394.66 636.513 394.675 636.519C497.612 675.996 605.92 697.143 712.755 677.452C831.04 655.65 937.221 603.066 1057.6 637.152C1151.19 663.656 1228.34 732.632 1327.68 698.17C1434.24 661.205 1526.24 602.723 1639.12 610.965C1735.6 618.009 1811.71 669.192 1906.95 622.815V0L4.32283 0.107656L1.08948 633.08Z" fill="url(#paint2_linear)"/>
<defs>
<linearGradient id="paint0_linear" x1="0.000346834" y1="379.5" x2="1906.91" y2="379.5" gradientUnits="userSpaceOnUse">
<stop stop-color="#45AF0D"/>
<stop offset="1" stop-color="#45AF0D" stop-opacity="0"/>
</linearGradient>
<linearGradient id="paint1_linear" x1="1.08991" y1="379.5" x2="1908" y2="379.5" gradientUnits="userSpaceOnUse">
<stop stop-color="#45AF0D"/>
<stop offset="1" stop-color="#45AF0D" stop-opacity="0"/>
</linearGradient>
<linearGradient id="paint2_linear" x1="1.08974" y1="353.806" x2="1906.95" y2="353.806" gradientUnits="userSpaceOnUse">
<stop stop-color="#45AF0D"/>
<stop offset="1" stop-color="#45AF0D" stop-opacity="0"/>
</linearGradient>
</defs>
</svg>
