<svg id="Layer_1" xmlns="http://www.w3.org/2000/svg" xmlns:xlink="http://www.w3.org/1999/xlink" width="400.56"
    height="200.779" viewBox="0 0 127.56 63.779">
    <defs>
        <path id="SVGID_1_" d="M0 0h127.56v63.779H0z" />
    </defs>
    <clipPath id="SVGID_2_">
        <use xlink:href="#SVGID_1_" overflow="visible" />
    </clipPath>
    <path clip-path="url(#SVGID_2_)" fill="#000000"
        d="M24.994 50.495c11.336 0 20.902-7.548 23.963-17.891H1.03c3.062 10.343 12.628 17.891 23.964 17.891" />
    <path fill="#000000" d="M64.836 24.638h5.285V6.449h-5.285v18.189zm0-20.448h5.285V.05h-5.285v4.14z" />
    <defs>
        <path id="SVGID_3_" d="M0 0h127.56v63.779H0z" />
    </defs>
    <clipPath id="SVGID_4_">
        <use xlink:href="#SVGID_3_" overflow="visible" />
    </clipPath>
    <path clip-path="url(#SVGID_4_)" fill="#000000"
        d="M78.856 8.12c.523-.557.868-.976 1.806-1.427a8.78 8.78 0 0 1 3.302-.661c1.083 0 2.296.207 3.238.733 1.909 1.007 2.397 2.641 2.397 5.457v12.417h-5.321V14.414c0-1.636-.033-2.226-.243-2.714-.418-.973-1.358-1.392-2.399-1.392-2.817 0-2.817 2.263-2.817 4.523v9.808h-5.354V6.519h5.392V8.12zm30.992 11.893c-.623.938-1.254 1.843-2.19 2.711-1.563 1.462-3.93 2.576-6.848 2.576-5.395 0-9.183-3.444-9.183-9.392 0-4.382 2.153-10.016 9.318-10.016 1.078 0 4.206.103 6.539 2.609 2.363 2.538 2.505 6.085 2.573 8.138H97.086c-.036 2.258 1.253 4.52 4.138 4.52 2.92 0 3.928-1.912 4.592-3.2l4.032 2.054zm-5.32-6.713c-.106-.765-.243-1.774-1.011-2.573-.657-.661-1.667-1.007-2.608-1.007a3.67 3.67 0 0 0-2.71 1.181c-.73.801-.904 1.634-1.076 2.399h7.405zm7.034-1.668c.108-1.253.28-2.747 1.913-4.036 1.671-1.321 3.825-1.6 5.948-1.6 2.224 0 7.617.524 7.617 5.217v10.573c0 1.947.102 2.227.52 2.852h-5.25v-1.669c-1.36 1.008-2.887 2.156-5.567 2.156-4.173 0-5.946-2.99-5.946-5.531 0-2.917 2.331-4.59 3.832-5.216 1.455-.626 4.897-1.25 7.159-1.669v-.974c-.07-.834-.141-2.224-2.055-2.224-2.362 0-2.678 1.46-2.813 2.121h-5.358zm6.784 5.459c-.906.348-2.297.868-2.297 2.259 0 .871.763 1.844 2.016 1.844.659 0 1.29-.243 1.846-.59 1.771-1.114 1.84-2.783 1.877-4.661l-3.442 1.148z" />
    <path fill="#000000"
        d="M56.138.086h5.357v50.427h-5.357zm8.698 25.715h5.284v4.261h-5.284v-4.261zm0 6.523h5.284v18.189h-5.284V32.324z" />
    <defs>
        <path id="SVGID_5_" d="M0 0h127.56v63.779H0z" />
    </defs>
    <clipPath id="SVGID_6_">
        <use xlink:href="#SVGID_5_" overflow="visible" />
    </clipPath>
    <path clip-path="url(#SVGID_6_)" fill="#000000"
        d="M84.313 48.252c-1.042.692-2.326 1.532-4.795 1.532-1.496 0-2.958-.383-4.143-1.183-2.433-1.566-3.373-4.384-3.373-7.515 0-3.65 1.705-8.903 7.72-8.903 2.785 0 4.069 1.218 4.869 1.983v-1.983H89.6V49.92c-.071 1.982-.138 4.313-2.783 5.842-1.841 1.112-4.554 1.394-6.189 1.394-3.617 0-5.98-1.251-6.953-2.261-1.43-1.428-1.393-3.271-1.393-4.244h5.531c.068.8.137 1.949 1.563 2.606.347.178.875.353 1.706.353 3.231 0 3.231-1.915 3.231-3.41v-1.948zm-6.779-7.198c0 1.529.103 4.696 3.406 4.696 2.713 0 3.338-2.124 3.338-4.696 0-.87-.065-2.681-.661-3.55-.411-.658-1.388-1.39-2.92-1.319-2.542.106-3.163 2.296-3.163 4.869m20.698-15.253v8.469c.763-.763 2.332-2.398 5.216-2.398 1.326 0 2.783.382 3.863 1.286 1.6 1.355 1.878 3.063 1.878 5.426v11.929h-5.321v-9.496c0-1.459-.033-2.155-.244-2.782-.521-1.633-1.948-1.808-2.504-1.808-.94 0-1.738.456-2.192 1.043-.695.939-.695 2.435-.695 4.002v9.041h-5.354V25.801h5.353zm14.789 0h5.324v6.975h3.511v3.269h-3.548v8.175c-.035 1.108-.035 2.05 1.389 2.05l1.916-.069v4.173c-1.148.175-1.843.278-2.819.278-1.842 0-3.857-.104-5.009-1.773-.729-1.075-.764-2.364-.764-4.106v-8.762h-2.64v-3.267h2.64v-6.943zm-11.194 28.863v5.795c0 .718.015 1.486-.377 2.136-.48.846-1.483 1.185-2.46 1.185-.65 0-1.368-.156-1.875-.519-.781-.562-.885-1.409-.939-1.773h1.174c-.013.704.418 1.445 1.705 1.445.704 0 1.094-.233 1.302-.443.377-.402.377-.859.39-1.874V59.9c-.22.312-.83 1.081-2.014 1.081-1.486 0-2.844-1.081-2.844-3.215 0-2.476 1.604-3.296 2.854-3.296.572 0 1.301.183 2.003 1.013v-.818h1.081zm-4.869 3.06c0 .351.027 1.055.43 1.601.432.574 1.016.729 1.511.729.639 0 1.146-.246 1.498-.779.361-.548.402-1.278.402-1.643 0-2.081-1.548-2.227-1.965-2.227-1.118.014-1.876.899-1.876 2.319m7.606-3.059v1.118c.585-1.16 1.693-1.186 2.108-1.197v1.12a3.987 3.987 0 0 0-.43-.026c-.599 0-1.121.233-1.419.729-.275.455-.26.987-.26 1.55v2.838h-1.041v-6.132h1.042zm5.731 6.315c-2.124 0-3.021-1.589-3.021-3.204 0-1.366.676-3.308 3.063-3.308 2.028 0 2.967 1.578 2.953 3.256-.014 1.862-1.122 3.256-2.995 3.256m1.796-4.116c-.233-1.211-1.026-1.563-1.73-1.563-1.396 0-1.956 1.082-1.956 2.488 0 1.288.535 2.357 1.876 2.357 1.733 0 1.862-1.797 1.877-2.423a3.66 3.66 0 0 0-.067-.859m2.566-2.199h1.028v3.501c0 .64 0 .692.026.848.104.794.742.963 1.225.963.64 0 1.121-.261 1.381-.583.377-.444.377-.926.377-1.657v-3.071h1.028v6.132h-1.028v-.935c-.194.259-.821 1.094-2.097 1.094-.859 0-1.303-.394-1.498-.626-.442-.51-.442-1.043-.442-2.073v-3.593zm6.774 0h1.028v.871c.207-.234.325-.39.574-.561a3.009 3.009 0 0 1 1.611-.506c1.331 0 2.764 1.056 2.764 3.267 0 1.745-.937 3.245-2.877 3.245-.821 0-1.551-.275-2.072-.912v3.633h-1.028v-9.037zm1.028 3.163c0 1.329.664 2.241 1.915 2.241.364 0 .755-.063 1.08-.274.34-.222.884-.833.884-2.069 0-1.459-.808-2.333-1.991-2.281-1.184.039-1.888.989-1.888 2.383M49.986 24.993c0-.431-.011-.86-.032-1.286C49.284 10.502 38.366 0 24.993 0 11.621 0 .702 10.502.033 23.707a22.623 22.623 0 0 0 .004 2.512c.015.271.03.542.052.811h12.91a3.109 3.109 0 0 0 3.108-3.106c0-4.914 3.976-8.901 8.886-8.916a8.916 8.916 0 0 1 8.887 8.916 3.108 3.108 0 0 0 3.107 3.106h12.91c.021-.269.037-.54.051-.811.022-.406.038-.814.038-1.226" />
</svg>