<svg width="1879" height="1093" viewBox="0 0 1879 1093" fill="none" xmlns="http://www.w3.org/2000/svg">
<path d="M886.273 701.145C953.489 701.145 950.461 699.327 950.461 696.024C950.461 692.721 953.489 689.185 886.273 689.185C819.056 689.185 817.208 697.842 817.208 701.145C817.208 704.447 821.12 696.024 886.273 701.145Z" fill="#3F3D56" fill-opacity="0.7"/>
<g clip-path="url(#clip0)">
<path d="M858.759 679.419C858.759 679.419 866.093 671.927 873.361 677.26C873.361 677.26 871.124 683.933 861.922 683.302L858.759 679.419Z" fill="#45AF0D"/>
<path d="M857.861 679.82C857.861 679.82 855.629 693.012 861.222 701.928C861.222 701.928 864.589 696.501 861.25 683.216L857.861 679.82Z" fill="#45AF0D"/>
<path d="M848.714 667.192C848.714 667.192 849.265 655.997 865.575 659.709C865.575 659.709 865.652 666.927 859.922 670.349C854.191 673.771 851.574 670.887 848.714 667.192Z" fill="#45AF0D"/>
<path d="M847.712 667.115C847.712 667.115 840.813 670.528 846.962 694.24C846.962 694.24 851.513 692.67 852.318 683.242C853.122 673.813 850.704 670.545 847.712 667.115Z" fill="#45AF0D"/>
<path d="M838.471 651.202C838.471 651.202 837.54 632.788 854.213 634.683C854.213 634.683 855.398 651.347 841.419 655.63L838.471 651.202Z" fill="#45AF0D"/>
<path d="M827.457 630.45C827.457 630.45 829.738 609.588 846.406 615.808C846.406 615.808 846.472 633.846 830.173 635.434L827.457 630.45Z" fill="#45AF0D"/>
<path d="M819.401 608.965C819.401 608.965 823.258 588.589 839.744 594.724C839.744 594.724 835.815 613.001 820.497 612.72L819.401 608.965Z" fill="#45AF0D"/>
<path d="M811.753 587.975C811.753 587.975 815.494 566.882 831.435 573.214C831.435 573.214 826.112 593.257 812.8 591.567L811.753 587.975Z" fill="#45AF0D"/>
<path d="M806.822 568.034C806.822 568.034 809.698 542.24 824.564 547.949C824.564 547.949 820.244 571.413 807.918 571.789L806.822 568.034Z" fill="#45AF0D"/>
<path d="M802.199 543.947C802.199 543.947 805.653 517.948 820.679 525.508C820.679 525.508 814.778 550.082 803.246 547.539L802.199 543.947Z" fill="#45AF0D"/>
<path d="M799.339 521.506C799.339 521.506 804.816 495.499 816.448 496.207C816.448 496.207 810.844 523.673 800.309 526.719L799.339 521.506Z" fill="#45AF0D"/>
<path d="M797.521 499.654C797.521 499.654 803.482 468.348 812.949 470.771C812.949 470.771 808.822 494.662 797.857 504.535L797.521 499.654Z" fill="#45AF0D"/>
<path d="M796.485 473.527C796.485 473.527 802.077 447.443 811.422 446.419C811.422 446.419 807.615 472.085 796.694 480.319L796.485 473.527Z" fill="#45AF0D"/>
<path d="M795.355 449.201C795.355 449.201 802.331 423.082 808.502 422.493C808.502 422.493 805.477 448.211 795.972 453.484L795.355 449.201Z" fill="#45AF0D"/>
<path d="M794.578 426.546C794.578 426.546 798.865 398.184 805.047 395.829C805.047 395.829 804.204 419.021 795.212 428.663L794.578 426.546Z" fill="#45AF0D"/>
<path d="M792.264 396.93C792.264 396.93 796.771 374.327 801.763 370.88C801.763 370.88 800.777 397.527 793.421 402.45L792.264 396.93Z" fill="#45AF0D"/>
<path d="M790.33 377.424L789.421 337.568C789.421 337.568 798.744 367.654 791.019 384.455L790.33 377.424Z" fill="#45AF0D"/>
<path d="M783.123 337.816C783.123 337.816 776.401 308.711 774.786 307.098C774.786 307.098 787.972 325.981 786.682 350.273L783.123 337.816Z" fill="#45AF0D"/>
<path d="M838.019 651.108C838.019 651.108 826.195 648.71 826.547 674.59C826.547 674.59 837.237 677.286 840.725 655.886L838.019 651.108Z" fill="#45AF0D"/>
<path d="M826.895 629.759C826.895 629.759 813.23 629.682 814.343 656.211C814.343 656.211 825.809 659.385 829.595 634.794L826.895 629.759Z" fill="#45AF0D"/>
<path d="M819.269 610.68C819.269 610.68 806.866 601.713 798.926 624.921C798.926 624.921 810.387 632.421 820.365 614.435L819.269 610.68Z" fill="#45AF0D"/>
<path d="M811.478 588.171C811.478 588.171 798.777 578.581 791.316 601.303C791.316 601.303 804.54 608.351 812.524 591.764L811.478 588.171Z" fill="#45AF0D"/>
<path d="M806.981 568.597C806.981 568.597 794.76 550.508 785.002 568.802C785.002 568.802 797.493 583.683 807.543 572.625L806.981 568.597Z" fill="#45AF0D"/>
<path d="M802.893 543.332C802.893 543.332 790.594 524.834 780.913 544.186C780.913 544.186 794.721 559.357 803.328 547.215L802.893 543.332Z" fill="#45AF0D"/>
<path d="M800.612 520.789C800.612 520.789 791.14 497.751 779.982 502.871C779.982 502.871 789.812 527.325 800.507 526.233L800.612 520.789Z" fill="#45AF0D"/>
<path d="M797.802 499.509C797.802 499.509 788.242 470.421 779.222 475.473C779.222 475.473 786.104 497.828 798.044 504.398L797.802 499.509Z" fill="#45AF0D"/>
<path d="M797.14 472.017C797.14 472.017 787.327 449.115 778.131 451.914C778.131 451.914 786.153 475.131 798.094 478.638L797.14 472.017Z" fill="#45AF0D"/>
<path d="M796.391 448.689C796.391 448.689 788.787 422.997 782.616 422.775C782.616 422.775 786.269 448.288 795.895 453.006L796.391 448.689Z" fill="#45AF0D"/>
<path d="M794.887 425.983C794.887 425.983 786.429 399.967 780.076 399.916C780.076 399.916 784.407 422.161 794.6 428.279L794.887 425.983Z" fill="#45AF0D"/>
<path d="M793.614 398.5C793.614 398.5 787.288 376.963 782.043 374.523C782.043 374.523 785.206 400.769 792.909 404.208L793.614 398.5Z" fill="#45AF0D"/>
<path d="M789.592 376.673L775.447 343.336C775.447 343.336 779.067 376.221 791.641 383.03L789.592 376.673Z" fill="#45AF0D"/>
<path d="M779.877 340.504C779.877 340.504 763.452 322.943 762.857 320.136C762.857 320.136 771.238 344.736 786.726 349.07L779.877 340.504Z" fill="#45AF0D"/>
<path d="M778.894 332.602C778.894 332.602 760.033 304.529 755.201 304.555C755.201 304.555 770.756 305.656 779.33 331.108L778.894 332.602Z" fill="#45AF0D"/>
<path d="M793.449 402.664L792.76 402.8C789.217 359.838 784.049 334.454 778.208 331.314L778.439 330.299C784.633 333.626 789.801 358.652 793.449 402.664Z" fill="#444053"/>
<path d="M798.639 505.379L797.603 505.516C797.383 501.506 797.218 497.401 797.102 493.314C796.116 457.75 794.578 425.104 792.562 400.624L793.162 399.481C795.184 423.995 797.151 457.639 798.121 493.237C798.259 497.308 798.408 501.386 798.639 505.379Z" fill="#444053"/>
<path d="M878.127 699.838C877.945 699.71 859.674 687.081 840.703 656.936C829.595 639.291 820.361 619.035 813.345 596.917C804.579 569.289 799.234 535.32 797.443 502.308L798.545 503.093C802.573 577.19 824.355 627.848 841.678 655.4C860.462 685.264 878.529 697.781 878.711 697.901L878.127 699.838Z" fill="#444053"/>
</g>
<g clip-path="url(#clip1)">
<path d="M908.023 679.419C908.023 679.419 899.161 671.927 890.379 677.26C890.379 677.26 893.082 683.933 904.201 683.302L908.023 679.419Z" fill="#45AF0D"/>
<path d="M909.108 679.82C909.108 679.82 911.805 693.012 905.047 701.928C905.047 701.928 900.979 696.501 905.013 683.216L909.108 679.82Z" fill="#45AF0D"/>
<path d="M920.16 667.192C920.16 667.192 919.494 655.997 899.787 659.709C899.787 659.709 899.694 666.927 906.618 670.349C913.542 673.771 916.705 670.887 920.16 667.192Z" fill="#45AF0D"/>
<path d="M921.372 667.115C921.372 667.115 929.708 670.528 922.278 694.24C922.278 694.24 916.778 692.67 915.806 683.242C914.834 673.813 917.757 670.545 921.372 667.115Z" fill="#45AF0D"/>
<path d="M932.537 651.202C932.537 651.202 933.663 632.788 913.516 634.683C913.516 634.683 912.084 651.347 928.975 655.63L932.537 651.202Z" fill="#45AF0D"/>
<path d="M945.847 630.45C945.847 630.45 943.09 609.588 922.95 615.808C922.95 615.808 922.87 633.846 942.564 635.434L945.847 630.45Z" fill="#45AF0D"/>
<path d="M955.581 608.965C955.581 608.965 950.92 588.589 930.999 594.724C930.999 594.724 935.747 613.001 954.256 612.72L955.581 608.965Z" fill="#45AF0D"/>
<path d="M964.822 587.975C964.822 587.975 960.301 566.882 941.04 573.214C941.04 573.214 947.471 593.257 963.557 591.567L964.822 587.975Z" fill="#45AF0D"/>
<path d="M970.781 568.034C970.781 568.034 967.305 542.24 949.342 547.949C949.342 547.949 954.562 571.413 969.456 571.789L970.781 568.034Z" fill="#45AF0D"/>
<path d="M976.367 543.947C976.367 543.947 972.192 517.948 954.036 525.508C954.036 525.508 961.167 550.082 975.102 547.539L976.367 543.947Z" fill="#45AF0D"/>
<path d="M979.822 521.506C979.822 521.506 973.204 495.499 959.149 496.207C959.149 496.207 965.92 523.673 978.65 526.719L979.822 521.506Z" fill="#45AF0D"/>
<path d="M982.019 499.654C982.019 499.654 974.815 468.348 963.377 470.771C963.377 470.771 968.364 494.662 981.613 504.535L982.019 499.654Z" fill="#45AF0D"/>
<path d="M983.271 473.527C983.271 473.527 976.513 447.443 965.221 446.419C965.221 446.419 969.822 472.085 983.018 480.319L983.271 473.527Z" fill="#45AF0D"/>
<path d="M984.636 449.201C984.636 449.201 976.207 423.082 968.75 422.493C968.75 422.493 972.405 448.211 983.89 453.484L984.636 449.201Z" fill="#45AF0D"/>
<path d="M985.575 426.546C985.575 426.546 980.395 398.184 972.925 395.829C972.925 395.829 973.943 419.021 984.809 428.663L985.575 426.546Z" fill="#45AF0D"/>
<path d="M988.371 396.93C988.371 396.93 982.925 374.327 976.893 370.88C976.893 370.88 978.085 397.527 986.973 402.45L988.371 396.93Z" fill="#45AF0D"/>
<path d="M990.708 377.424L991.807 337.568C991.807 337.568 980.541 367.654 989.876 384.455L990.708 377.424Z" fill="#45AF0D"/>
<path d="M999.417 337.816C999.417 337.816 1007.54 308.711 1009.49 307.098C1009.49 307.098 993.558 325.981 995.116 350.273L999.417 337.816Z" fill="#45AF0D"/>
<path d="M933.083 651.108C933.083 651.108 947.371 648.71 946.945 674.59C946.945 674.59 934.029 677.286 929.814 655.886L933.083 651.108Z" fill="#45AF0D"/>
<path d="M946.526 629.759C946.526 629.759 963.038 629.682 961.693 656.211C961.693 656.211 947.837 659.385 943.263 634.794L946.526 629.759Z" fill="#45AF0D"/>
<path d="M955.74 610.68C955.74 610.68 970.728 601.713 980.322 624.921C980.322 624.921 966.473 632.421 954.416 614.435L955.74 610.68Z" fill="#45AF0D"/>
<path d="M965.155 588.171C965.155 588.171 980.501 578.581 989.516 601.303C989.516 601.303 973.537 608.351 963.89 591.764L965.155 588.171Z" fill="#45AF0D"/>
<path d="M970.588 568.597C970.588 568.597 985.355 550.508 997.146 568.802C997.146 568.802 982.053 583.683 969.909 572.625L970.588 568.597Z" fill="#45AF0D"/>
<path d="M975.528 543.332C975.528 543.332 990.389 524.834 1002.09 544.186C1002.09 544.186 985.402 559.357 975.002 547.215L975.528 543.332Z" fill="#45AF0D"/>
<path d="M978.284 520.789C978.284 520.789 989.729 497.751 1003.21 502.871C1003.21 502.871 991.334 527.325 978.411 526.233L978.284 520.789Z" fill="#45AF0D"/>
<path d="M981.68 499.509C981.68 499.509 993.231 470.421 1004.13 475.473C1004.13 475.473 995.815 497.828 981.387 504.398L981.68 499.509Z" fill="#45AF0D"/>
<path d="M982.479 472.017C982.479 472.017 994.337 449.115 1005.45 451.914C1005.45 451.914 995.755 475.131 981.327 478.638L982.479 472.017Z" fill="#45AF0D"/>
<path d="M983.384 448.689C983.384 448.689 992.572 422.997 1000.03 422.775C1000.03 422.775 995.615 448.288 983.984 453.006L983.384 448.689Z" fill="#45AF0D"/>
<path d="M985.202 425.983C985.202 425.983 995.422 399.967 1003.1 399.916C1003.1 399.916 997.865 422.161 985.548 428.279L985.202 425.983Z" fill="#45AF0D"/>
<path d="M986.74 398.5C986.74 398.5 994.383 376.963 1000.72 374.523C1000.72 374.523 996.9 400.769 987.592 404.208L986.74 398.5Z" fill="#45AF0D"/>
<path d="M991.6 376.673L1008.69 343.336C1008.69 343.336 1004.32 376.221 989.123 383.03L991.6 376.673Z" fill="#45AF0D"/>
<path d="M1003.34 340.504C1003.34 340.504 1023.19 322.943 1023.9 320.136C1023.9 320.136 1013.78 344.736 995.062 349.07L1003.34 340.504Z" fill="#45AF0D"/>
<path d="M1004.52 332.602C1004.52 332.602 1027.31 304.529 1033.15 304.555C1033.15 304.555 1014.36 305.656 1004 331.108L1004.52 332.602Z" fill="#45AF0D"/>
<path d="M986.94 402.664L987.772 402.8C992.053 359.838 998.298 334.454 1005.36 331.314L1005.08 330.299C997.592 333.626 991.347 358.652 986.94 402.664Z" fill="#444053"/>
<path d="M980.668 505.379L981.92 505.516C982.186 501.506 982.386 497.401 982.525 493.314C983.717 457.75 985.575 425.104 988.012 400.624L987.286 399.481C984.842 423.995 982.466 457.639 981.294 493.237C981.127 497.308 980.947 501.386 980.668 505.379Z" fill="#444053"/>
<path d="M884.62 699.838C884.84 699.71 906.918 687.081 929.841 656.936C943.263 639.291 954.42 619.035 962.898 596.917C973.491 569.289 979.949 535.32 982.113 502.308L980.781 503.093C975.914 577.19 949.595 627.848 928.663 655.4C905.966 685.264 884.134 697.781 883.914 697.901L884.62 699.838Z" fill="#444053"/>
</g>
<g clip-path="url(#clip2)">
<path d="M889.723 673.663C889.723 673.663 881.434 668.852 877.047 676.146C877.047 676.146 880.892 681.762 888.282 678.314L889.723 673.663Z" fill="#45AF0D"/>
<path d="M890.583 673.764C890.583 673.764 896.378 685.545 894.446 695.708C894.446 695.708 890.045 691.62 888.81 678.025L890.583 673.764Z" fill="#45AF0D"/>
<path d="M894.329 658.99C894.329 658.99 890.517 648.576 878.196 657.139C878.196 657.139 880.297 663.988 886.044 665.447C891.791 666.907 893.082 663.369 894.329 658.99Z" fill="#45AF0D"/>
<path d="M895.132 658.606C895.132 658.606 901.838 659.696 903.886 684.021C903.886 684.021 899.666 683.947 896.175 675.281C892.684 666.616 893.696 662.777 895.132 658.606Z" fill="#45AF0D"/>
<path d="M897.97 640.698C897.97 640.698 893.213 622.999 880.047 629.957C880.047 629.957 884.07 646.079 896.87 645.798L897.97 640.698Z" fill="#45AF0D"/>
<path d="M900.818 617.665C900.818 617.665 892.68 598.647 880.817 609.692C880.817 609.692 886.173 626.767 900.075 623.218L900.818 617.665Z" fill="#45AF0D"/>
<path d="M901.008 594.855C901.008 594.855 891.719 576.785 879.979 587.693C879.979 587.693 888.698 603.757 901.231 598.744L901.008 594.855Z" fill="#45AF0D"/>
<path d="M901.011 572.639C901.011 572.639 891.602 553.856 880.371 564.781C880.371 564.781 890.768 582.082 901.227 576.36L901.011 572.639Z" fill="#45AF0D"/>
<path d="M899.092 552.257C899.092 552.257 888.985 528.761 878.452 538.764C878.452 538.764 889.049 559.611 899.315 556.147L899.092 552.257Z" fill="#45AF0D"/>
<path d="M895.674 528.051C895.674 528.051 885.029 504.54 874.92 516.343C874.92 516.343 887.152 537.749 895.889 531.771L895.674 528.051Z" fill="#45AF0D"/>
<path d="M891.298 505.947C891.298 505.947 878.984 483.055 869.616 487.328C869.616 487.328 882.471 511.561 892.063 511.177L891.298 505.947Z" fill="#45AF0D"/>
<path d="M886.24 484.723C886.24 484.723 871.938 456.971 864.867 462.195C864.867 462.195 875.434 483.505 887.427 489.442L886.24 484.723Z" fill="#45AF0D"/>
<path d="M879.256 459.7C879.256 459.7 866.824 436.77 858.82 438.698C858.82 438.698 869.655 461.785 881.121 466.186L879.256 459.7Z" fill="#45AF0D"/>
<path d="M872.889 436.349C872.889 436.349 859.308 413.816 854.048 415.172C854.048 415.172 864.254 438.55 873.666 440.59L872.889 436.349Z" fill="#45AF0D"/>
<path d="M866.733 414.689C866.733 414.689 854.694 389.201 848.895 388.89C848.895 388.89 856.546 410.557 866.846 416.886L866.733 414.689Z" fill="#45AF0D"/>
<path d="M859.755 385.97C859.755 385.97 849.262 365.996 844.116 364.284C844.116 364.284 852.922 389.173 860.458 391.548L859.755 385.97Z" fill="#45AF0D"/>
<path d="M855.497 366.929L844.29 328.964C844.29 328.964 845.635 360.299 857.039 373.79L855.497 366.929Z" fill="#45AF0D"/>
<path d="M849.552 327.247C849.552 327.247 846.358 297.646 847.204 295.621C847.204 295.621 842.007 317.559 850.357 340.128L849.552 327.247Z" fill="#45AF0D"/>
<path d="M898.314 640.469C898.314 640.469 907.335 634.538 914.807 659.116C914.807 659.116 906.811 664.977 897.519 645.825L898.314 640.469Z" fill="#45AF0D"/>
<path d="M901.073 616.837C901.073 616.837 912.306 612.53 919.347 637.957C919.347 637.957 910.854 644.511 900.359 622.433L901.073 616.837Z" fill="#45AF0D"/>
<path d="M901.632 596.435C901.632 596.435 909.158 584.113 922.661 603.597C922.661 603.597 915.47 614.239 901.855 600.325L901.632 596.435Z" fill="#45AF0D"/>
<path d="M901.297 572.739C901.297 572.739 908.882 559.736 921.844 578.908C921.844 578.908 913.065 589.669 901.512 576.46L901.297 572.739Z" fill="#45AF0D"/>
<path d="M899.129 552.839C899.129 552.839 903.77 531.95 917.295 546.223C917.295 546.223 911.47 564.163 899.874 556.821L899.129 552.839Z" fill="#45AF0D"/>
<path d="M894.918 527.685C894.918 527.685 899.499 506.384 913.279 521.681C913.279 521.681 906.456 540.304 895.724 531.49L894.918 527.685Z" fill="#45AF0D"/>
<path d="M890.034 505.664C890.034 505.664 890.925 480.947 901.652 482.33C901.652 482.33 900.891 508.497 891.753 510.778L890.034 505.664Z" fill="#45AF0D"/>
<path d="M885.965 484.673C885.965 484.673 885.114 454.209 894.059 456.19C894.059 456.19 895.097 479.459 887.232 489.371L885.965 484.673Z" fill="#45AF0D"/>
<path d="M878.263 458.475C878.263 458.475 879.476 433.781 887.891 433.578C887.891 433.578 888.247 458.015 879.464 465.03L878.263 458.475Z" fill="#45AF0D"/>
<path d="M871.882 436.186C871.882 436.186 870.439 409.539 875.455 407.417C875.455 407.417 880.099 432.671 873.586 440.115L871.882 436.186Z" fill="#45AF0D"/>
<path d="M866.31 414.253C866.31 414.253 865.473 387.034 870.691 385.017C870.691 385.017 873.796 407.391 867.235 416.334L866.31 414.253Z" fill="#45AF0D"/>
<path d="M859.114 387.873C859.114 387.873 857.864 365.551 861.453 361.618C861.453 361.618 866.721 387.414 861.407 393.052L859.114 387.873Z" fill="#45AF0D"/>
<path d="M855.88 365.99L857.53 330.088C857.53 330.088 864.413 362.302 856.098 372.635L855.88 365.99Z" fill="#45AF0D"/>
<path d="M853.031 328.782C853.031 328.782 861.294 307.09 860.942 304.251C860.942 304.251 861.418 330.107 849.96 339.004L853.031 328.782Z" fill="#45AF0D"/>
<path d="M851.468 321.005C851.468 321.005 858.583 288.62 862.572 287.146C862.572 287.146 850.089 293.007 850.662 319.729L851.468 321.005Z" fill="#45AF0D"/>
<path d="M860.499 391.759L861.108 391.674C851.138 349.957 847.781 324.355 851.65 319.576L851.155 318.688C847.051 323.753 850.301 349.016 860.499 391.759Z" fill="#444053"/>
<path d="M887.036 490.483L887.931 490.291C886.909 486.431 885.814 482.499 884.683 478.599C874.827 444.668 866.301 413.326 860.618 389.556L859.78 388.661C865.469 412.465 873.941 444.885 883.821 478.842C884.928 482.733 886.029 486.636 887.036 490.483Z" fill="#444053"/>
<path d="M879.894 698.969C880.006 698.792 891.268 681.191 897.852 646.81C901.708 626.686 903.238 604.673 902.382 581.587C901.315 552.749 895.528 518.976 887.1 487.208L886.428 488.292C905.338 559.598 902.592 614.243 896.588 645.66C890.074 679.717 878.946 697.15 878.832 697.319L879.894 698.969Z" fill="#444053"/>
</g>
<path d="M625.425 312.875L629.289 309.702L625.425 312.875ZM615.675 173.225L611.243 170.911L611.237 170.922L615.675 173.225ZM648.225 137.525L650.765 141.832L650.777 141.825L650.788 141.818L648.225 137.525ZM725.625 131.525L723.613 136.102L723.622 136.106L723.632 136.11L725.625 131.525ZM751.575 148.775L755.17 152.25L758.721 148.577L754.972 145.106L751.575 148.775ZM734.175 166.775L730.776 170.442L734.367 173.77L737.77 170.25L734.175 166.775ZM642.975 183.425L638.409 181.387L642.975 183.425ZM648.225 296.225L644.1 299.049L644.105 299.057L644.11 299.064L648.225 296.225ZM724.575 306.125L726.978 310.51L729.575 309.087V306.125H724.575ZM724.575 245.675H729.575V240.675H724.575V245.675ZM686.325 245.675L681.377 246.395L682 250.675H686.325V245.675ZM682.875 221.975V216.975H677.095L677.927 222.695L682.875 221.975ZM753.825 221.975H758.825V216.975H753.825V221.975ZM753.825 321.275L756.261 325.641L758.825 324.211V321.275H753.825ZM723.375 334.475L721.834 329.718L721.821 329.723L723.375 334.475ZM685.425 334.725C661.465 334.725 642.944 326.329 629.289 309.702L621.561 316.048C637.306 335.221 658.786 344.725 685.425 344.725V334.725ZM629.289 309.702C615.629 293.068 608.375 267.613 608.375 232.475H598.375C598.375 268.737 605.821 296.882 621.561 316.048L629.289 309.702ZM608.375 232.475C608.375 209.322 612.384 190.42 620.113 175.528L611.237 170.922C602.566 187.629 598.375 208.228 598.375 232.475H608.375ZM620.108 175.539C628.043 160.338 638.287 149.189 650.765 141.832L645.686 133.218C631.364 141.661 619.908 154.312 611.243 170.911L620.108 175.539ZM650.788 141.818C663.424 134.274 676.94 130.525 691.425 130.525V120.525C675.11 120.525 659.826 124.776 645.662 133.232L650.788 141.818ZM691.425 130.525C704.678 130.525 715.339 132.465 723.613 136.102L727.637 126.948C717.711 122.585 705.572 120.525 691.425 120.525V130.525ZM723.632 136.11C732.266 139.865 740.45 145.288 748.178 152.444L754.972 145.106C746.501 137.262 737.384 131.185 727.619 126.94L723.632 136.11ZM747.98 145.3L730.58 163.3L737.77 170.25L755.17 152.25L747.98 145.3ZM737.574 163.108C724.405 150.902 709.11 144.675 691.875 144.675V154.675C706.441 154.675 719.345 159.847 730.776 170.442L737.574 163.108ZM691.875 144.675C681.14 144.675 671.008 147.536 661.56 153.183L666.691 161.767C674.643 157.014 683.011 154.675 691.875 154.675V144.675ZM661.56 153.183C651.742 159.052 644.101 168.634 638.409 181.387L647.541 185.463C652.65 174.015 659.109 166.298 666.691 161.767L661.56 153.183ZM638.409 181.387C632.609 194.385 629.875 211.522 629.875 232.475H639.875C639.875 212.228 642.542 196.665 647.541 185.463L638.409 181.387ZM629.875 232.475C629.875 262.231 634.317 284.76 644.1 299.049L652.351 293.4C644.334 281.69 639.875 261.719 639.875 232.475H629.875ZM644.11 299.064C654.051 313.474 668.782 320.575 687.525 320.575V310.575C671.669 310.575 660.199 304.776 652.341 293.385L644.11 299.064ZM687.525 320.575C701.559 320.575 714.736 317.216 726.978 310.51L722.173 301.74C711.415 307.634 699.891 310.575 687.525 310.575V320.575ZM729.575 306.125V245.675H719.575V306.125H729.575ZM724.575 240.675H686.325V250.675H724.575V240.675ZM691.273 244.955L687.823 221.255L677.927 222.695L681.377 246.395L691.273 244.955ZM682.875 226.975H753.825V216.975H682.875V226.975ZM748.825 221.975V321.275H758.825V221.975H748.825ZM751.389 316.908C742.186 322.043 732.337 326.315 721.834 329.718L724.917 339.231C736.013 335.635 746.464 331.107 756.261 325.641L751.389 316.908ZM721.821 329.723C711.746 333.018 699.645 334.725 685.425 334.725V344.725C700.405 344.725 713.604 342.932 724.93 339.227L721.821 329.723ZM897.408 335.975H892.408V340.975H897.408V335.975ZM897.408 239.675H902.408V234.675H897.408V239.675ZM823.908 239.675V234.675H818.908V239.675H823.908ZM823.908 335.975V340.975H828.908V335.975H823.908ZM794.208 335.975H789.208V340.975H794.208V335.975ZM794.208 129.275V124.275H789.208V129.275H794.208ZM823.908 129.275H828.908V124.275H823.908V129.275ZM823.908 215.225H818.908V220.225H823.908V215.225ZM897.408 215.225V220.225H902.408V215.225H897.408ZM897.408 129.275V124.275H892.408V129.275H897.408ZM927.108 129.275H932.108V124.275H927.108V129.275ZM927.108 335.975V340.975H932.108V335.975H927.108ZM902.408 335.975V239.675H892.408V335.975H902.408ZM897.408 234.675H823.908V244.675H897.408V234.675ZM818.908 239.675V335.975H828.908V239.675H818.908ZM823.908 330.975H794.208V340.975H823.908V330.975ZM799.208 335.975V129.275H789.208V335.975H799.208ZM794.208 134.275H823.908V124.275H794.208V134.275ZM818.908 129.275V215.225H828.908V129.275H818.908ZM823.908 220.225H897.408V210.225H823.908V220.225ZM902.408 215.225V129.275H892.408V215.225H902.408ZM897.408 134.275H927.108V124.275H897.408V134.275ZM922.108 129.275V335.975H932.108V129.275H922.108ZM927.108 330.975H897.408V340.975H927.108V330.975ZM1054.94 154.025V149.025H1049.94V154.025H1054.94ZM1054.94 335.975V340.975H1059.94V335.975H1054.94ZM1025.24 335.975H1020.24V340.975H1025.24V335.975ZM1025.24 154.025H1030.24V149.025H1025.24V154.025ZM961.641 154.025H956.641V159.025H961.641V154.025ZM961.641 129.275V124.275H956.641V129.275H961.641ZM1119.59 129.275L1124.55 129.906L1125.27 124.275H1119.59V129.275ZM1116.44 154.025V159.025H1120.84L1121.4 154.656L1116.44 154.025ZM1049.94 154.025V335.975H1059.94V154.025H1049.94ZM1054.94 330.975H1025.24V340.975H1054.94V330.975ZM1030.24 335.975V154.025H1020.24V335.975H1030.24ZM1025.24 149.025H961.641V159.025H1025.24V149.025ZM966.641 154.025V129.275H956.641V154.025H966.641ZM961.641 134.275H1119.59V124.275H961.641V134.275ZM1114.63 128.644L1111.48 153.394L1121.4 154.656L1124.55 129.906L1114.63 128.644ZM1116.44 149.025H1054.94V159.025H1116.44V149.025Z" fill="#45AF0D"/>
<path d="M184.353 276.728C184.353 288.128 182.103 297.628 177.603 305.228C173.203 312.828 167.203 318.878 159.603 323.378C152.103 327.878 143.653 331.128 134.253 333.128C124.953 335.028 115.403 335.978 105.603 335.978H48.0026V129.278H101.253C110.553 129.278 119.603 130.128 128.403 131.828C137.203 133.428 145.153 136.228 152.253 140.228C159.353 144.128 164.953 149.478 169.053 156.278C173.253 162.978 175.353 171.378 175.353 181.478C175.353 190.178 173.503 197.628 169.803 203.828C166.203 209.928 161.503 214.878 155.703 218.678C149.903 222.378 143.703 224.978 137.103 226.478C144.603 227.778 151.953 230.178 159.153 233.678C166.453 237.078 172.453 242.228 177.153 249.128C181.953 255.928 184.353 265.128 184.353 276.728ZM145.053 183.428C145.053 172.228 141.553 164.278 134.553 159.578C127.653 154.778 118.103 152.378 105.903 152.378H77.7026V216.278H108.303C120.203 216.278 129.303 213.728 135.603 208.628C141.903 203.428 145.053 195.028 145.053 183.428ZM153.153 277.178C153.153 267.278 151.203 259.628 147.303 254.228C143.503 248.728 138.353 244.928 131.853 242.828C125.453 240.728 118.353 239.678 110.553 239.678H77.7026V312.128H109.203C115.903 312.128 122.603 311.278 129.303 309.578C136.103 307.778 141.753 304.378 146.253 299.378C150.853 294.378 153.153 286.978 153.153 277.178ZM363.335 187.928C363.335 203.428 358.585 215.928 349.085 225.428C339.685 234.828 328.085 241.328 314.285 244.928L374.435 335.978H339.185L284.735 248.828H259.085V335.978H229.235V129.278H284.285C310.185 129.278 329.835 134.228 343.235 144.128C356.635 153.928 363.335 168.528 363.335 187.928ZM331.685 187.928C331.685 175.228 327.985 166.078 320.585 160.478C313.285 154.878 302.035 152.078 286.835 152.078H259.085V226.178H287.135C301.335 226.178 312.285 223.278 319.985 217.478C327.785 211.578 331.685 201.728 331.685 187.928ZM531.218 129.278V152.528H485.768V312.578H531.218V335.978H410.318V312.578H455.768V152.528H410.318V129.278H531.218Z" fill="#45AF0D"/>
<path d="M177.603 305.228L173.3 302.681L173.288 302.702L173.275 302.723L177.603 305.228ZM159.603 323.378L157.055 319.076L157.043 319.083L157.03 319.091L159.603 323.378ZM134.253 333.128L135.253 338.027L135.273 338.023L135.293 338.019L134.253 333.128ZM48.0026 335.978H43.0026V340.978H48.0026V335.978ZM48.0026 129.278V124.278H43.0026V129.278H48.0026ZM128.403 131.828L127.454 136.737L127.481 136.743L127.508 136.748L128.403 131.828ZM152.253 140.228L149.798 144.584L149.822 144.598L149.845 144.611L152.253 140.228ZM169.053 156.278L164.771 158.86L164.793 158.897L164.816 158.934L169.053 156.278ZM169.803 203.828L165.509 201.266L165.503 201.276L165.497 201.287L169.803 203.828ZM155.703 218.678L158.392 222.894L158.417 222.877L158.443 222.861L155.703 218.678ZM137.103 226.478L135.995 221.603L136.249 231.405L137.103 226.478ZM159.153 233.678L156.967 238.175L157.004 238.193L157.042 238.211L159.153 233.678ZM177.153 249.128L173.02 251.943L173.044 251.978L173.068 252.012L177.153 249.128ZM134.553 159.578L131.697 163.683L131.731 163.706L131.765 163.729L134.553 159.578ZM77.7026 152.378V147.378H72.7026V152.378H77.7026ZM77.7026 216.278H72.7026V221.278H77.7026V216.278ZM135.603 208.628L138.749 212.514L138.767 212.499L138.785 212.484L135.603 208.628ZM147.303 254.228L143.189 257.07L143.219 257.113L143.249 257.156L147.303 254.228ZM131.853 242.828L130.294 247.579L130.305 247.583L130.315 247.586L131.853 242.828ZM77.7026 239.678V234.678H72.7026V239.678H77.7026ZM77.7026 312.128H72.7026V317.128H77.7026V312.128ZM129.303 309.578L130.532 314.425L130.557 314.418L130.582 314.412L129.303 309.578ZM146.253 299.378L142.573 295.993L142.554 296.013L142.536 296.033L146.253 299.378ZM179.353 276.728C179.353 287.487 177.229 296.046 173.3 302.681L181.905 307.776C186.976 299.211 189.353 288.769 189.353 276.728H179.353ZM173.275 302.723C169.307 309.577 163.922 315.01 157.055 319.076L162.15 327.681C170.483 322.747 177.098 316.08 181.93 307.733L173.275 302.723ZM157.03 319.091C150.048 323.28 142.125 326.341 133.212 328.238L135.293 338.019C145.18 335.915 154.157 332.477 162.175 327.666L157.03 319.091ZM133.252 328.229C124.292 330.06 115.077 330.978 105.603 330.978V340.978C115.728 340.978 125.614 339.996 135.253 338.027L133.252 328.229ZM105.603 330.978H48.0026V340.978H105.603V330.978ZM53.0026 335.978V129.278H43.0026V335.978H53.0026ZM48.0026 134.278H101.253V124.278H48.0026V134.278ZM101.253 134.278C110.246 134.278 118.978 135.1 127.454 136.737L129.351 126.919C120.227 125.156 110.859 124.278 101.253 124.278V134.278ZM127.508 136.748C135.814 138.258 143.228 140.883 149.798 144.584L154.707 135.872C147.077 131.573 138.591 128.599 129.297 126.909L127.508 136.748ZM149.845 144.611C156.189 148.095 161.135 152.831 164.771 158.86L173.335 153.696C168.77 146.126 162.516 140.161 154.66 135.846L149.845 144.611ZM164.816 158.934C168.396 164.645 170.353 172.06 170.353 181.478H180.353C180.353 170.696 178.109 161.312 173.289 153.623L164.816 158.934ZM170.353 181.478C170.353 189.461 168.66 195.986 165.509 201.266L174.096 206.391C178.345 199.271 180.353 190.895 180.353 181.478H170.353ZM165.497 201.287C162.277 206.742 158.108 211.125 152.963 214.496L158.443 222.861C164.898 218.631 170.128 213.115 174.109 206.37L165.497 201.287ZM153.014 214.463C147.69 217.859 142.024 220.232 135.995 221.603L138.211 231.354C145.381 229.724 152.115 226.898 158.392 222.894L153.014 214.463ZM136.249 231.405C143.263 232.621 150.166 234.869 156.967 238.175L161.339 229.181C153.739 225.487 145.942 222.936 137.957 221.552L136.249 231.405ZM157.042 238.211C163.495 241.216 168.808 245.759 173.02 251.943L181.285 246.313C176.098 238.698 169.411 232.94 161.264 229.146L157.042 238.211ZM173.068 252.012C177.079 257.695 179.353 265.766 179.353 276.728H189.353C189.353 264.49 186.826 254.162 181.237 246.245L173.068 252.012ZM150.053 183.428C150.053 171.169 146.16 161.349 137.34 155.427L131.765 163.729C136.945 167.207 140.053 173.288 140.053 183.428H150.053ZM137.408 155.474C129.37 149.882 118.684 147.378 105.903 147.378V157.378C117.522 157.378 125.936 159.675 131.697 163.683L137.408 155.474ZM105.903 147.378H77.7026V157.378H105.903V147.378ZM72.7026 152.378V216.278H82.7026V152.378H72.7026ZM77.7026 221.278H108.303V211.278H77.7026V221.278ZM108.303 221.278C120.829 221.278 131.225 218.605 138.749 212.514L132.457 204.742C127.38 208.852 119.576 211.278 108.303 211.278V221.278ZM138.785 212.484C146.659 205.985 150.053 195.868 150.053 183.428H140.053C140.053 194.189 137.146 200.871 132.42 204.772L138.785 212.484ZM158.153 277.178C158.153 266.713 156.105 257.876 151.356 251.301L143.249 257.156C146.3 261.38 148.153 267.844 148.153 277.178H158.153ZM151.416 251.386C146.977 244.961 140.911 240.5 133.39 238.07L130.315 247.586C135.794 249.356 140.028 252.496 143.189 257.07L151.416 251.386ZM133.411 238.077C126.436 235.789 118.8 234.678 110.553 234.678V244.678C117.905 244.678 124.469 245.668 130.294 247.579L133.411 238.077ZM110.553 234.678H77.7026V244.678H110.553V234.678ZM72.7026 239.678V312.128H82.7026V239.678H72.7026ZM77.7026 317.128H109.203V307.128H77.7026V317.128ZM109.203 317.128C116.33 317.128 123.443 316.223 130.532 314.425L128.073 304.732C121.762 306.333 115.475 307.128 109.203 307.128V317.128ZM130.582 314.412C138.277 312.375 144.788 308.48 149.969 302.723L142.536 296.033C138.717 300.277 133.929 303.182 128.023 304.745L130.582 314.412ZM149.932 302.764C155.692 296.503 158.153 287.682 158.153 277.178H148.153C148.153 286.274 146.013 292.253 142.573 295.993L149.932 302.764ZM349.085 225.428L345.55 221.893L349.085 225.428ZM314.285 244.928L313.023 240.09L306.262 241.854L310.114 247.684L314.285 244.928ZM374.435 335.978V340.978H383.731L378.607 333.222L374.435 335.978ZM339.185 335.978L334.945 338.628L336.414 340.978H339.185V335.978ZM284.735 248.828L288.976 246.179L287.507 243.828H284.735V248.828ZM259.085 248.828V243.828H254.085V248.828H259.085ZM259.085 335.978V340.978H264.085V335.978H259.085ZM229.235 335.978H224.235V340.978H229.235V335.978ZM229.235 129.278V124.278H224.235V129.278H229.235ZM343.235 144.128L340.264 148.15L340.274 148.157L340.284 148.164L343.235 144.128ZM320.585 160.478L317.542 164.445L317.555 164.455L317.568 164.465L320.585 160.478ZM259.085 152.078V147.078H254.085V152.078H259.085ZM259.085 226.178H254.085V231.178H259.085V226.178ZM319.985 217.478L322.994 221.472L323.002 221.466L319.985 217.478ZM358.335 187.928C358.335 202.323 353.967 213.476 345.55 221.893L352.621 228.964C363.204 218.381 368.335 204.534 368.335 187.928H358.335ZM345.55 221.893C336.824 230.618 326.028 236.698 313.023 240.09L315.548 249.766C330.143 245.959 342.547 239.038 352.621 228.964L345.55 221.893ZM310.114 247.684L370.264 338.734L378.607 333.222L318.457 242.172L310.114 247.684ZM374.435 330.978H339.185V340.978H374.435V330.978ZM343.426 333.329L288.976 246.179L280.495 251.478L334.945 338.628L343.426 333.329ZM284.735 243.828H259.085V253.828H284.735V243.828ZM254.085 248.828V335.978H264.085V248.828H254.085ZM259.085 330.978H229.235V340.978H259.085V330.978ZM234.235 335.978V129.278H224.235V335.978H234.235ZM229.235 134.278H284.285V124.278H229.235V134.278ZM284.285 134.278C309.671 134.278 328.083 139.15 340.264 148.15L346.207 140.107C331.587 129.306 310.7 124.278 284.285 124.278V134.278ZM340.284 148.164C352.168 156.855 358.335 169.817 358.335 187.928H368.335C368.335 167.239 361.103 151.001 346.187 140.092L340.284 148.164ZM336.685 187.928C336.685 174.281 332.674 163.356 323.603 156.491L317.568 164.465C323.297 168.8 326.685 176.175 326.685 187.928H336.685ZM323.629 156.511C315.048 149.929 302.479 147.078 286.835 147.078V157.078C301.592 157.078 311.523 159.828 317.542 164.445L323.629 156.511ZM286.835 147.078H259.085V157.078H286.835V147.078ZM254.085 152.078V226.178H264.085V152.078H254.085ZM259.085 231.178H287.135V221.178H259.085V231.178ZM287.135 231.178C301.929 231.178 314.103 228.169 322.994 221.472L316.977 213.484C310.468 218.387 300.742 221.178 287.135 221.178V231.178ZM323.002 221.466C332.51 214.274 336.685 202.612 336.685 187.928H326.685C326.685 200.844 323.061 208.883 316.969 213.491L323.002 221.466ZM531.218 129.278H536.218V124.278H531.218V129.278ZM531.218 152.528V157.528H536.218V152.528H531.218ZM485.768 152.528V147.528H480.768V152.528H485.768ZM485.768 312.578H480.768V317.578H485.768V312.578ZM531.218 312.578H536.218V307.578H531.218V312.578ZM531.218 335.978V340.978H536.218V335.978H531.218ZM410.318 335.978H405.318V340.978H410.318V335.978ZM410.318 312.578V307.578H405.318V312.578H410.318ZM455.768 312.578V317.578H460.768V312.578H455.768ZM455.768 152.528H460.768V147.528H455.768V152.528ZM410.318 152.528H405.318V157.528H410.318V152.528ZM410.318 129.278V124.278H405.318V129.278H410.318ZM526.218 129.278V152.528H536.218V129.278H526.218ZM531.218 147.528H485.768V157.528H531.218V147.528ZM480.768 152.528V312.578H490.768V152.528H480.768ZM485.768 317.578H531.218V307.578H485.768V317.578ZM526.218 312.578V335.978H536.218V312.578H526.218ZM531.218 330.978H410.318V340.978H531.218V330.978ZM415.318 335.978V312.578H405.318V335.978H415.318ZM410.318 317.578H455.768V307.578H410.318V317.578ZM460.768 312.578V152.528H450.768V312.578H460.768ZM455.768 147.528H410.318V157.528H455.768V147.528ZM415.318 152.528V129.278H405.318V152.528H415.318ZM410.318 134.278H531.218V124.278H410.318V134.278Z" fill="#45AF0D"/>
<path d="M756.522 948C743.869 947.952 734.877 943.312 729.006 936.753C723.04 930.089 719.965 921.065 720 911.864C720.035 902.661 723.18 893.654 729.167 887.03C735.058 880.512 744.005 875.954 756.477 876C793.74 876.139 830.001 876.139 856.944 876.104C870.417 876.087 881.56 876.061 889.336 876.039C893.224 876.028 896.27 876.019 898.345 876.012C899.382 876.008 900.176 876.005 900.711 876.003L901.522 876C901.522 876 901.523 876 901.499 870C901.476 864 901.475 864 901.475 864L900.667 864.003C900.133 864.005 899.34 864.008 898.304 864.012C896.232 864.019 893.188 864.028 889.303 864.039C881.532 864.061 870.394 864.087 856.929 864.104C829.997 864.139 793.758 864.139 756.522 864C740.822 863.942 728.559 869.805 720.264 878.984C712.064 888.057 708.045 900.021 708 911.818C707.955 923.616 711.884 935.618 720.065 944.757C728.339 954 740.637 959.94 756.477 960C832.99 960.291 905 960.291 957.882 960.218C961.338 960.214 964.712 960.208 968 960.203L963.5 948.15C961.647 948.152 959.769 948.216 957.866 948.218C904.997 948.291 833.008 948.291 756.522 948Z" fill="#45AF0D"/>
<path d="M1021 948.082C1013.9 948.104 1005.34 948.127 995.5 948.15L1000.5 960.138L968 960.203C989.872 960.168 1007.95 960.122 1021.03 960.082C1028.56 960.059 1034.43 960.039 1038.42 960.024C1040.42 960.017 1041.94 960.011 1042.97 960.007L1044.52 960L1044.52 960C1044.52 960 1044.53 960 1044.5 954C1044.47 948 1044.47 948 1044.47 948L1042.92 948.007C1041.9 948.011 1040.37 948.017 1038.38 948.024C1034.39 948.039 1028.52 948.059 1021 948.082Z" fill="#45AF0D"/>
<g filter="url(#filter0_d)">
<path d="M1006 960.5C999.5 957.5 1000 954 1000.5 948" stroke="black" stroke-opacity="0.19" stroke-width="2"/>
</g>
<g filter="url(#filter1_d)">
<path d="M958.5 948.5C959.857 955.022 959.472 956.319 962 960" stroke="black" stroke-opacity="0.12" stroke-width="2"/>
</g>
<path d="M978.709 977.9L982.573 974.727L978.709 977.9ZM968.959 838.25L964.526 835.936L964.521 835.947L968.959 838.25ZM1001.51 802.55L1004.05 806.857L1004.06 806.85L1004.07 806.843L1001.51 802.55ZM1078.91 796.55L1076.9 801.127L1076.91 801.131L1076.91 801.135L1078.91 796.55ZM1104.86 813.8L1108.45 817.275L1112 813.602L1108.26 810.131L1104.86 813.8ZM1087.46 831.8L1084.06 835.467L1087.65 838.795L1091.05 835.275L1087.46 831.8ZM996.259 848.45L991.693 846.412L991.693 846.412L996.259 848.45ZM1001.51 961.25L997.383 964.075L997.388 964.082L997.393 964.089L1001.51 961.25ZM1077.86 971.15L1080.26 975.535L1082.86 974.112V971.15H1077.86ZM1077.86 910.7H1082.86V905.7H1077.86V910.7ZM1039.61 910.7L1034.66 911.42L1035.28 915.7H1039.61V910.7ZM1036.16 887V882H1030.38L1031.21 887.72L1036.16 887ZM1107.11 887H1112.11V882H1107.11V887ZM1107.11 986.3L1109.54 990.666L1112.11 989.236V986.3H1107.11ZM1076.66 999.5L1075.12 994.744L1075.1 994.748L1076.66 999.5ZM1038.71 999.75C1014.75 999.75 996.227 991.354 982.573 974.727L974.845 981.073C990.59 1000.25 1012.07 1009.75 1038.71 1009.75V999.75ZM982.573 974.727C968.912 958.093 961.659 932.638 961.659 897.5H951.659C951.659 933.762 959.105 961.907 974.845 981.073L982.573 974.727ZM961.659 897.5C961.659 874.347 965.668 855.445 973.397 840.553L964.521 835.947C955.85 852.654 951.659 873.253 951.659 897.5H961.659ZM973.391 840.564C981.326 825.363 991.57 814.214 1004.05 806.857L998.969 798.243C984.647 806.686 973.191 819.337 964.526 835.936L973.391 840.564ZM1004.07 806.843C1016.71 799.299 1030.22 795.55 1044.71 795.55V785.55C1028.39 785.55 1013.11 789.801 998.946 798.257L1004.07 806.843ZM1044.71 795.55C1057.96 795.55 1068.62 797.49 1076.9 801.127L1080.92 791.973C1070.99 787.61 1058.86 785.55 1044.71 785.55V795.55ZM1076.91 801.135C1085.55 804.89 1093.73 810.313 1101.46 817.469L1108.26 810.131C1099.78 802.287 1090.67 796.21 1080.9 791.965L1076.91 801.135ZM1101.26 810.325L1083.86 828.325L1091.05 835.275L1108.45 817.275L1101.26 810.325ZM1090.86 828.133C1077.69 815.928 1062.39 809.7 1045.16 809.7V819.7C1059.72 819.7 1072.63 824.872 1084.06 835.467L1090.86 828.133ZM1045.16 809.7C1034.42 809.7 1024.29 812.561 1014.84 818.208L1019.97 826.792C1027.93 822.039 1036.29 819.7 1045.16 819.7V809.7ZM1014.84 818.208C1005.02 824.077 997.384 833.659 991.693 846.412L1000.82 850.488C1005.93 839.041 1012.39 831.323 1019.97 826.792L1014.84 818.208ZM991.693 846.412C985.892 859.41 983.159 876.547 983.159 897.5H993.159C993.159 877.253 995.825 861.69 1000.82 850.488L991.693 846.412ZM983.159 897.5C983.159 927.256 987.6 949.785 997.383 964.075L1005.63 958.425C997.617 946.715 993.159 926.744 993.159 897.5H983.159ZM997.393 964.089C1007.33 978.499 1022.06 985.6 1040.81 985.6V975.6C1024.95 975.6 1013.48 969.801 1005.62 958.411L997.393 964.089ZM1040.81 985.6C1054.84 985.6 1068.02 982.241 1080.26 975.535L1075.46 966.765C1064.7 972.659 1053.17 975.6 1040.81 975.6V985.6ZM1082.86 971.15V910.7H1072.86V971.15H1082.86ZM1077.86 905.7H1039.61V915.7H1077.86V905.7ZM1044.56 909.98L1041.11 886.28L1031.21 887.72L1034.66 911.42L1044.56 909.98ZM1036.16 892H1107.11V882H1036.16V892ZM1102.11 887V986.3H1112.11V887H1102.11ZM1104.67 981.934C1095.47 987.068 1085.62 991.34 1075.12 994.744L1078.2 1004.26C1089.3 1000.66 1099.75 996.132 1109.54 990.666L1104.67 981.934ZM1075.1 994.748C1065.03 998.043 1052.93 999.75 1038.71 999.75V1009.75C1053.69 1009.75 1066.89 1007.96 1078.21 1004.25L1075.1 994.748Z" fill="#45AF0D"/>
<g filter="url(#filter2_d)">
<path d="M1028.62 827.573C1028.62 827.573 784.42 827.432 746.917 827.573C709.414 827.714 693.15 744.236 757.617 744.073C822.085 743.909 897.917 744.073 897.917 744.073" stroke="#45AF0D" stroke-width="12"/>
</g>
<path d="M1374.97 817.7V884.15H1450.87V907.7H1374.97V977.75H1467.82V1001H1345.12V794.3H1465.57L1462.12 817.7H1374.97ZM1554.85 817.7V884.15H1630.75V907.7H1554.85V977.75H1647.7V1001H1525V794.3H1645.45L1642 817.7H1554.85ZM1785.13 1001L1715.38 821.75C1715.58 825.25 1715.98 831.25 1716.58 839.75C1717.28 848.15 1717.93 857.85 1718.53 868.85C1719.13 879.75 1719.43 890.65 1719.43 901.55V1001H1692.43V794.3H1731.88L1802.38 974C1802.18 970.6 1801.73 964.95 1801.03 957.05C1800.33 949.05 1799.68 939.6 1799.08 928.7C1798.58 917.8 1798.33 906.15 1798.33 893.75V794.3H1825.33V1001H1785.13Z" fill="#45AF0D"/>
<path d="M1277.43 890.45L1273.9 886.914L1273.9 886.914L1277.43 890.45ZM1242.63 909.95L1241.37 905.112L1234.61 906.876L1238.46 912.706L1242.63 909.95ZM1302.78 1001V1006H1312.08L1306.96 998.244L1302.78 1001ZM1267.53 1001L1263.29 1003.65L1264.76 1006H1267.53V1001ZM1213.08 913.85L1217.32 911.201L1215.86 908.85H1213.08V913.85ZM1187.43 913.85V908.85H1182.43V913.85H1187.43ZM1187.43 1001V1006H1192.43V1001H1187.43ZM1157.58 1001H1152.58V1006H1157.58V1001ZM1157.58 794.3V789.3H1152.58V794.3H1157.58ZM1271.58 809.15L1268.61 813.171L1268.62 813.179L1268.63 813.186L1271.58 809.15ZM1248.93 825.5L1245.89 829.467L1245.9 829.477L1245.92 829.487L1248.93 825.5ZM1187.43 817.1V812.1H1182.43V817.1H1187.43ZM1187.43 891.2H1182.43V896.2H1187.43V891.2ZM1248.33 882.5L1251.34 886.494L1251.35 886.488L1248.33 882.5ZM1286.68 852.95C1286.68 867.345 1282.32 878.498 1273.9 886.914L1280.97 893.986C1291.55 883.402 1296.68 869.555 1296.68 852.95H1286.68ZM1273.9 886.914C1265.17 895.64 1254.38 901.719 1241.37 905.112L1243.9 914.788C1258.49 910.981 1270.9 904.06 1280.97 893.986L1273.9 886.914ZM1238.46 912.706L1298.61 1003.76L1306.96 998.244L1246.81 907.194L1238.46 912.706ZM1302.78 996H1267.53V1006H1302.78V996ZM1271.77 998.351L1217.32 911.201L1208.84 916.499L1263.29 1003.65L1271.77 998.351ZM1213.08 908.85H1187.43V918.85H1213.08V908.85ZM1182.43 913.85V1001H1192.43V913.85H1182.43ZM1187.43 996H1157.58V1006H1187.43V996ZM1162.58 1001V794.3H1152.58V1001H1162.58ZM1157.58 799.3H1212.63V789.3H1157.58V799.3ZM1212.63 799.3C1238.02 799.3 1256.43 804.172 1268.61 813.171L1274.56 805.128C1259.94 794.328 1239.05 789.3 1212.63 789.3V799.3ZM1268.63 813.186C1280.52 821.877 1286.68 834.839 1286.68 852.95H1296.68C1296.68 832.261 1289.45 816.023 1274.54 805.114L1268.63 813.186ZM1265.03 852.95C1265.03 839.303 1261.02 828.378 1251.95 821.513L1245.92 829.487C1251.65 833.822 1255.03 841.197 1255.03 852.95H1265.03ZM1251.98 821.533C1243.4 814.95 1230.83 812.1 1215.18 812.1V822.1C1229.94 822.1 1239.87 824.85 1245.89 829.467L1251.98 821.533ZM1215.18 812.1H1187.43V822.1H1215.18V812.1ZM1182.43 817.1V891.2H1192.43V817.1H1182.43ZM1187.43 896.2H1215.48V886.2H1187.43V896.2ZM1215.48 896.2C1230.28 896.2 1242.45 893.191 1251.34 886.494L1245.33 878.506C1238.82 883.409 1229.09 886.2 1215.48 886.2V896.2ZM1251.35 886.488C1260.86 879.295 1265.03 867.634 1265.03 852.95H1255.03C1255.03 865.866 1251.41 873.905 1245.32 878.512L1251.35 886.488ZM1374.97 817.7V812.7H1369.97V817.7H1374.97ZM1374.97 884.15H1369.97V889.15H1374.97V884.15ZM1450.87 884.15H1455.87V879.15H1450.87V884.15ZM1450.87 907.7V912.7H1455.87V907.7H1450.87ZM1374.97 907.7V902.7H1369.97V907.7H1374.97ZM1374.97 977.75H1369.97V982.75H1374.97V977.75ZM1467.82 977.75H1472.82V972.75H1467.82V977.75ZM1467.82 1001V1006H1472.82V1001H1467.82ZM1345.12 1001H1340.12V1006H1345.12V1001ZM1345.12 794.3V789.3H1340.12V794.3H1345.12ZM1465.57 794.3L1470.51 795.029L1471.36 789.3H1465.57V794.3ZM1462.12 817.7V822.7H1466.43L1467.06 818.429L1462.12 817.7ZM1369.97 817.7V884.15H1379.97V817.7H1369.97ZM1374.97 889.15H1450.87V879.15H1374.97V889.15ZM1445.87 884.15V907.7H1455.87V884.15H1445.87ZM1450.87 902.7H1374.97V912.7H1450.87V902.7ZM1369.97 907.7V977.75H1379.97V907.7H1369.97ZM1374.97 982.75H1467.82V972.75H1374.97V982.75ZM1462.82 977.75V1001H1472.82V977.75H1462.82ZM1467.82 996H1345.12V1006H1467.82V996ZM1350.12 1001V794.3H1340.12V1001H1350.12ZM1345.12 799.3H1465.57V789.3H1345.12V799.3ZM1460.62 793.571L1457.17 816.971L1467.06 818.429L1470.51 795.029L1460.62 793.571ZM1462.12 812.7H1374.97V822.7H1462.12V812.7ZM1554.85 817.7V812.7H1549.85V817.7H1554.85ZM1554.85 884.15H1549.85V889.15H1554.85V884.15ZM1630.75 884.15H1635.75V879.15H1630.75V884.15ZM1630.75 907.7V912.7H1635.75V907.7H1630.75ZM1554.85 907.7V902.7H1549.85V907.7H1554.85ZM1554.85 977.75H1549.85V982.75H1554.85V977.75ZM1647.7 977.75H1652.7V972.75H1647.7V977.75ZM1647.7 1001V1006H1652.7V1001H1647.7ZM1525 1001H1520V1006H1525V1001ZM1525 794.3V789.3H1520V794.3H1525ZM1645.45 794.3L1650.4 795.029L1651.24 789.3H1645.45V794.3ZM1642 817.7V822.7H1646.32L1646.95 818.429L1642 817.7ZM1549.85 817.7V884.15H1559.85V817.7H1549.85ZM1554.85 889.15H1630.75V879.15H1554.85V889.15ZM1625.75 884.15V907.7H1635.75V884.15H1625.75ZM1630.75 902.7H1554.85V912.7H1630.75V902.7ZM1549.85 907.7V977.75H1559.85V907.7H1549.85ZM1554.85 982.75H1647.7V972.75H1554.85V982.75ZM1642.7 977.75V1001H1652.7V977.75H1642.7ZM1647.7 996H1525V1006H1647.7V996ZM1530 1001V794.3H1520V1001H1530ZM1525 799.3H1645.45V789.3H1525V799.3ZM1640.5 793.571L1637.05 816.971L1646.95 818.429L1650.4 795.029L1640.5 793.571ZM1642 812.7H1554.85V822.7H1642V812.7ZM1785.13 1001L1780.47 1002.81L1781.71 1006H1785.13V1001ZM1715.38 821.75L1720.04 819.937L1710.39 822.035L1715.38 821.75ZM1716.58 839.75L1711.6 840.102L1711.6 840.134L1711.6 840.165L1716.58 839.75ZM1718.53 868.85L1713.54 869.122L1713.54 869.125L1718.53 868.85ZM1719.43 1001V1006H1724.43V1001H1719.43ZM1692.43 1001H1687.43V1006H1692.43V1001ZM1692.43 794.3V789.3H1687.43V794.3H1692.43ZM1731.88 794.3L1736.54 792.474L1735.29 789.3H1731.88V794.3ZM1802.38 974L1797.73 975.826L1807.37 973.706L1802.38 974ZM1801.03 957.05L1796.05 957.486L1796.05 957.491L1801.03 957.05ZM1799.08 928.7L1794.09 928.929L1794.09 928.952L1794.09 928.975L1799.08 928.7ZM1798.33 794.3V789.3H1793.33V794.3H1798.33ZM1825.33 794.3H1830.33V789.3H1825.33V794.3ZM1825.33 1001V1006H1830.33V1001H1825.33ZM1789.79 999.187L1720.04 819.937L1710.72 823.563L1780.47 1002.81L1789.79 999.187ZM1710.39 822.035C1710.59 825.572 1711 831.602 1711.6 840.102L1721.57 839.398C1720.97 830.898 1720.57 824.928 1720.37 821.465L1710.39 822.035ZM1711.6 840.165C1712.3 848.506 1712.94 858.156 1713.54 869.122L1723.53 868.578C1722.92 857.544 1722.27 847.794 1721.57 839.335L1711.6 840.165ZM1713.54 869.125C1714.14 879.933 1714.43 890.742 1714.43 901.55H1724.43C1724.43 890.558 1724.13 879.567 1723.53 868.575L1713.54 869.125ZM1714.43 901.55V1001H1724.43V901.55H1714.43ZM1719.43 996H1692.43V1006H1719.43V996ZM1697.43 1001V794.3H1687.43V1001H1697.43ZM1692.43 799.3H1731.88V789.3H1692.43V799.3ZM1727.23 796.126L1797.73 975.826L1807.04 972.174L1736.54 792.474L1727.23 796.126ZM1807.37 973.706C1807.17 970.226 1806.71 964.511 1806.01 956.609L1796.05 957.491C1796.75 965.389 1797.2 970.974 1797.39 974.294L1807.37 973.706ZM1806.01 956.614C1805.32 948.683 1804.67 939.289 1804.08 928.425L1794.09 928.975C1794.69 939.911 1795.35 949.417 1796.05 957.486L1806.01 956.614ZM1804.08 928.471C1803.58 917.657 1803.33 906.084 1803.33 893.75H1793.33C1793.33 906.216 1793.58 917.943 1794.09 928.929L1804.08 928.471ZM1803.33 893.75V794.3H1793.33V893.75H1803.33ZM1798.33 799.3H1825.33V789.3H1798.33V799.3ZM1820.33 794.3V1001H1830.33V794.3H1820.33ZM1825.33 996H1785.13V1006H1825.33V996Z" fill="#45AF0D"/>
<path d="M1052.6 696.27H739.543C742.93 650.282 735.449 623.991 703.42 576.081C703.42 576.081 557.738 429.285 558.932 311.667C560.579 149.385 698.395 8.95423 888.045 6.04487C1080.91 3.08617 1218.8 146.866 1229.2 311.667C1236.28 423.847 1076.68 576.081 1076.68 576.081M759.611 997.645C844.25 1047.44 891.704 1052.04 976.344 997.645" stroke="#45AF0D" stroke-width="12"/>
<defs>
<filter id="filter0_d" x="999.233" y="943.917" width="15.186" height="21.491" filterUnits="userSpaceOnUse" color-interpolation-filters="sRGB">
<feFlood flood-opacity="0" result="BackgroundImageFix"/>
<feColorMatrix in="SourceAlpha" type="matrix" values="0 0 0 0 0 0 0 0 0 0 0 0 0 0 0 0 0 0 127 0"/>
<feOffset dx="4"/>
<feGaussianBlur stdDeviation="2"/>
<feColorMatrix type="matrix" values="0 0 0 0 0 0 0 0 0 0 0 0 0 0 0 0 0 0 0.25 0"/>
<feBlend mode="normal" in2="BackgroundImageFix" result="effect1_dropShadow"/>
<feBlend mode="normal" in="SourceGraphic" in2="effect1_dropShadow" result="shape"/>
</filter>
<filter id="filter1_d" x="949.521" y="944.296" width="13.3034" height="20.2698" filterUnits="userSpaceOnUse" color-interpolation-filters="sRGB">
<feFlood flood-opacity="0" result="BackgroundImageFix"/>
<feColorMatrix in="SourceAlpha" type="matrix" values="0 0 0 0 0 0 0 0 0 0 0 0 0 0 0 0 0 0 127 0"/>
<feOffset dx="-4"/>
<feGaussianBlur stdDeviation="2"/>
<feColorMatrix type="matrix" values="0 0 0 0 0 0 0 0 0 0 0 0 0 0 0 0 0 0 0.25 0"/>
<feBlend mode="normal" in2="BackgroundImageFix" result="effect1_dropShadow"/>
<feBlend mode="normal" in="SourceGraphic" in2="effect1_dropShadow" result="shape"/>
</filter>
<filter id="filter2_d" x="704" y="738" width="328.619" height="106.573" filterUnits="userSpaceOnUse" color-interpolation-filters="sRGB">
<feFlood flood-opacity="0" result="BackgroundImageFix"/>
<feColorMatrix in="SourceAlpha" type="matrix" values="0 0 0 0 0 0 0 0 0 0 0 0 0 0 0 0 0 0 127 0"/>
<feOffset dy="7"/>
<feGaussianBlur stdDeviation="2"/>
<feColorMatrix type="matrix" values="0 0 0 0 0 0 0 0 0 0 0 0 0 0 0 0 0 0 0.25 0"/>
<feBlend mode="normal" in2="BackgroundImageFix" result="effect1_dropShadow"/>
<feBlend mode="normal" in="SourceGraphic" in2="effect1_dropShadow" result="shape"/>
</filter>
<clipPath id="clip0">
<rect width="123.976" height="397.62" fill="white" transform="translate(755.22 304.317)"/>
</clipPath>
<clipPath id="clip1">
<rect width="149.804" height="397.62" fill="white" transform="matrix(-1 0 0 1 1033.13 304.317)"/>
</clipPath>
<clipPath id="clip2">
<rect width="109.108" height="394.412" fill="white" transform="matrix(-0.935973 0.352073 0.302421 0.953175 862.487 286.928)"/>
</clipPath>
</defs>
</svg>
