<svg width="32" height="33" viewBox="0 0 32 33" fill="none" xmlns="http://www.w3.org/2000/svg">
<path d="M15.0936 21.4642C16.2383 21.4642 16.1867 21.4107 16.1867 21.3135C16.1867 21.2163 16.2383 21.1122 15.0936 21.1122C13.9489 21.1122 13.9174 21.367 13.9174 21.4642C13.9174 21.5615 13.984 21.3135 15.0936 21.4642Z" fill="#3F3D56" fill-opacity="0.7"/>
<g clip-path="url(#clip0)">
<path d="M14.625 20.8246C14.625 20.8246 14.7499 20.6041 14.8737 20.7611C14.8737 20.7611 14.8356 20.9575 14.6789 20.9389L14.625 20.8246Z" fill="#F1F2F6"/>
<path d="M14.6098 20.8365C14.6098 20.8365 14.5717 21.2248 14.667 21.4873C14.667 21.4873 14.7243 21.3275 14.6675 20.9364L14.6098 20.8365Z" fill="#F1F2F6"/>
<path d="M14.4539 20.4647C14.4539 20.4647 14.4633 20.1352 14.7411 20.2444C14.7411 20.2444 14.7424 20.4569 14.6448 20.5577C14.5472 20.6584 14.5027 20.5735 14.4539 20.4647Z" fill="#F1F2F6"/>
<path d="M14.4369 20.4625C14.4369 20.4625 14.3194 20.563 14.4241 21.261C14.4241 21.261 14.5016 21.2148 14.5153 20.9372C14.529 20.6597 14.4878 20.5635 14.4369 20.4625Z" fill="#F1F2F6"/>
<path d="M14.2795 19.994C14.2795 19.994 14.2637 19.4519 14.5476 19.5077C14.5476 19.5077 14.5678 19.9983 14.3297 20.1243L14.2795 19.994Z" fill="#F1F2F6"/>
<path d="M14.0919 19.3831C14.0919 19.3831 14.1308 18.7689 14.4147 18.952C14.4147 18.952 14.4158 19.4831 14.1382 19.5298L14.0919 19.3831Z" fill="#F1F2F6"/>
<path d="M13.9547 18.7506C13.9547 18.7506 14.0204 18.1507 14.3012 18.3314C14.3012 18.3314 14.2343 18.8694 13.9734 18.8611L13.9547 18.7506Z" fill="#F1F2F6"/>
<path d="M13.8245 18.1327C13.8245 18.1327 13.8882 17.5117 14.1597 17.6981C14.1597 17.6981 14.0691 18.2881 13.8424 18.2384L13.8245 18.1327Z" fill="#F1F2F6"/>
<path d="M13.7405 17.5456C13.7405 17.5456 13.7895 16.7863 14.0427 16.9543C14.0427 16.9543 13.9691 17.6451 13.7592 17.6561L13.7405 17.5456Z" fill="#F1F2F6"/>
<path d="M13.6618 16.8365C13.6618 16.8365 13.7206 16.0712 13.9765 16.2937C13.9765 16.2937 13.876 17.0171 13.6796 16.9423L13.6618 16.8365Z" fill="#F1F2F6"/>
<path d="M13.6131 16.1759C13.6131 16.1759 13.7064 15.4103 13.9045 15.4311C13.9045 15.4311 13.809 16.2397 13.6296 16.3294L13.6131 16.1759Z" fill="#F1F2F6"/>
<path d="M13.5821 15.5326C13.5821 15.5326 13.6837 14.611 13.8449 14.6823C13.8449 14.6823 13.7746 15.3856 13.5878 15.6763L13.5821 15.5326Z" fill="#F1F2F6"/>
<path d="M13.5645 14.7634C13.5645 14.7634 13.6597 13.9956 13.8189 13.9654C13.8189 13.9654 13.754 14.721 13.568 14.9634L13.5645 14.7634Z" fill="#F1F2F6"/>
<path d="M13.5453 14.0473C13.5453 14.0473 13.6641 13.2784 13.7692 13.2611C13.7692 13.2611 13.7176 14.0182 13.5558 14.1734L13.5453 14.0473Z" fill="#F1F2F6"/>
<path d="M13.532 13.3804C13.532 13.3804 13.605 12.5454 13.7103 12.4761C13.7103 12.4761 13.6959 13.1588 13.5428 13.4427L13.532 13.3804Z" fill="#F1F2F6"/>
<path d="M13.4926 12.5085C13.4926 12.5085 13.5693 11.8431 13.6544 11.7416C13.6544 11.7416 13.6376 12.5261 13.5123 12.671L13.4926 12.5085Z" fill="#F1F2F6"/>
<path d="M13.4597 11.9343L13.4442 10.761C13.4442 10.761 13.603 11.6467 13.4714 12.1413L13.4597 11.9343Z" fill="#F1F2F6"/>
<path d="M13.3369 10.7683C13.3369 10.7683 13.2224 9.91145 13.1949 9.86397C13.1949 9.86397 13.4195 10.4199 13.3975 11.135L13.3369 10.7683Z" fill="#F1F2F6"/>
<path d="M14.2718 19.9912C14.2718 19.9912 14.0705 19.9207 14.0765 20.6825C14.0765 20.6825 14.2585 20.7619 14.3179 20.1319L14.2718 19.9912Z" fill="#F1F2F6"/>
<path d="M14.0824 19.3627C14.0824 19.3627 13.8497 19.3605 13.8686 20.1414C13.8686 20.1414 14.0639 20.2349 14.1284 19.5109L14.0824 19.3627Z" fill="#F1F2F6"/>
<path d="M13.9525 18.8011C13.9525 18.8011 13.7413 18.5371 13.606 19.2203C13.606 19.2203 13.8012 19.4411 13.9712 18.9116L13.9525 18.8011Z" fill="#F1F2F6"/>
<path d="M13.8198 18.1385C13.8198 18.1385 13.6035 17.8561 13.4765 18.5251C13.4765 18.5251 13.7017 18.7325 13.8377 18.2442L13.8198 18.1385Z" fill="#F1F2F6"/>
<path d="M13.7432 17.5622C13.7432 17.5622 13.5351 17.0297 13.3689 17.5683C13.3689 17.5683 13.5817 18.0063 13.7528 17.6808L13.7432 17.5622Z" fill="#F1F2F6"/>
<path d="M13.6736 16.8184C13.6736 16.8184 13.4642 16.2739 13.2993 16.8436C13.2993 16.8436 13.5344 17.2902 13.681 16.9327L13.6736 16.8184Z" fill="#F1F2F6"/>
<path d="M13.6348 16.1548C13.6348 16.1548 13.4735 15.4766 13.2834 15.6273C13.2834 15.6273 13.4509 16.3472 13.633 16.3151L13.6348 16.1548Z" fill="#F1F2F6"/>
<path d="M13.5869 15.5283C13.5869 15.5283 13.4241 14.672 13.2705 14.8207C13.2705 14.8207 13.3877 15.4788 13.591 15.6722L13.5869 15.5283Z" fill="#F1F2F6"/>
<path d="M13.5756 14.719C13.5756 14.719 13.4085 14.0448 13.2519 14.1272C13.2519 14.1272 13.3885 14.8107 13.5919 14.9139L13.5756 14.719Z" fill="#F1F2F6"/>
<path d="M13.5629 14.0322C13.5629 14.0322 13.4334 13.2759 13.3283 13.2694C13.3283 13.2694 13.3905 14.0204 13.5544 14.1593L13.5629 14.0322Z" fill="#F1F2F6"/>
<path d="M13.5373 13.3638C13.5373 13.3638 13.3932 12.5979 13.285 12.5964C13.285 12.5964 13.3588 13.2513 13.5324 13.4314L13.5373 13.3638Z" fill="#F1F2F6"/>
<path d="M13.5156 12.5547C13.5156 12.5547 13.4078 11.9207 13.3185 11.8489C13.3185 11.8489 13.3724 12.6216 13.5036 12.7228L13.5156 12.5547Z" fill="#F1F2F6"/>
<path d="M13.4471 11.9122L13.2062 10.9308C13.2062 10.9308 13.2679 11.8989 13.482 12.0993L13.4471 11.9122Z" fill="#F1F2F6"/>
<path d="M13.2817 10.8474C13.2817 10.8474 13.0019 10.3305 12.9918 10.2478C12.9918 10.2478 13.1345 10.972 13.3983 11.0996L13.2817 10.8474Z" fill="#F1F2F6"/>
<path d="M13.2649 10.6148C13.2649 10.6148 12.9437 9.78835 12.8614 9.7891C12.8614 9.7891 13.1263 9.82151 13.2723 10.5708L13.2649 10.6148Z" fill="#F1F2F6"/>
<path d="M13.5128 12.6773L13.5011 12.6813C13.4407 11.4166 13.3527 10.6693 13.2532 10.5769L13.2572 10.547C13.3626 10.6449 13.4507 11.3817 13.5128 12.6773Z" fill="#444053"/>
<path d="M13.6012 15.7011L13.5835 15.7052C13.5798 15.5871 13.5769 15.4663 13.575 15.346C13.5582 14.299 13.532 13.3379 13.4977 12.6173L13.5079 12.5836C13.5423 13.3053 13.5758 14.2957 13.5923 15.3437C13.5947 15.4635 13.5972 15.5836 13.6012 15.7011Z" fill="#444053"/>
<path d="M14.9549 21.4258C14.9518 21.422 14.6406 21.0502 14.3175 20.1628C14.1284 19.6433 13.9711 19.047 13.8516 18.3959C13.7023 17.5826 13.6113 16.5826 13.5808 15.6107L13.5996 15.6338C13.6682 17.8152 14.0391 19.3065 14.3341 20.1176C14.654 20.9967 14.9617 21.3652 14.9648 21.3687L14.9549 21.4258Z" fill="#444053"/>
</g>
<g clip-path="url(#clip1)">
<path d="M15.464 20.8246C15.464 20.8246 15.3131 20.6041 15.1635 20.7611C15.1635 20.7611 15.2095 20.9575 15.3989 20.9389L15.464 20.8246Z" fill="#F1F2F6"/>
<path d="M15.4825 20.8365C15.4825 20.8365 15.5284 21.2248 15.4133 21.4873C15.4133 21.4873 15.3441 21.3275 15.4128 20.9364L15.4825 20.8365Z" fill="#F1F2F6"/>
<path d="M15.6707 20.4647C15.6707 20.4647 15.6594 20.1352 15.3237 20.2444C15.3237 20.2444 15.3222 20.4569 15.4401 20.5577C15.558 20.6584 15.6119 20.5735 15.6707 20.4647Z" fill="#F1F2F6"/>
<path d="M15.6914 20.4625C15.6914 20.4625 15.8333 20.563 15.7068 21.261C15.7068 21.261 15.6131 21.2148 15.5966 20.9372C15.58 20.6597 15.6298 20.5635 15.6914 20.4625Z" fill="#F1F2F6"/>
<path d="M15.8815 19.994C15.8815 19.994 15.9007 19.4519 15.5575 19.5077C15.5575 19.5077 15.5332 19.9983 15.8208 20.1243L15.8815 19.994Z" fill="#F1F2F6"/>
<path d="M16.1082 19.3831C16.1082 19.3831 16.0612 18.7689 15.7182 18.952C15.7182 18.952 15.7168 19.4831 16.0523 19.5298L16.1082 19.3831Z" fill="#F1F2F6"/>
<path d="M16.2739 18.7506C16.2739 18.7506 16.1945 18.1507 15.8553 18.3314C15.8553 18.3314 15.9361 18.8694 16.2513 18.8611L16.2739 18.7506Z" fill="#F1F2F6"/>
<path d="M16.4313 18.1327C16.4313 18.1327 16.3543 17.5117 16.0263 17.6981C16.0263 17.6981 16.1358 18.2881 16.4098 18.2384L16.4313 18.1327Z" fill="#F1F2F6"/>
<path d="M16.5328 17.5456C16.5328 17.5456 16.4736 16.7863 16.1677 16.9543C16.1677 16.9543 16.2566 17.6451 16.5102 17.6561L16.5328 17.5456Z" fill="#F1F2F6"/>
<path d="M16.6279 16.8365C16.6279 16.8365 16.5568 16.0712 16.2476 16.2937C16.2476 16.2937 16.369 17.0171 16.6064 16.9423L16.6279 16.8365Z" fill="#F1F2F6"/>
<path d="M16.6868 16.1759C16.6868 16.1759 16.5741 15.4103 16.3347 15.4311C16.3347 15.4311 16.45 16.2397 16.6668 16.3294L16.6868 16.1759Z" fill="#F1F2F6"/>
<path d="M16.7242 15.5326C16.7242 15.5326 16.6015 14.611 16.4067 14.6823C16.4067 14.6823 16.4917 15.3856 16.7173 15.6763L16.7242 15.5326Z" fill="#F1F2F6"/>
<path d="M16.7455 14.7634C16.7455 14.7634 16.6304 13.9956 16.4381 13.9654C16.4381 13.9654 16.5165 14.721 16.7412 14.9634L16.7455 14.7634Z" fill="#F1F2F6"/>
<path d="M16.7688 14.0473C16.7688 14.0473 16.6252 13.2784 16.4982 13.2611C16.4982 13.2611 16.5605 14.0182 16.7561 14.1734L16.7688 14.0473Z" fill="#F1F2F6"/>
<path d="M16.7848 13.3804C16.7848 13.3804 16.6965 12.5454 16.5693 12.4761C16.5693 12.4761 16.5867 13.1588 16.7717 13.4427L16.7848 13.3804Z" fill="#F1F2F6"/>
<path d="M16.8323 12.5085C16.8323 12.5085 16.7396 11.8431 16.6369 11.7416C16.6369 11.7416 16.6572 12.5261 16.8085 12.671L16.8323 12.5085Z" fill="#F1F2F6"/>
<path d="M16.8722 11.9343L16.8909 10.761C16.8909 10.761 16.699 11.6467 16.858 12.1413L16.8722 11.9343Z" fill="#F1F2F6"/>
<path d="M17.0204 10.7683C17.0204 10.7683 17.1588 9.91145 17.192 9.86397C17.192 9.86397 16.9206 10.4199 16.9472 11.135L17.0204 10.7683Z" fill="#F1F2F6"/>
<path d="M15.8908 19.9912C15.8908 19.9912 16.1341 19.9207 16.1269 20.6825C16.1269 20.6825 15.9069 20.7619 15.8351 20.1319L15.8908 19.9912Z" fill="#F1F2F6"/>
<path d="M16.1197 19.3627C16.1197 19.3627 16.4009 19.3605 16.378 20.1414C16.378 20.1414 16.1421 20.2349 16.0642 19.5109L16.1197 19.3627Z" fill="#F1F2F6"/>
<path d="M16.2767 18.8011C16.2767 18.8011 16.5319 18.5371 16.6953 19.2203C16.6953 19.2203 16.4594 19.4411 16.2541 18.9116L16.2767 18.8011Z" fill="#F1F2F6"/>
<path d="M16.437 18.1385C16.437 18.1385 16.6984 17.8561 16.8519 18.5251C16.8519 18.5251 16.5798 18.7325 16.4155 18.2442L16.437 18.1385Z" fill="#F1F2F6"/>
<path d="M16.5295 17.5622C16.5295 17.5622 16.781 17.0297 16.9818 17.5683C16.9818 17.5683 16.7247 18.0063 16.5179 17.6808L16.5295 17.5622Z" fill="#F1F2F6"/>
<path d="M16.6136 16.8184C16.6136 16.8184 16.8667 16.2739 17.0659 16.8436C17.0659 16.8436 16.7818 17.2902 16.6047 16.9327L16.6136 16.8184Z" fill="#F1F2F6"/>
<path d="M16.6606 16.1548C16.6606 16.1548 16.8555 15.4766 17.0851 15.6273C17.0851 15.6273 16.8828 16.3472 16.6627 16.3151L16.6606 16.1548Z" fill="#F1F2F6"/>
<path d="M16.7184 15.5283C16.7184 15.5283 16.9151 14.672 17.1007 14.8207C17.1007 14.8207 16.9591 15.4788 16.7134 15.6722L16.7184 15.5283Z" fill="#F1F2F6"/>
<path d="M16.732 14.719C16.732 14.719 16.9339 14.0448 17.1232 14.1272C17.1232 14.1272 16.9581 14.8107 16.7124 14.9139L16.732 14.719Z" fill="#F1F2F6"/>
<path d="M16.7474 14.0322C16.7474 14.0322 16.9039 13.2759 17.0309 13.2694C17.0309 13.2694 16.9557 14.0204 16.7577 14.1593L16.7474 14.0322Z" fill="#F1F2F6"/>
<path d="M16.7784 13.3638C16.7784 13.3638 16.9525 12.5979 17.0832 12.5964C17.0832 12.5964 16.9941 13.2513 16.7843 13.4314L16.7784 13.3638Z" fill="#F1F2F6"/>
<path d="M16.8046 12.5547C16.8046 12.5547 16.9347 11.9207 17.0427 11.8489C17.0427 11.8489 16.9776 12.6216 16.8191 12.7228L16.8046 12.5547Z" fill="#F1F2F6"/>
<path d="M16.8874 11.9122L17.1784 10.9308C17.1784 10.9308 17.1039 11.8989 16.8452 12.0993L16.8874 11.9122Z" fill="#F1F2F6"/>
<path d="M17.0872 10.8474C17.0872 10.8474 17.4252 10.3305 17.4375 10.2478C17.4375 10.2478 17.265 10.972 16.9463 11.0996L17.0872 10.8474Z" fill="#F1F2F6"/>
<path d="M17.1074 10.6148C17.1074 10.6148 17.4956 9.78835 17.595 9.7891C17.595 9.7891 17.2749 9.82151 17.0985 10.5708L17.1074 10.6148Z" fill="#F1F2F6"/>
<path d="M16.808 12.6773L16.8222 12.6813C16.8951 11.4166 17.0015 10.6693 17.1216 10.5769L17.1169 10.547C16.9894 10.6449 16.8831 11.3817 16.808 12.6773Z" fill="#444053"/>
<path d="M16.7012 15.7011L16.7225 15.7052C16.727 15.5871 16.7305 15.4663 16.7328 15.346C16.7531 14.299 16.7848 13.3379 16.8263 12.6173L16.8139 12.5836C16.7723 13.3053 16.7318 14.2957 16.7119 15.3437C16.709 15.4635 16.706 15.5836 16.7012 15.7011Z" fill="#444053"/>
<path d="M15.0654 21.4258C15.0692 21.422 15.4452 21.0502 15.8356 20.1628C16.0641 19.6433 16.2542 19.047 16.3985 18.3959C16.5789 17.5826 16.6889 16.5826 16.7258 15.6107L16.7031 15.6338C16.6202 17.8152 16.172 19.3065 15.8155 20.1176C15.429 20.9967 15.0572 21.3652 15.0534 21.3687L15.0654 21.4258Z" fill="#444053"/>
</g>
<g clip-path="url(#clip2)">
<path d="M15.1523 20.6552C15.1523 20.6552 15.0111 20.5135 14.9364 20.7283C14.9364 20.7283 15.0019 20.8936 15.1277 20.7921L15.1523 20.6552Z" fill="#F1F2F6"/>
<path d="M15.167 20.6582C15.167 20.6582 15.2657 21.005 15.2328 21.3042C15.2328 21.3042 15.1579 21.1839 15.1368 20.7836L15.167 20.6582Z" fill="#F1F2F6"/>
<path d="M15.2305 20.2231C15.2305 20.2231 15.1656 19.9166 14.9557 20.1687C14.9557 20.1687 14.9915 20.3703 15.0894 20.4132C15.1873 20.4562 15.2093 20.3521 15.2305 20.2231Z" fill="#F1F2F6"/>
<path d="M15.2444 20.2119C15.2444 20.2119 15.3586 20.244 15.3935 20.9601C15.3935 20.9601 15.3216 20.9579 15.2621 20.7028C15.2027 20.4477 15.2199 20.3347 15.2444 20.2119Z" fill="#F1F2F6"/>
<path d="M15.293 19.6848C15.293 19.6848 15.212 19.1638 14.9877 19.3686C14.9877 19.3686 15.0563 19.8433 15.2742 19.835L15.293 19.6848Z" fill="#F1F2F6"/>
<path d="M15.341 19.0066C15.341 19.0066 15.2024 18.4467 15.0004 18.7719C15.0004 18.7719 15.0916 19.2746 15.3284 19.1701L15.341 19.0066Z" fill="#F1F2F6"/>
<path d="M15.3446 18.3352C15.3446 18.3352 15.1864 17.8033 14.9865 18.1244C14.9865 18.1244 15.135 18.5973 15.3484 18.4497L15.3446 18.3352Z" fill="#F1F2F6"/>
<path d="M15.3446 17.6812C15.3446 17.6812 15.1843 17.1282 14.9931 17.4499C14.9931 17.4499 15.1701 17.9592 15.3483 17.7907L15.3446 17.6812Z" fill="#F1F2F6"/>
<path d="M15.3118 17.0811C15.3118 17.0811 15.1397 16.3894 14.9603 16.6839C14.9603 16.6839 15.1408 17.2976 15.3156 17.1956L15.3118 17.0811Z" fill="#F1F2F6"/>
<path d="M15.2534 16.3684C15.2534 16.3684 15.0721 15.6763 14.9 16.0238C14.9 16.0238 15.1083 16.6539 15.2571 16.478L15.2534 16.3684Z" fill="#F1F2F6"/>
<path d="M15.1793 15.7179C15.1793 15.7179 14.9696 15.044 14.8101 15.1698C14.8101 15.1698 15.029 15.8832 15.1924 15.8719L15.1793 15.7179Z" fill="#F1F2F6"/>
<path d="M15.0931 15.0931C15.0931 15.0931 14.8495 14.2761 14.7291 14.4299C14.7291 14.4299 14.9091 15.0572 15.1133 15.232L15.0931 15.0931Z" fill="#F1F2F6"/>
<path d="M14.9741 14.3564C14.9741 14.3564 14.7624 13.6814 14.6261 13.7381C14.6261 13.7381 14.8106 14.4178 15.0059 14.5473L14.9741 14.3564Z" fill="#F1F2F6"/>
<path d="M14.8657 13.669C14.8657 13.669 14.6344 13.0056 14.5448 13.0455C14.5448 13.0455 14.7186 13.7338 14.8789 13.7938L14.8657 13.669Z" fill="#F1F2F6"/>
<path d="M14.7611 13.0315C14.7611 13.0315 14.5561 12.2811 14.4573 12.272C14.4573 12.272 14.5876 12.9098 14.763 13.0961L14.7611 13.0315Z" fill="#F1F2F6"/>
<path d="M14.6418 12.1858C14.6418 12.1858 14.463 11.5978 14.3754 11.5473C14.3754 11.5473 14.5254 12.28 14.6537 12.35L14.6418 12.1858Z" fill="#F1F2F6"/>
<path d="M14.5695 11.6253L14.3787 10.5077C14.3787 10.5077 14.4016 11.4302 14.5958 11.8273L14.5695 11.6253Z" fill="#F1F2F6"/>
<path d="M14.468 10.457C14.468 10.457 14.4136 9.58559 14.428 9.52598C14.428 9.52598 14.3395 10.1718 14.4817 10.8362L14.468 10.457Z" fill="#F1F2F6"/>
<path d="M15.2989 19.6781C15.2989 19.6781 15.4525 19.5035 15.5797 20.227C15.5797 20.227 15.4436 20.3996 15.2853 19.8358L15.2989 19.6781Z" fill="#F1F2F6"/>
<path d="M15.3454 18.9822C15.3454 18.9822 15.5367 18.8554 15.6567 19.6039C15.6567 19.6039 15.512 19.7969 15.3333 19.147L15.3454 18.9822Z" fill="#F1F2F6"/>
<path d="M15.355 18.3816C15.355 18.3816 15.4832 18.0189 15.7131 18.5924C15.7131 18.5924 15.5907 18.9057 15.3588 18.4961L15.355 18.3816Z" fill="#F1F2F6"/>
<path d="M15.3497 17.6842C15.3497 17.6842 15.4788 17.3014 15.6996 17.8658C15.6996 17.8658 15.5501 18.1826 15.3533 17.7937L15.3497 17.6842Z" fill="#F1F2F6"/>
<path d="M15.3125 17.0983C15.3125 17.0983 15.3915 16.4833 15.6219 16.9035C15.6219 16.9035 15.5227 17.4316 15.3252 17.2155L15.3125 17.0983Z" fill="#F1F2F6"/>
<path d="M15.2406 16.3577C15.2406 16.3577 15.3186 15.7306 15.5532 16.1809C15.5532 16.1809 15.437 16.7292 15.2543 16.4697L15.2406 16.3577Z" fill="#F1F2F6"/>
<path d="M15.1576 15.7095C15.1576 15.7095 15.1728 14.9819 15.3554 15.0226C15.3554 15.0226 15.3425 15.7929 15.1869 15.86L15.1576 15.7095Z" fill="#F1F2F6"/>
<path d="M15.0886 15.0917C15.0886 15.0917 15.0741 14.1948 15.2265 14.2532C15.2265 14.2532 15.2441 14.9382 15.1102 15.23L15.0886 15.0917Z" fill="#F1F2F6"/>
<path d="M14.9573 14.3204C14.9573 14.3204 14.9779 13.5934 15.1212 13.5874C15.1212 13.5874 15.1273 14.3068 14.9777 14.5134L14.9573 14.3204Z" fill="#F1F2F6"/>
<path d="M14.8486 13.6642C14.8486 13.6642 14.824 12.8797 14.9094 12.8173C14.9094 12.8173 14.9885 13.5607 14.8776 13.7798L14.8486 13.6642Z" fill="#F1F2F6"/>
<path d="M14.7537 13.0185C14.7537 13.0185 14.7394 12.2172 14.8283 12.1578C14.8283 12.1578 14.8812 12.8165 14.7694 13.0798L14.7537 13.0185Z" fill="#F1F2F6"/>
<path d="M14.631 12.2419C14.631 12.2419 14.6097 11.5847 14.6709 11.469C14.6709 11.469 14.7606 12.2283 14.6701 12.3943L14.631 12.2419Z" fill="#F1F2F6"/>
<path d="M14.576 11.5977L14.6041 10.5408C14.6041 10.5408 14.7213 11.4891 14.5797 11.7933L14.576 11.5977Z" fill="#F1F2F6"/>
<path d="M14.5273 10.5022C14.5273 10.5022 14.668 9.86365 14.662 9.78008C14.662 9.78008 14.6701 10.5412 14.475 10.8032L14.5273 10.5022Z" fill="#F1F2F6"/>
<path d="M14.501 10.2735C14.501 10.2735 14.6222 9.32006 14.6901 9.27669C14.6901 9.27669 14.4775 9.44921 14.4873 10.2359L14.501 10.2735Z" fill="#F1F2F6"/>
<path d="M14.6549 12.3564L14.6653 12.3539C14.4955 11.1258 14.4383 10.3721 14.5042 10.2314L14.4958 10.2053C14.4259 10.3544 14.4812 11.0981 14.6549 12.3564Z" fill="#444053"/>
<path d="M15.1065 15.2625L15.1217 15.2569C15.1043 15.1433 15.0857 15.0275 15.0664 14.9127C14.8986 13.9138 14.7533 12.9911 14.6566 12.2914L14.6423 12.265C14.7392 12.9658 14.8835 13.9202 15.0517 14.9199C15.0706 15.0344 15.0893 15.1493 15.1065 15.2625Z" fill="#444053"/>
<path d="M14.9851 21.4003C14.987 21.395 15.1788 20.8769 15.291 19.8648C15.3566 19.2723 15.3827 18.6243 15.3681 17.9447C15.3499 17.0957 15.2514 16.1015 15.1078 15.1663L15.0964 15.1982C15.4184 17.2973 15.3717 18.906 15.2694 19.8309C15.1585 20.8335 14.969 21.3467 14.967 21.3517L14.9851 21.4003Z" fill="#444053"/>
</g>
<path d="M12.8839 28.7314C12.6684 28.73 12.5153 28.5934 12.4153 28.4003C12.3137 28.2041 12.2613 27.9384 12.2619 27.6676C12.2625 27.3967 12.316 27.1315 12.418 26.9365C12.5183 26.7446 12.6707 26.6104 12.8831 26.6118C13.5177 26.6159 14.1352 26.6159 14.5941 26.6148C14.8235 26.6143 15.0133 26.6136 15.1457 26.6129C15.212 26.6126 15.2638 26.6123 15.2992 26.6121C15.3168 26.612 15.3304 26.6119 15.3395 26.6119L15.3533 26.6118C15.3533 26.6118 15.3533 26.6118 15.3529 26.4352C15.3525 26.2585 15.3525 26.2585 15.3525 26.2585L15.3387 26.2586C15.3296 26.2587 15.3161 26.2588 15.2985 26.2589C15.2632 26.2591 15.2113 26.2593 15.1452 26.2597C15.0128 26.2603 14.8232 26.2611 14.5938 26.2616C14.1352 26.2626 13.518 26.2626 12.8839 26.2585C12.6165 26.2568 12.4077 26.4294 12.2664 26.6996C12.1267 26.9667 12.0583 27.3189 12.0575 27.6662C12.0568 28.0135 12.1237 28.3668 12.263 28.6359C12.4039 28.908 12.6133 29.0829 12.8831 29.0846C14.1861 29.0932 15.4125 29.0932 16.3131 29.0911C16.372 29.0909 16.4294 29.0908 16.4854 29.0906L16.4092 28.7376L16.4088 28.7358C16.3772 28.7359 16.3452 28.7377 16.3128 28.7378C15.4125 28.7399 14.1865 28.7399 12.8839 28.7314Z" fill="#F1F2F6"/>
<path d="M17.388 28.7338C17.2672 28.7344 17.1213 28.7351 16.9537 28.7358L17.0389 29.0887L16.4854 29.0906C16.8579 29.0896 17.1658 29.0882 17.3886 29.0871C17.5167 29.0864 17.6167 29.0858 17.6847 29.0853C17.7187 29.0851 17.7447 29.085 17.7622 29.0848L17.7886 29.0846C17.7886 29.0846 17.7887 29.0846 17.7882 28.908C17.7878 28.7314 17.7878 28.7314 17.7878 28.7314L17.7614 28.7316C17.7439 28.7317 17.7179 28.7319 17.684 28.7321C17.616 28.7325 17.5161 28.7331 17.388 28.7338Z" fill="#F1F2F6"/>
<path d="M16.9537 28.7358C16.7916 28.7364 16.6091 28.737 16.4092 28.7376L16.4854 29.0906L17.0389 29.0887L16.9537 28.7358Z" fill="#F1F2F6"/>
<path d="M16.3128 28.7378C15.4125 28.7399 14.1865 28.7399 12.8839 28.7314C12.6684 28.73 12.5153 28.5934 12.4153 28.4003C12.3137 28.2041 12.2613 27.9384 12.2619 27.6676C12.2625 27.3967 12.316 27.1315 12.418 26.9365C12.5183 26.7446 12.6707 26.6104 12.8831 26.6118C13.5177 26.6159 14.1352 26.6159 14.5941 26.6148C14.8235 26.6143 15.0133 26.6136 15.1457 26.6129C15.212 26.6126 15.2638 26.6123 15.2992 26.6121C15.3168 26.612 15.3304 26.6119 15.3395 26.6119L15.3533 26.6118C15.3533 26.6118 15.3533 26.6118 15.3529 26.4352C15.3525 26.2585 15.3525 26.2585 15.3525 26.2585L15.3387 26.2586C15.3296 26.2587 15.3161 26.2588 15.2985 26.2589C15.2632 26.2591 15.2113 26.2593 15.1452 26.2597C15.0128 26.2603 14.8232 26.2611 14.5938 26.2616C14.1352 26.2626 13.518 26.2626 12.8839 26.2585C12.6165 26.2568 12.4077 26.4294 12.2664 26.6996C12.1267 26.9667 12.0583 27.3189 12.0575 27.6662C12.0568 28.0135 12.1237 28.3668 12.263 28.6359C12.4039 28.908 12.6133 29.0829 12.8831 29.0846C14.1861 29.0932 15.4125 29.0932 16.3131 29.0911M16.3128 28.7378C16.3452 28.7377 16.3772 28.7359 16.4088 28.7358M16.3128 28.7378C16.3454 28.7377 16.3775 28.7376 16.4092 28.7376M17.388 28.7338C17.5161 28.7331 17.616 28.7325 17.684 28.7321C17.7179 28.7319 17.7439 28.7317 17.7614 28.7316L17.7878 28.7314C17.7878 28.7314 17.7878 28.7314 17.7882 28.908C17.7887 29.0846 17.7886 29.0846 17.7886 29.0846L17.7622 29.0848C17.7447 29.085 17.7187 29.0851 17.6847 29.0853C17.6167 29.0858 17.5167 29.0864 17.3886 29.0871M17.388 28.7338C17.2672 28.7344 17.1213 28.7351 16.9537 28.7358M17.388 28.7338C17.1503 28.735 16.8157 28.7365 16.4092 28.7376M17.3886 29.0871C17.1323 29.0884 16.7634 29.09 16.3131 29.0911M17.3886 29.0871C17.1658 29.0882 16.8579 29.0896 16.4854 29.0906M16.3131 29.0911C16.372 29.0909 16.4294 29.0908 16.4854 29.0906M16.4088 28.7358H16.9537M16.4088 28.7358L16.4092 28.7376M16.4854 29.0906L17.0389 29.0887L16.9537 28.7358M16.4854 29.0906L16.4092 28.7376M16.9537 28.7358C16.7916 28.7364 16.6091 28.737 16.4092 28.7376" stroke="#F1F2F6" stroke-width="0.2"/>
<path d="M17.5178 25.1861C17.5178 25.1861 13.359 25.182 12.7203 25.1861C12.0816 25.1903 11.8046 22.7328 12.9025 22.728C14.0005 22.7232 15.2919 22.728 15.2919 22.728" stroke="#F1F2F6" stroke-width="0.7"/>
<path d="M17.9262 21.3207H12.5947C12.6524 19.9669 12.525 19.1929 11.9796 17.7825C11.9796 17.7825 9.49853 13.461 9.51886 9.99847C9.54691 5.22107 11.894 1.08697 15.1238 1.00132C18.4084 0.91422 20.7566 5.14693 20.9337 9.99847C21.0543 13.3009 18.3363 17.7825 18.3363 17.7825M12.9365 30.1929C14.3779 31.6588 15.1861 31.7942 16.6275 30.1929" stroke="#F1F2F6"/>
<defs>
<clipPath id="clip0">
<rect width="2.11135" height="11.7055" fill="white" transform="translate(12.8617 9.78209)"/>
</clipPath>
<clipPath id="clip1">
<rect width="2.55122" height="11.7055" fill="white" transform="matrix(-1 0 0 1 17.5947 9.78209)"/>
</clipPath>
<clipPath id="clip2">
<rect width="2.0745" height="11.2522" fill="white" transform="matrix(-0.838356 0.545124 0.180529 0.98357 14.6885 9.27019)"/>
</clipPath>
</defs>
</svg>
