<svg width="3452" height="1992" viewBox="0 0 3452 1992" fill="none" xmlns="http://www.w3.org/2000/svg">
<g clip-path="url(#clip0)">
<path d="M155.883 350.613H901.515C1078.36 350.613 1147.67 307.334 1147.67 254.742C1147.67 202.15 1053.27 158.324 938.558 158.324C823.845 158.324 729.446 201.602 729.446 254.194" stroke="#C6CBE1" stroke-width="8" stroke-miterlimit="10" stroke-linecap="round"/>
<path d="M155.883 311.169H455.809C535.869 311.169 566.937 293.09 566.937 271.177C566.937 249.264 527.504 231.185 479.707 231.185C448.639 231.185 421.156 238.855 405.622 250.359" stroke="#B1B6CA" stroke-width="8" stroke-miterlimit="10" stroke-linecap="round"/>
<path d="M155.883 391.7H815.481C958.872 391.7 999.499 421.831 999.499 459.083C999.499 496.336 933.778 526.467 852.524 526.467C771.269 526.467 705.548 496.336 705.548 459.083" stroke="#B1B6CA" stroke-width="8" stroke-miterlimit="10" stroke-linecap="round"/>
<path d="M1326.67 999.794H2072.3C2249.15 999.794 2318.45 956.515 2318.45 903.923C2318.45 851.331 2224.05 807.505 2109.34 807.505C1994.63 807.505 1900.23 850.783 1900.23 903.375" stroke="#C6CBE1" stroke-width="8" stroke-miterlimit="10" stroke-linecap="round"/>
<path d="M1326.67 960.35H1626.59C1706.65 960.35 1737.72 942.271 1737.72 920.358C1737.72 898.445 1698.29 880.366 1650.49 880.366C1619.42 880.366 1591.94 888.036 1576.41 899.541" stroke="#B1B6CA" stroke-width="8" stroke-miterlimit="10" stroke-linecap="round"/>
<path d="M1326.67 1040.88H1986.26C2129.65 1040.88 2170.28 1071.01 2170.28 1108.26C2170.28 1145.52 2104.56 1175.65 2023.31 1175.65C1942.05 1175.65 1876.33 1145.52 1876.33 1108.26" stroke="#B1B6CA" stroke-width="8" stroke-miterlimit="10" stroke-linecap="round"/>
<path d="M1683.32 195.138V195.175L1683.32 195.213L1736.55 547.25L1736.55 547.256C1737.39 552.405 1737.32 557.644 1736.34 562.774C1734.57 571.62 1730.69 585.343 1722.43 596.727C1714.19 608.092 1701.6 617.122 1682.35 616.661C1652.91 615.982 1630.28 592.659 1631.06 566.007L1642.25 198.961L1645.9 79.3938C1645.93 79.3437 1645.98 79.2767 1646.03 79.1967C1646.17 79.0042 1646.37 78.738 1646.64 78.4487C1647.17 77.8653 1647.93 77.2123 1648.89 76.8577C1649.82 76.5092 1650.96 76.4381 1652.3 77.0495C1653.65 77.6686 1655.24 79.0023 1657.01 81.5306C1660.56 86.5927 1664.75 96.2983 1669.25 114.057C1673.74 131.798 1678.53 157.534 1683.32 194.622V195.138Z" fill="#F1F2F6" stroke="#2F3542"/>
<path d="M1711 599H1654V709H1711V599Z" fill="#F1F2F6"/>
<path d="M1704.76 683.119H1660.79V731.822H1704.76V683.119Z" fill="#F1F2F6"/>
<path d="M1683.91 195.165C1663.9 189.879 1650.29 193.905 1641.66 198.973L1645.31 79.2713C1645.31 79.2713 1664.56 46.1549 1683.73 194.617L1683.91 195.165Z" fill="#45AF0D"/>
<path d="M1710.91 631.678V709.47H1653.76V633.212C1671.89 626.084 1692.35 625.535 1710.91 631.678Z" fill="#45AF0D"/>
<path d="M1679.5 362.5C1667.56 447.901 1660.36 528.109 1679.5 617C1727.13 610.934 1749.72 574.229 1732.97 529.157L1706.41 344C1693.68 370.117 1689.36 386.299 1687.37 418.275C1680.37 394.007 1695.22 368.454 1679.5 362.5Z" fill="#2F3542" fill-opacity="0.45"/>
<path d="M1816.02 810.985L1816.02 810.985C1829.57 787.334 1862.58 778.988 1888.73 791.357L2247.24 961.404L2247.45 960.952L2247.24 961.404L2364.05 1016.79C2364.09 1016.84 2364.14 1016.91 2364.2 1017C2364.33 1017.19 2364.5 1017.47 2364.67 1017.81C2365.01 1018.5 2365.32 1019.39 2365.25 1020.29C2365.19 1021.17 2364.78 1022.1 2363.6 1022.91C2362.39 1023.75 2360.36 1024.46 2357.06 1024.8C2350.47 1025.47 2339 1024.63 2319.44 1020.53C2299.89 1016.42 2272.29 1009.07 2233.45 996.742L2233.44 996.738L2232.87 996.575L2232.86 996.574L1860.96 885.639L1860.96 885.639C1855.51 884.025 1850.37 881.642 1845.74 878.58C1837.75 873.251 1825.86 864.066 1818.2 852.338C1810.56 840.634 1807.17 826.445 1816.02 810.985Z" fill="#F1F2F6" stroke="#2F3542"/>
<path d="M1736.76 746.986L1711.71 793.615L1821.57 842.258L1846.63 795.629L1736.76 746.986Z" fill="#F1F2F6"/>
<path d="M1740.49 800.145L1759.76 764.275L1711.54 742.925L1692.27 778.795L1740.49 800.145Z" fill="#F1F2F6"/>
<path d="M2232.73 997.027C2246.73 983.003 2248.72 970.129 2247.45 960.952L2364.38 1016.39C2364.38 1016.39 2388.7 1046.52 2233.3 997.219L2232.73 997.027Z" fill="#45AF0D"/>
<path d="M1788.73 827.692L1711.7 793.59L1736.74 747.024L1812.18 780.442C1811.3 798.332 1802.91 815.239 1788.73 827.692Z" fill="#45AF0D"/>
<path d="M1000.48 1017C1000.53 1016.91 1000.58 1016.84 1000.62 1016.79L1117.44 961.404L1117.23 960.974L1117.44 961.404L1475.94 791.357C1502.09 778.988 1535.1 787.334 1548.65 810.985C1557.51 826.445 1554.11 840.634 1546.47 852.338C1538.82 864.066 1526.93 873.252 1518.93 878.581C1514.3 881.652 1509.16 884.044 1503.71 885.667L1503.71 885.667L1131.81 996.574L1131.81 996.575L1131.24 996.738L1131.24 996.738L1131.22 996.742C1092.38 1009.07 1064.78 1016.42 1045.23 1020.53C1025.67 1024.63 1014.2 1025.47 1007.61 1024.8C1004.31 1024.46 1002.29 1023.75 1001.08 1022.91C999.893 1022.1 999.485 1021.17 999.422 1020.29C999.357 1019.39 999.659 1018.5 1000 1017.81C1000.17 1017.47 1000.34 1017.19 1000.48 1017Z" fill="#F1F2F6" stroke="#2F3542"/>
<path d="M1627.92 746.977L1518.05 795.62L1543.1 842.25L1652.97 793.606L1627.92 746.977Z" fill="#F1F2F6"/>
<path d="M1672.4 778.782L1653.13 742.911L1604.91 764.261L1624.18 800.131L1672.4 778.782Z" fill="#F1F2F6"/>
<path d="M1131.95 997.027C1117.95 983.003 1115.96 970.129 1117.22 960.952L1000.3 1016.39C1000.3 1016.39 975.975 1046.52 1131.37 997.219L1131.95 997.027Z" fill="#45AF0D"/>
<path d="M1575.94 827.692L1652.98 793.59L1627.93 747.024L1552.49 780.442C1553.37 798.332 1561.76 815.239 1575.94 827.692Z" fill="#45AF0D"/>
<path d="M1697.66 767.027L1733.24 1964.49H1622.17L1657.75 767.027H1697.66Z" fill="#F1F2F6" stroke="#2F3542"/>
<path d="M1710 1259.5L1724.18 1646H1677.84C1676.07 1449.95 1673.66 1397.5 1710 1259.5Z" fill="#2F3542" fill-opacity="0.69"/>
<path d="M1682.34 785.674C1702.97 785.674 1719.69 770.491 1719.69 751.763C1719.69 733.034 1702.97 717.852 1682.34 717.852C1661.71 717.852 1644.98 733.034 1644.98 751.763C1644.98 770.491 1661.71 785.674 1682.34 785.674Z" fill="#45AF0D"/>
<path d="M2495.47 501.835H2495.47L2495.48 501.83L2503.08 253.497L2503.08 253.497L2505.52 172.664C2505.54 172.638 2505.56 172.608 2505.58 172.574C2505.67 172.448 2505.8 172.273 2505.98 172.084C2506.33 171.699 2506.83 171.277 2507.44 171.049C2508.03 170.828 2508.76 170.78 2509.62 171.175C2510.51 171.577 2511.56 172.455 2512.75 174.152C2515.14 177.552 2517.97 184.095 2521.01 196.105C2524.05 208.098 2527.29 225.5 2530.53 250.583V250.907V250.945L2530.54 250.982L2566.54 489.289L2566.54 489.293C2567.09 492.718 2567.04 496.2 2566.39 499.611C2565.2 505.58 2562.59 514.83 2557.03 522.499C2551.48 530.148 2543.01 536.219 2530.06 535.91C2520.49 535.509 2511.49 531.693 2505.01 525.307C2498.54 518.921 2495.12 510.485 2495.47 501.835Z" fill="#F1F2F6" stroke="#2F3542"/>
<path d="M2549.35 523.782H2510.7V598.863H2549.35V523.782Z" fill="#F1F2F6"/>
<path d="M2545.19 581.031H2515.43V613.983H2545.19V581.031Z" fill="#F1F2F6"/>
<path d="M2523.84 306.467C2514.9 382.483 2515.41 458.877 2529.74 538C2565.4 532.601 2568.11 506.19 2563 460L2537.5 289C2527.96 312.247 2531.22 327.651 2529.74 356.113C2524.5 334.512 2535.62 311.767 2523.84 306.467Z" fill="#2F3542" fill-opacity="0.45"/>
<path d="M2531.09 250.935C2517.55 247.374 2508.34 250.085 2502.58 253.509L2505.02 172.54C2505.02 172.54 2518.06 150.133 2531.03 250.578L2531.09 250.935Z" fill="#45AF0D"/>
<path d="M2549.35 546.216V598.808H2510.7V547.284C2522.95 542.447 2536.79 542.064 2549.35 546.216Z" fill="#45AF0D"/>
<path d="M2669.5 654.424L2669.5 654.426L2912.05 769.471L2912.26 769.02L2912.05 769.471L2991.03 806.917C2991.04 806.932 2991.05 806.948 2991.06 806.966C2991.07 806.982 2991.08 807 2991.1 807.019C2991.18 807.146 2991.29 807.331 2991.41 807.555C2991.63 808.011 2991.82 808.586 2991.78 809.158C2991.75 809.701 2991.5 810.291 2990.74 810.818C2989.95 811.361 2988.61 811.842 2986.4 812.071C2981.97 812.53 2974.23 811.967 2961 809.184C2947.79 806.404 2929.12 801.417 2902.85 793.059L2902.78 793.035H2902.7H2902.38L2650.82 718.031C2650.82 718.031 2650.82 718.031 2650.82 718.031C2647.14 716.901 2643.68 715.249 2640.58 713.138L2640.3 713.551L2640.57 713.135C2635.18 709.546 2627.15 703.352 2621.98 695.449C2616.84 687.571 2614.55 678.04 2620.51 667.65C2625.09 660.039 2632.8 654.365 2641.98 651.883C2651.17 649.399 2661.06 650.314 2669.5 654.424Z" fill="#F1F2F6" stroke="#2F3542"/>
<path d="M2566.83 624.258L2549.88 655.795L2624.22 688.708L2641.17 657.171L2566.83 624.258Z" fill="#F1F2F6"/>
<path d="M2569.38 660.237L2582.42 635.962L2549.8 621.517L2536.75 645.792L2569.38 660.237Z" fill="#F1F2F6"/>
<path d="M2902.4 793.425C2911.87 783.948 2913.23 775.237 2912.35 769.019L2991.44 806.519C2991.44 806.519 3007.92 826.98 2902.79 793.535L2902.4 793.425Z" fill="#45AF0D"/>
<path d="M2602.01 678.874L2549.77 655.783L2566.7 624.255L2617.79 646.853C2617.22 658.963 2611.57 670.418 2602.01 678.874Z" fill="#45AF0D"/>
<path d="M2068.93 806.917L2147.91 769.471L2147.91 769.471L2390.45 654.427L2390.46 654.424C2398.9 650.314 2408.79 649.399 2417.97 651.883C2427.16 654.365 2434.87 660.039 2439.45 667.65C2445.4 678.04 2443.12 687.571 2437.97 695.449C2432.81 703.352 2424.78 709.546 2419.38 713.135L2419.66 713.552L2419.38 713.138C2416.27 715.249 2412.81 716.901 2409.13 718.031C2409.13 718.031 2409.13 718.031 2409.13 718.031L2157.58 793.035H2157.26H2157.18L2157.11 793.059C2130.83 801.417 2112.17 806.404 2098.95 809.184C2085.72 811.967 2077.99 812.53 2073.56 812.071C2071.34 811.842 2070 811.361 2069.22 810.818C2068.46 810.291 2068.21 809.701 2068.17 809.158C2068.13 808.586 2068.32 808.011 2068.55 807.555C2068.66 807.331 2068.78 807.146 2068.86 807.019C2068.89 806.979 2068.91 806.945 2068.93 806.917Z" fill="#F1F2F6" stroke="#2F3542"/>
<path d="M2493.24 624.27L2418.9 657.183L2435.84 688.72L2510.18 655.807L2493.24 624.27Z" fill="#F1F2F6"/>
<path d="M2523.3 645.771L2510.26 621.497L2477.64 635.942L2490.68 660.217L2523.3 645.771Z" fill="#F1F2F6"/>
<path d="M2157.65 793.425C2148.18 783.948 2146.82 775.237 2147.69 769.019L2068.6 806.519C2068.6 806.519 2052.13 826.98 2157.26 793.535L2157.65 793.425Z" fill="#45AF0D"/>
<path d="M2458.04 678.874L2510.15 655.783L2493.23 624.255L2442.14 646.853C2442.74 658.978 2448.43 670.435 2458.04 678.874Z" fill="#45AF0D"/>
<path d="M2540.23 637.985L2564.32 1447.88L2489.13 1459.88L2513.54 637.985H2540.23Z" fill="#F1F2F6" stroke="#2F3542"/>
<path d="M2556.01 1151L2570.18 1537.5H2523.84C2522.07 1341.45 2519.67 1289 2556.01 1151Z" fill="#2F3542" fill-opacity="0.69"/>
<path d="M2530.04 650.441C2544 650.441 2555.32 640.164 2555.32 627.487C2555.32 614.81 2544 604.533 2530.04 604.533C2516.07 604.533 2504.75 614.81 2504.75 627.487C2504.75 640.164 2516.07 650.441 2530.04 650.441Z" fill="#45AF0D"/>
<path d="M766.005 501.835H766.005L766.005 501.83L773.579 253.497L773.579 253.497L776.019 172.664C776.036 172.638 776.057 172.608 776.081 172.574C776.17 172.448 776.303 172.273 776.477 172.084C776.83 171.699 777.326 171.277 777.937 171.049C778.532 170.828 779.259 170.78 780.124 171.175C781.006 171.577 782.062 172.455 783.254 174.152C785.64 177.552 788.468 184.095 791.511 196.105C794.55 208.098 797.793 225.5 801.034 250.583V250.907V250.945L801.04 250.982L837.068 489.289L837.068 489.289C837.591 492.718 837.531 496.198 836.891 499.61C835.704 505.58 833.09 514.83 827.528 522.499C821.982 530.148 813.513 536.219 800.556 535.91C790.988 535.509 781.993 531.692 775.525 525.305C769.058 518.919 765.642 510.482 766.005 501.835Z" fill="#F1F2F6" stroke="#2F3542"/>
<path d="M819.85 523.782H781.196V598.863H819.85V523.782Z" fill="#F1F2F6"/>
<path d="M815.686 581.031H785.933V613.983H815.686V581.031Z" fill="#F1F2F6"/>
<path d="M801.594 250.935C788.076 247.374 778.842 250.085 773.079 253.509L775.523 172.54C775.523 172.54 788.559 150.133 801.534 250.578L801.594 250.935Z" fill="#45AF0D"/>
<path d="M819.85 546.216V598.808H781.196V547.284C793.454 542.447 807.29 542.064 819.85 546.216Z" fill="#45AF0D"/>
<path d="M940.089 654.424L940.094 654.426L1182.64 769.471L1182.85 769.019L1182.64 769.471L1261.65 806.917C1261.67 806.945 1261.69 806.979 1261.72 807.018C1261.8 807.146 1261.91 807.33 1262.02 807.554C1262.25 808.01 1262.44 808.585 1262.4 809.157C1262.36 809.699 1262.11 810.29 1261.35 810.818C1260.56 811.361 1259.22 811.842 1257 812.071C1252.57 812.53 1244.83 811.967 1231.6 809.184C1218.38 806.404 1199.71 801.417 1173.44 793.058L1173.37 793.035H1173.29H1172.97L921.444 718.031C921.444 718.031 921.443 718.031 921.443 718.031C917.753 716.901 914.286 715.249 911.168 713.137L910.887 713.551L911.164 713.135C905.767 709.546 897.747 703.353 892.59 695.45C887.449 687.571 885.174 678.04 891.132 667.65C895.702 660.041 903.41 654.368 912.587 651.885C921.766 649.401 931.654 650.316 940.089 654.424Z" fill="#F1F2F6" stroke="#2F3542"/>
<path d="M837.337 624.265L820.392 655.803L894.731 688.716L911.676 657.178L837.337 624.265Z" fill="#F1F2F6"/>
<path d="M839.871 660.229L852.914 635.954L820.287 621.509L807.245 645.784L839.871 660.229Z" fill="#F1F2F6"/>
<path d="M1172.9 793.425C1182.37 783.948 1183.73 775.237 1182.85 769.019L1261.97 806.519C1261.97 806.519 1278.42 826.98 1173.29 793.535L1172.9 793.425Z" fill="#45AF0D"/>
<path d="M872.505 678.874L820.393 655.783L837.351 624.255L888.407 646.853C887.818 658.981 882.126 670.442 872.505 678.874Z" fill="#45AF0D"/>
<path d="M689.882 713.135L689.878 713.138C686.771 715.249 683.314 716.901 679.634 718.031C679.633 718.031 679.633 718.031 679.632 718.031L428.078 793.035H427.758H427.681L427.607 793.059C401.333 801.417 382.669 806.404 369.452 809.184C356.224 811.967 348.49 812.53 344.06 812.071C341.844 811.842 340.505 811.361 339.72 810.818C338.959 810.291 338.71 809.701 338.672 809.158C338.632 808.586 338.824 808.011 339.05 807.555C339.161 807.331 339.275 807.146 339.361 807.019C339.387 806.979 339.411 806.945 339.431 806.917L418.407 769.471L418.407 769.471L660.952 654.427L660.957 654.424C669.397 650.314 679.29 649.399 688.473 651.883C697.655 654.365 705.369 660.039 709.945 667.65C715.902 678.04 713.627 687.571 708.482 695.45C703.322 703.352 695.294 709.546 689.882 713.135Z" fill="#F1F2F6" stroke="#2F3542"/>
<path d="M763.729 624.261L689.39 657.174L706.335 688.711L780.673 655.798L763.729 624.261Z" fill="#F1F2F6"/>
<path d="M793.827 645.788L780.784 621.513L748.158 635.959L761.2 660.234L793.827 645.788Z" fill="#F1F2F6"/>
<path d="M428.151 793.425C418.706 783.948 417.348 775.237 418.193 769.019L339.105 806.519C339.105 806.519 322.629 826.98 427.758 793.535L428.151 793.425Z" fill="#45AF0D"/>
<path d="M728.541 678.874L780.653 655.783L763.725 624.255L712.639 646.853C713.256 658.975 718.943 670.427 728.541 678.874Z" fill="#45AF0D"/>
<path d="M810.735 637.985L834.815 1447.8H759.985L784.065 637.985H810.735Z" fill="#F1F2F6" stroke="#2F3542"/>
<path d="M824 1070L833.181 1453.5H786.843C785.074 1257.45 787.662 1208 824 1070Z" fill="#2F3542" fill-opacity="0.69"/>
<path d="M800.538 650.441C814.503 650.441 825.825 640.164 825.825 627.487C825.825 614.81 814.503 604.533 800.538 604.533C786.573 604.533 775.252 614.81 775.252 627.487C775.252 640.164 786.573 650.441 800.538 650.441Z" fill="#45AF0D"/>
<path d="M3363.91 1657.34C3338.09 1742.86 3282.04 1818.31 3204.38 1872.09C3126.72 1925.86 3031.75 1955 2934.07 1955.01H661.696C556.672 1954.95 453.72 1928.47 364.274 1878.51C274.828 1828.54 202.389 1757.05 155 1671.97C155 1671.97 484.358 1258.41 1339.72 1528.6C2049.86 1752.91 2377.41 1540.79 2468.26 1462.29C2478.1 1453.83 2489.72 1447.26 2502.42 1442.99C2515.13 1438.71 2528.66 1436.82 2542.19 1437.42C2716.21 1444.89 3319.01 1483.19 3364 1657.29L3363.91 1657.34Z" fill="#45AF0D"/>
<path opacity="0.1" d="M631.046 1991.97C834.227 1991.97 998.938 1974.42 998.938 1952.78C998.938 1931.13 834.227 1913.58 631.046 1913.58C427.865 1913.58 263.155 1931.13 263.155 1952.78C263.155 1974.42 427.865 1991.97 631.046 1991.97Z" fill="#45AF0D"/>
<path d="M815.203 1917.8C815.203 1917.8 791.335 1915.25 775.795 1904.73L774.618 1903.88C775.557 1902.6 776.242 1901.18 776.64 1899.69C774.971 1896.74 774.092 1893.47 774.075 1890.16C774.123 1887.05 773.423 1883.96 772.023 1881.12V1865.72C772.023 1865.72 766.863 1860.74 766.35 1848.06C765.837 1835.37 765.324 1772.87 765.324 1772.87C764.528 1769.59 764.355 1766.22 764.811 1762.9C765.324 1755.67 765.324 1752.95 765.324 1752.95C763.636 1748.75 763.108 1744.24 763.785 1739.81C765.324 1734.33 760.164 1728.03 760.164 1728.03L767.889 1693.62C767.889 1693.62 772.174 1574.77 759.711 1538.94V1538.72C759.711 1538.72 759.711 1538.42 759.711 1538.29C760.768 1515.17 745.318 1476.68 754.069 1449.97C762.819 1423.27 763.845 1417.35 763.845 1417.35C763.845 1417.35 725.282 1329.48 715.566 1308.66C708.837 1294.31 701.866 1278.53 694.987 1269.55C694.383 1268.76 693.78 1268.02 693.176 1267.33C692.844 1266.94 692.512 1266.56 692.18 1266.23C694.283 1263.05 695.552 1259.47 695.892 1255.77C696.435 1249.3 695.409 1241.85 700.599 1237.28C702.579 1235.81 704.711 1234.51 706.966 1233.42C710.94 1231.04 714.105 1227.71 716.105 1223.79C718.104 1219.87 718.858 1215.52 718.281 1211.23C717.195 1204.41 712.88 1198.74 707.962 1193.23C709.646 1184.88 708.974 1176.27 706.009 1168.22C703.044 1160.16 697.882 1152.92 691.003 1147.16C691.003 1146.31 691.003 1145.43 691.003 1144.59C691.143 1138.31 689.024 1132.17 684.968 1127.08L686.417 1128.01C685.602 1127.36 684.818 1126.73 683.973 1126.1C682.782 1125.01 681.419 1124.08 679.929 1123.36C668.488 1116.26 655.114 1112.16 641.274 1111.51C627.435 1110.85 613.664 1113.67 601.475 1119.66C595.371 1122.62 590.128 1126.86 586.176 1132.01C578.119 1143.3 580.141 1157.9 575.977 1170.72C571.934 1182.96 562.398 1193.1 554.493 1203.78C546.587 1214.46 539.978 1227.12 542.966 1239.61C545.108 1248.67 552.229 1256.81 552.018 1266.09C551.664 1270.96 549.45 1275.56 545.759 1279.1C542.068 1282.64 537.132 1284.9 531.801 1285.49H531.529C530.531 1285.63 529.522 1285.7 528.512 1285.71C538.108 1291.71 550.027 1293.92 561.704 1295.32C561.463 1296.14 561.222 1296.97 561.01 1297.81C551.566 1330.16 543.147 1371.25 543.147 1371.25C543.147 1371.25 548.789 1412.89 536.961 1445.51C525.132 1478.13 526.671 1545.16 526.671 1545.16C526.671 1545.16 559.592 1529.74 561.644 1539.68C563.696 1549.63 561.644 1552.36 561.644 1552.36C561.644 1552.36 568.373 1555.46 576.279 1558.2L575.947 1562.17L574.498 1579.98C573.945 1583.71 574.573 1587.51 576.309 1590.93C579.145 1595.92 576.309 1609.5 576.309 1609.5C576.309 1609.5 573.895 1610.87 576.309 1617.23C578.723 1623.58 574.408 1632.62 574.408 1632.62C574.408 1632.62 571.39 1666.59 570.998 1673.71C570.606 1680.83 560.709 1701.35 560.709 1701.35C560.709 1701.35 569.459 1711.29 560.709 1712.66C551.958 1714.03 550.932 1726.36 550.932 1726.36C550.932 1726.36 540.642 1734.05 540.642 1736.77C540.642 1736.77 494.354 1779.36 483.552 1849.54C483.552 1849.54 472.749 1858.6 474.288 1867.2C475.163 1872.08 473.413 1873.75 471.723 1874.3C473.624 1874.52 475.706 1875.64 474.74 1879.78C473.202 1887.01 469.098 1902.43 469.098 1902.43H469.822C461.403 1911.28 449.092 1926.1 447.221 1939.11C447.221 1939.65 447.161 1940.2 447.04 1940.75L442.393 1950.26L483.039 1966.69L486.629 1961.7C486.629 1961.7 504.734 1980.28 525.223 1984.33C528.763 1985.03 532.373 1985.38 535.995 1985.4C547.43 1985.22 558.736 1983.17 569.369 1979.35C569.369 1979.35 584.275 1962.61 545.681 1959.43C545.681 1959.43 523.081 1935.87 525.132 1925.9C525.907 1921.71 526.38 1917.47 526.551 1913.22C526.551 1912.29 526.551 1911.38 526.551 1910.48L529.176 1910.84L529.659 1903.25C530.787 1901.97 531.337 1900.34 531.198 1898.7C531.198 1895.55 528.18 1895.09 531.198 1893.23C534.215 1891.36 534.215 1893.23 534.215 1888.71C534.215 1884.19 532.163 1885.53 536.78 1881.01C541.397 1876.49 536.267 1868.33 536.267 1868.33C536.267 1868.33 547.07 1861.07 546.557 1851.56C546.044 1842.06 581.016 1781.82 588.198 1779.55C595.379 1777.28 595.923 1765.5 595.923 1765.5C595.923 1765.5 605.699 1767.31 608.777 1765.5C611.855 1763.69 621.632 1749.67 621.632 1749.67C621.632 1749.67 660.859 1659.99 661.251 1626.02L663.816 1618.32C663.816 1618.32 678.752 1635.99 676.67 1648.67C674.588 1661.36 688.076 1670.4 688.076 1670.4V1708.91C689.584 1715.62 690.412 1722.44 690.551 1729.29C690.038 1735.61 696.586 1741.97 694.111 1747.39C691.637 1752.82 694.111 1762.35 694.111 1762.35C694.111 1762.35 693.568 1775.03 694.111 1778.65C694.655 1782.26 692.09 1823.93 705.487 1842.06C705.487 1842.06 711.13 1855.18 705.487 1863.78C699.845 1872.38 710.617 1881.01 710.617 1881.01C710.617 1881.01 703.948 1890.95 710.617 1898.21C714.44 1902.8 716.159 1908.55 715.415 1914.26C712.729 1923.47 710.738 1935.55 715.234 1943.96V1944.15L716.441 1957.08L755.849 1954.34V1947.11C755.849 1947.11 782.765 1953.6 807.84 1950.06C821.359 1948.17 834.334 1943.35 842.27 1933.05C842.481 1933.19 858.413 1908.29 815.203 1917.8Z" fill="url(#paint0_linear)"/>
<path d="M835.179 1933.41C827.514 1943.68 814.992 1948.47 801.986 1950.36C777.847 1953.87 751.806 1947.41 751.806 1947.41V1954.69L713.755 1957.43L712.579 1944.56V1944.34C708.173 1935.85 710.195 1923.58 712.85 1914.34C714.126 1909.99 715.698 1905.71 717.557 1901.53C717.557 1901.53 750.327 1876.27 761.25 1895.23C763.621 1899.15 766.906 1902.55 770.876 1905.2C785.964 1915.66 808.927 1918.21 808.927 1918.21C850.568 1908.62 835.179 1933.41 835.179 1933.41Z" fill="#65617D"/>
<path opacity="0.1" d="M733.852 1908.62C733.852 1908.62 733.852 1932.07 752.711 1931.63C771.57 1931.19 774.105 1922.29 768.13 1916.26C764.076 1911.99 760.573 1907.31 757.69 1902.32L733.852 1908.62Z" fill="black"/>
<path d="M571.451 1979.35C561.182 1983.15 550.224 1985.2 539.134 1985.37C535.633 1985.35 532.144 1985 528.723 1984.33C508.868 1980.25 491.488 1961.76 491.488 1961.76L488.017 1966.75L448.79 1950.5L453.226 1941L453.407 1939.38C455.217 1926.42 467.106 1911.66 475.253 1902.84C479.689 1898.05 483.039 1895.03 483.039 1895.03L530.232 1901.33C530.232 1901.33 530.413 1906.81 530.232 1913.5C530.073 1917.73 529.609 1921.95 528.844 1926.12C526.883 1936.04 548.699 1959.49 548.699 1959.49C585.844 1962.72 571.451 1979.35 571.451 1979.35Z" fill="#65617D"/>
<path d="M477.064 1874.65C476.268 1874.9 475.416 1874.96 474.59 1874.82C475.398 1874.64 476.235 1874.58 477.064 1874.65Z" fill="#444053"/>
<path opacity="0.1" d="M530.232 1901.42C530.232 1901.42 530.413 1906.89 530.232 1913.58L474.71 1905.36C474.71 1905.36 474.982 1904.4 475.374 1902.81C479.81 1898.02 483.159 1895.01 483.159 1895.01L530.232 1901.42Z" fill="black"/>
<path opacity="0.1" d="M770.786 1905.09C762.397 1922.7 712.488 1918.54 712.488 1918.54C712.736 1917.11 712.827 1915.67 712.759 1914.24C714.035 1909.88 715.607 1905.6 717.467 1901.42C717.467 1901.42 750.237 1876.16 761.16 1895.12C763.53 1899.04 766.816 1902.44 770.786 1905.09Z" fill="black"/>
<path d="M771.6 1900.07C766.652 1920.34 712.488 1915.85 712.488 1915.85C713.528 1909.83 711.925 1903.67 708.022 1898.7C701.565 1891.5 708.022 1881.58 708.022 1881.58C708.022 1881.58 697.582 1873.01 703.073 1864.44C708.565 1855.86 703.073 1842.8 703.073 1842.8C690.128 1824.77 692.633 1783.28 692.09 1779.8C691.547 1776.32 692.09 1763.58 692.09 1763.58C692.09 1763.58 689.646 1754.1 692.09 1748.68C694.534 1743.26 688.167 1736.96 688.65 1730.66C688.51 1723.84 687.713 1717.05 686.266 1710.36V1672.01C686.266 1672.01 673.261 1663 675.252 1650.37C677.244 1637.74 662.82 1620.24 662.82 1620.24L660.346 1627.91C659.863 1661.71 622.114 1750.98 622.114 1750.98C622.114 1750.98 612.67 1764.98 609.682 1766.79C606.695 1768.59 597.281 1766.79 597.281 1766.79C597.281 1766.79 596.768 1778.51 589.827 1780.76C582.887 1783 549.091 1842.96 549.604 1852.44C550.117 1861.92 539.647 1869.12 539.647 1869.12C539.647 1869.12 544.625 1877.34 540.16 1881.75C535.694 1886.16 537.655 1884.9 537.655 1889.42C537.655 1893.94 537.655 1892.16 534.638 1893.91C531.62 1895.66 534.638 1896.18 534.638 1899.39C534.779 1901.01 534.24 1902.61 533.129 1903.88L532.676 1911.47L474.529 1903C474.529 1903 478.512 1887.67 479.991 1880.43C480.866 1876.22 478.844 1875.09 476.973 1874.96C478.633 1874.41 480.323 1872.74 479.478 1867.92C477.969 1859.34 488.53 1850.33 488.53 1850.33C498.971 1780.43 543.66 1738.03 543.66 1738.03C543.66 1735.29 553.587 1727.67 553.587 1727.67C553.587 1727.67 554.583 1715.48 563.032 1714.14C571.481 1712.8 563.032 1702.85 563.032 1702.85C563.032 1702.85 572.477 1682.58 572.96 1675.46C573.442 1668.34 576.249 1634.38 576.249 1634.38C576.249 1634.38 580.413 1625.36 578.089 1619.06C575.766 1612.76 578.089 1611.39 578.089 1611.39C578.089 1611.39 580.896 1597.86 578.089 1592.9C576.425 1589.51 575.82 1585.77 576.339 1582.08L577.757 1564.33L579.809 1537.9C579.809 1537.9 734.335 1513.69 751.353 1533.05C753.195 1535.45 754.554 1538.12 755.366 1540.94C767.436 1576.55 763.272 1694.91 763.272 1694.91L755.819 1729.18C755.819 1729.18 760.798 1735.51 759.319 1740.9C758.653 1745.31 759.16 1749.8 760.798 1753.99C760.798 1753.99 760.798 1756.73 760.285 1763.91C759.851 1767.22 760.024 1770.57 760.798 1773.83C760.798 1773.83 761.281 1836.03 761.794 1848.66C762.307 1861.29 767.255 1866.25 767.255 1866.25V1881.58C768.595 1884.43 769.264 1887.5 769.217 1890.6C769.193 1893.88 770.009 1897.12 771.6 1900.07Z" fill="#444053"/>
<path opacity="0.1" d="M539.134 1985.43C535.633 1985.41 532.144 1985.06 528.723 1984.39C508.868 1980.3 491.488 1961.81 491.488 1961.81L488.017 1966.8L448.79 1950.56L453.226 1941L453.407 1939.38L493.962 1958.14C493.962 1958.14 526.339 1972.22 539.134 1985.43Z" fill="black"/>
<path opacity="0.1" d="M801.926 1950.36C777.786 1953.87 751.745 1947.41 751.745 1947.41V1954.69L713.695 1957.43L712.518 1944.56C724.588 1944.75 743.99 1944.94 752.439 1944.34C769.159 1944.31 785.806 1946.34 801.926 1950.36Z" fill="black"/>
<path opacity="0.1" d="M496.497 1863.04C498.479 1862.88 500.478 1863.11 502.35 1863.73C504.309 1864.79 506.167 1866 507.903 1867.34C509.206 1867.97 510.438 1868.71 511.584 1869.56C513.032 1870.85 513.636 1872.76 515.084 1874.05C517.74 1876.43 522.115 1875.89 525.645 1877.04C526.038 1877.04 526.46 1877.34 526.52 1877.69C526.581 1878.05 526.249 1878.35 525.917 1878.57C525.043 1879.02 524.056 1879.26 523.05 1879.26C522.045 1879.26 521.057 1879.02 520.184 1878.57C518.433 1877.67 516.82 1876.57 515.386 1875.28C512.63 1873.06 509.477 1871.28 506.062 1870.03C501.385 1868.35 493.238 1867.89 490.281 1863.73C491.669 1862.77 494.686 1863.07 496.497 1863.04Z" fill="black"/>
<path opacity="0.1" d="M492.513 1872.52C493.563 1872.79 494.576 1873.16 495.531 1873.64L500.631 1875.97C497.009 1876.19 493.395 1875.46 490.22 1873.86C489.093 1873.45 487.995 1872.97 486.931 1872.44C488.784 1872.18 490.671 1872.21 492.513 1872.52Z" fill="black"/>
<path opacity="0.1" d="M499.242 1880.41C500.356 1880.36 501.471 1880.45 502.562 1880.65C504.483 1881.26 506.263 1882.19 507.812 1883.39C511.532 1886.12 516.186 1887.58 520.968 1887.53C520.028 1887.93 518.985 1888.09 517.951 1887.99H507.269C504.49 1888.16 501.72 1887.58 499.303 1886.32C497.492 1885.53 490.009 1883.58 489.949 1881.31C489.888 1879.04 497.432 1880.41 499.242 1880.41Z" fill="black"/>
<path opacity="0.1" d="M742.301 1891.91C745.567 1892.24 748.857 1892.32 752.138 1892.16C755.592 1892.07 758.954 1891.12 761.854 1889.42C764.721 1887.42 764.117 1885.36 760.466 1885.23C757.071 1885.37 753.739 1886.11 750.659 1887.42C749.066 1888 747.531 1888.71 746.073 1889.53C745.318 1889.83 742.844 1891.94 742.301 1891.91Z" fill="black"/>
<path opacity="0.1" d="M754.19 1896.84C753.888 1897.94 752.62 1898.54 751.474 1898.95C748.665 1899.92 745.718 1900.51 742.723 1900.7C741.969 1900.7 739.856 1900.7 740.128 1899.64C740.4 1898.57 743.538 1898.9 744.292 1898.81C747.636 1898.36 750.943 1897.7 754.19 1896.84Z" fill="black"/>
<path opacity="0.1" d="M724.377 1895.06C728.55 1894.62 732.77 1895.38 736.447 1897.23C736.558 1897.29 736.643 1897.39 736.688 1897.5C736.709 1897.54 736.72 1897.58 736.72 1897.62C736.72 1897.66 736.709 1897.71 736.688 1897.75C736.304 1898.4 735.715 1898.94 734.996 1899.29C734.276 1899.64 733.458 1899.79 732.645 1899.72C731.032 1899.55 729.449 1899.19 727.937 1898.65C725.423 1897.91 722.794 1897.55 720.152 1897.58C718.978 1897.68 717.796 1897.68 716.622 1897.58C713.122 1897.03 714.268 1895.75 716.954 1895.47C719.419 1895.22 721.896 1895.08 724.377 1895.06Z" fill="black"/>
<path opacity="0.1" d="M587.926 1717.89C582.947 1714.73 577.046 1712.97 570.968 1712.85C577.122 1712.5 583.19 1714.31 587.926 1717.89Z" fill="black"/>
<path opacity="0.1" d="M583.279 1699.7C587.756 1699.73 592.139 1700.86 595.953 1702.99L591.366 1701.84C588.607 1701.05 585.766 1700.5 582.887 1700.22C581.227 1700.09 579.568 1700.22 577.908 1700.06C576.249 1699.9 574.136 1699.62 572.266 1699.57C575.917 1699.73 579.598 1699.54 583.279 1699.7Z" fill="black"/>
<path opacity="0.1" d="M598.216 1708.36C599.604 1708.61 601.233 1709.15 601.535 1710.44C601.535 1709.67 591.698 1707.15 590.491 1706.8C588.469 1706.14 581.982 1703.57 580.503 1705.35C586.206 1706.74 592.362 1707.26 598.216 1708.36Z" fill="black"/>
<path opacity="0.1" d="M612.036 1668.31C618.559 1666.33 624.438 1662.9 629.145 1658.34C629.095 1660.37 628.493 1662.36 627.393 1664.13C626.292 1665.9 624.728 1667.39 622.838 1668.48C619.014 1670.58 614.786 1672.01 610.376 1672.7C605.972 1673.38 601.675 1674.55 597.582 1676.17C595.621 1677.08 589.495 1682.34 587.564 1682.06C585.12 1681.74 589.013 1678.23 589.918 1677.6C596.375 1673.02 604.553 1671 612.036 1668.31Z" fill="black"/>
<path opacity="0.1" d="M733.731 1726.79C731.619 1726.14 705.97 1730.66 707.539 1726.14C708.505 1723.4 716.833 1724.38 718.915 1724.47C723.951 1724.59 728.941 1725.38 733.731 1726.79Z" fill="black"/>
<path d="M706.091 1187.73C706.09 1199.59 701.569 1211.08 693.295 1220.26C685.021 1229.44 673.503 1235.74 660.695 1238.09C647.888 1240.44 634.58 1238.7 623.028 1233.15C611.476 1227.61 602.393 1218.61 597.318 1207.68C592.244 1196.75 591.491 1184.56 595.187 1173.19C598.884 1161.81 606.802 1151.94 617.598 1145.26C628.395 1138.58 641.405 1135.5 654.421 1136.53C667.438 1137.57 679.659 1142.66 689.012 1150.94C694.437 1155.71 698.746 1161.43 701.681 1167.75C704.616 1174.08 706.115 1180.87 706.091 1187.73Z" fill="#FBBEBE"/>
<path d="M678.722 1208.9C678.722 1208.9 660.346 1257.6 670.786 1267.52C681.227 1277.44 595.772 1283.3 595.772 1283.3C595.772 1283.3 631.529 1225.14 628.059 1210.71C624.589 1196.27 678.722 1208.9 678.722 1208.9Z" stroke="#45AF0D" stroke-miterlimit="10"/>
<path opacity="0.1" d="M755.246 1541.08C755.246 1542.26 755.246 1543.38 755.246 1544.48C754.25 1567.48 709.048 1613.91 698.607 1606.24C688.167 1598.57 617.135 1583.24 617.135 1583.24C617.135 1583.24 606.695 1568.36 595.772 1568.36C589.57 1567.87 583.502 1566.45 577.818 1564.14L579.87 1537.71C579.87 1537.71 734.334 1513.69 751.353 1533.05C753.169 1535.5 754.487 1538.21 755.246 1541.08Z" fill="black"/>
<path d="M755.215 1540.29C754.703 1551.82 743.146 1569.21 730.382 1582.74C717.618 1596.27 703.798 1605.86 698.577 1601.92C694.758 1599.65 690.616 1597.88 686.266 1596.63C662.76 1588.77 617.136 1578.91 617.136 1578.91C617.136 1578.91 606.695 1564.03 595.772 1564.03C584.848 1564.03 563.998 1554.12 563.998 1554.12C563.998 1554.12 565.989 1551.38 563.998 1541.49C562.006 1531.6 530.232 1546.97 530.232 1546.97C530.232 1546.97 528.723 1480.24 540.16 1447.76C551.596 1415.27 546.194 1373.8 546.194 1373.8C546.194 1373.8 554.372 1332.93 563.243 1300.64C568.584 1281.27 574.197 1265.03 578.482 1262.45C589.918 1255.69 649.513 1262.45 649.513 1262.45C649.513 1262.45 674.347 1262.89 683.792 1265.19C686.725 1266.23 689.226 1268.08 690.943 1270.48C691.516 1271.19 692.12 1271.93 692.693 1272.72C699.332 1281.76 706.091 1297.38 712.578 1311.65C722.023 1332.38 759.289 1419.84 759.289 1419.84C759.289 1419.84 758.293 1425.71 749.844 1452.3C741.395 1478.9 756.211 1517.3 755.215 1540.29Z" fill="#65617D"/>
<path d="M712.488 1566.88L730.382 1582.71C730.382 1582.71 746.767 1634.05 725.403 1629.55C704.039 1625.06 686.175 1596.68 686.175 1596.68L712.488 1566.88Z" fill="#FBBEBE"/>
<path opacity="0.1" d="M757.69 1423.95C715.445 1423.51 704.552 1369.85 704.552 1369.85C704.552 1369.85 701.535 1316.66 696.103 1306.85C693.086 1301.38 691.728 1287.9 691.124 1276.94C697.763 1285.98 704.492 1301.59 711.009 1315.87C720.454 1336.49 757.69 1423.95 757.69 1423.95Z" fill="black"/>
<path d="M759.199 1419.9C716.954 1419.46 706.091 1365.77 706.091 1365.77C706.091 1365.77 703.073 1312.58 697.642 1302.77C694.625 1297.29 693.267 1283.82 692.663 1272.86C699.302 1281.9 706.061 1297.51 712.548 1311.78C721.933 1332.44 759.199 1419.9 759.199 1419.9Z" fill="#65617D"/>
<path opacity="0.1" d="M683.58 1287.54C683.58 1287.54 671.148 1256.89 650.78 1287.54C630.412 1318.19 629.93 1356.98 629.93 1356.98L626.46 1441.73C626.46 1441.73 632.917 1453.02 632.676 1459.32C632.434 1465.62 644.745 1483.67 644.745 1483.67C644.745 1483.67 647.763 1519.28 659.139 1525.14L670.062 1554.45C670.062 1554.45 670.575 1573.84 678.028 1581.51C685.481 1589.18 681.559 1601.01 681.559 1601.01L725.704 1586.99C725.704 1586.99 720.726 1588.6 725.704 1576.5C730.683 1564.39 722.687 1548.58 722.687 1548.58C722.687 1548.58 694.383 1492.68 690.913 1484.57C687.443 1476.46 682.464 1466.98 684.456 1457.51C686.447 1448.03 684.848 1347.5 687.473 1332.19C690.098 1316.88 683.58 1287.54 683.58 1287.54Z" fill="black"/>
<path d="M688.167 1283.3C688.167 1283.3 675.735 1252.65 655.367 1283.3C634.999 1313.95 634.516 1352.73 634.516 1352.73L631.046 1437.48C631.046 1437.48 637.504 1448.77 637.262 1455.07C637.021 1461.37 649.332 1479.42 649.332 1479.42C649.332 1479.42 652.35 1515.03 663.725 1520.89L674.649 1550.2C674.649 1550.2 675.162 1569.59 682.615 1577.26C690.068 1584.93 686.176 1596.77 686.176 1596.77L730.291 1582.71C730.291 1582.71 725.312 1584.36 730.291 1572.25C735.27 1560.14 727.274 1544.34 727.274 1544.34C727.274 1544.34 698.97 1488.43 695.5 1480.32C692.029 1472.22 687.051 1462.74 689.042 1453.26C691.034 1443.78 689.465 1343.26 692.06 1327.92C694.655 1312.58 688.167 1283.3 688.167 1283.3Z" fill="#444053"/>
<path opacity="0.1" d="M689.012 1548.42C690.89 1548.62 692.717 1549.11 694.413 1549.87C695.771 1550.53 696.948 1551.49 698.276 1552.17C699.834 1552.97 701.587 1553.4 703.375 1553.43C701.384 1553.43 699.392 1553.62 697.34 1553.65C696.106 1553.71 694.87 1553.57 693.689 1553.24C692.604 1552.74 691.591 1552.13 690.672 1551.41C689.461 1550.59 688.131 1549.92 686.719 1549.43C685.663 1549.02 684.516 1548.89 684.063 1547.9C685.726 1547.95 687.381 1548.13 689.012 1548.42Z" fill="black"/>
<path opacity="0.1" d="M705.819 1560.53C707.69 1560.53 709.561 1560.14 711.462 1560.03C714.195 1559.94 716.931 1560.07 719.639 1560.42C715.648 1562.23 711.161 1562.96 706.725 1562.5C705.448 1562.2 704.108 1562.2 702.832 1562.5C701.444 1563.02 697.431 1567.16 697.069 1563.49C696.707 1559.82 703.526 1560.61 705.819 1560.53Z" fill="black"/>
<path opacity="0.1" d="M682.977 1133.63L675.916 1128.86C676.689 1129.1 677.436 1129.41 678.149 1129.77C679.654 1130.53 681.019 1131.5 682.192 1132.64C682.977 1133.25 683.762 1133.9 684.516 1134.53L682.977 1133.63Z" fill="black"/>
<path opacity="0.1" d="M691.004 1270.53C689.708 1273.22 687.62 1275.53 684.969 1277.22C683.382 1278.2 681.564 1278.84 679.658 1279.08C676.953 1279.3 674.226 1279.04 671.631 1278.31C668.333 1277.55 665.08 1276.64 661.885 1275.57C655.641 1273.24 649.241 1271.26 642.724 1269.66C632.796 1267.6 621.239 1268.34 614.118 1274.92C607.872 1280.69 606.333 1289.68 600.087 1295.46C591.728 1303.18 578.029 1302.72 566.17 1301.21L563.394 1300.85C568.735 1281.49 574.348 1265.25 578.632 1262.67C590.069 1255.91 649.664 1262.67 649.664 1262.67C649.664 1262.67 674.498 1263.11 683.943 1265.41C686.818 1266.42 689.282 1268.21 691.004 1270.53Z" fill="black"/>
<path opacity="0.1" d="M592.815 1187.73C592.814 1177.62 596.098 1167.73 602.256 1159.31C608.414 1150.89 617.172 1144.3 627.434 1140.37C637.696 1136.45 649.007 1135.35 659.949 1137.23C670.891 1139.11 680.98 1143.88 688.952 1150.94C689.133 1159.9 686.99 1169.07 689.766 1177.7C692.331 1185.73 698.819 1192.19 704.673 1198.88C701.639 1211.22 693.694 1222.12 682.359 1229.48C671.025 1236.84 657.098 1240.15 643.245 1238.77C629.392 1237.39 616.587 1231.42 607.281 1222C597.976 1212.58 592.825 1200.38 592.815 1187.73Z" fill="black"/>
<path d="M684.365 1131.85C673.378 1122.81 659.537 1117.14 644.802 1115.63C630.067 1114.13 615.183 1116.87 602.259 1123.47C596.321 1126.44 591.251 1130.65 587.474 1135.77C579.689 1147.02 581.68 1161.54 577.606 1174.31C573.744 1186.49 564.511 1196.58 556.876 1207.18C549.242 1217.78 542.875 1230.43 545.742 1242.78C547.824 1251.82 554.794 1259.93 554.553 1269.16C554.275 1274.3 551.876 1279.15 547.833 1282.76C543.79 1286.36 538.4 1288.45 532.737 1288.61C542.332 1294.77 554.312 1296.83 565.929 1298.33C577.546 1299.84 591.457 1300.31 599.845 1292.56C606.091 1286.8 607.63 1277.79 613.877 1272.04C620.998 1265.44 632.555 1264.7 642.482 1266.78C652.41 1268.86 661.553 1273.22 671.39 1275.55C673.989 1276.25 676.713 1276.5 679.416 1276.28C687.895 1275.24 692.814 1266.7 693.478 1258.97C694.021 1252.54 692.995 1245.11 698.034 1240.57C699.905 1239.11 701.926 1237.81 704.069 1236.7C707.936 1234.28 710.997 1230.94 712.918 1227.05C714.838 1223.16 715.546 1218.86 714.962 1214.63C712.639 1199.34 694.413 1189.81 689.646 1174.99C686.869 1166.39 689.012 1157.21 688.831 1148.26C688.65 1139.3 684.938 1129.08 675.644 1126.07" fill="#444053"/>
<path opacity="0.1" d="M714.178 1214.71C711.824 1199.42 693.599 1189.89 688.831 1175.07C686.055 1166.47 688.197 1157.3 688.046 1148.34C688.126 1142.1 686.012 1135.99 682.011 1130.92L683.399 1131.85C682.655 1131.19 681.871 1130.56 681.046 1129.96C679.913 1128.87 678.599 1127.94 677.153 1127.22C676.308 1126.64 675.433 1126.12 674.588 1125.6L675.946 1126.73L674.558 1125.8C678.562 1130.87 680.677 1136.97 680.593 1143.22C680.593 1152.15 678.602 1161.35 681.378 1169.95C686.145 1184.77 704.371 1194.3 706.725 1209.59C707.298 1213.82 706.583 1218.12 704.657 1222.01C702.732 1225.9 699.669 1229.24 695.801 1231.66C693.656 1232.77 691.635 1234.06 689.766 1235.53C684.757 1240.07 685.753 1247.5 685.21 1253.93C684.546 1261.66 679.628 1270.2 671.179 1271.24C668.466 1271.46 665.732 1271.21 663.122 1270.5C653.285 1268.18 644.142 1263.79 634.214 1261.74C624.287 1259.69 612.76 1260.4 605.609 1267C599.363 1272.75 597.824 1281.74 591.578 1287.52C583.219 1295.27 569.52 1294.77 557.691 1293.29C549.914 1292.49 542.261 1290.89 534.879 1288.53C533.881 1288.67 532.872 1288.75 531.862 1288.75C541.457 1294.91 553.437 1296.97 565.054 1298.47C576.671 1299.98 590.582 1300.44 598.94 1292.69C605.186 1286.94 606.725 1277.93 612.971 1272.18C620.123 1265.57 631.68 1264.83 641.577 1266.92C651.474 1269 660.648 1273.35 670.485 1275.68C673.094 1276.39 675.828 1276.64 678.541 1276.42C686.99 1275.38 691.909 1266.83 692.573 1259.11C693.116 1252.67 692.12 1245.25 697.129 1240.7C699.005 1239.25 701.025 1237.96 703.164 1236.84C707.061 1234.42 710.15 1231.08 712.092 1227.18C714.035 1223.27 714.756 1218.96 714.178 1214.71Z" fill="black"/>
</g>
<defs>
<linearGradient id="paint0_linear" x1="643.84" y1="1985.43" x2="643.84" y2="1111.3" gradientUnits="userSpaceOnUse">
<stop stop-color="#808080" stop-opacity="0.25"/>
<stop offset="0.54" stop-color="#808080" stop-opacity="0.12"/>
<stop offset="1" stop-color="#808080" stop-opacity="0.1"/>
</linearGradient>
<clipPath id="clip0">
<rect width="3452" height="1992" fill="white"/>
</clipPath>
</defs>
</svg>
